<?xml version="1.0" encoding="UTF-8" standalone="no"?>
<!DOCTYPE svg PUBLIC "-//W3C//DTD SVG 1.1//EN"
 "http://www.w3.org/Graphics/SVG/1.1/DTD/svg11.dtd">
<!-- Generated by graphviz version 3.0.0 (20220226.1711)
 -->
<!-- Title: G Pages: 1 -->
<svg width="178pt" height="238pt"
 viewBox="0.00 0.00 177.62 238.39" xmlns="http://www.w3.org/2000/svg" xmlns:xlink="http://www.w3.org/1999/xlink">
<g id="graph0" class="graph" transform="scale(1 1) rotate(0) translate(4 234.39)">
<title>G</title><style>.edge>path:hover{stroke-width:8}</style>
<polygon fill="white" stroke="transparent" points="-4,4 -4,-234.39 173.62,-234.39 173.62,4 -4,4"/>
<!-- srepkg_shared_utils -->
<g id="node1" class="node">
<title>srepkg_shared_utils</title><style>.edge>path:hover{stroke-width:8}</style>
<ellipse fill="#bf2121" stroke="black" cx="54.45" cy="-21.21" rx="48.58" ry="21.43"/>
<text text-anchor="middle" x="54.45" y="-24.21" font-family="Helvetica,sans-Serif" font-size="10.00" fill="#ffffff">srepkg.</text>
<text text-anchor="middle" x="54.45" y="-13.21" font-family="Helvetica,sans-Serif" font-size="10.00" fill="#ffffff">shared_utils</text>
</g>
<!-- srepkg_shared_utils_ep_console_script -->
<g id="node2" class="node">
<title>srepkg_shared_utils_ep_console_script</title><style>.edge>path:hover{stroke-width:8}</style>
<ellipse fill="#b03a3a" stroke="black" cx="102.45" cy="-107.42" rx="67.35" ry="28.98"/>
<text text-anchor="middle" x="102.45" y="-115.92" font-family="Helvetica,sans-Serif" font-size="10.00" fill="#ffffff">srepkg.</text>
<text text-anchor="middle" x="102.45" y="-104.92" font-family="Helvetica,sans-Serif" font-size="10.00" fill="#ffffff">shared_utils.</text>
<text text-anchor="middle" x="102.45" y="-93.92" font-family="Helvetica,sans-Serif" font-size="10.00" fill="#ffffff">ep_console_script</text>
</g>
<!-- srepkg_shared_utils_ep_console_script&#45;&gt;srepkg_shared_utils -->
<g id="edge1" class="edge">
<title>srepkg_shared_utils_ep_console_script&#45;&gt;srepkg_shared_utils</title><style>.edge>path:hover{stroke-width:8}</style>
<path fill="none" stroke="black" d="M86.73,-78.85C81.66,-69.95 76.02,-60.06 70.9,-51.07"/>
<polygon fill="#b03a3a" stroke="black" points="73.78,-49.06 65.79,-42.11 67.7,-52.53 73.78,-49.06"/>
</g>
<!-- srepkg_shared_utils_named_tuples -->
<g id="node3" class="node">
<title>srepkg_shared_utils_named_tuples</title><style>.edge>path:hover{stroke-width:8}</style>
<ellipse fill="#b83d3d" stroke="black" cx="54.45" cy="-201.4" rx="54.39" ry="28.98"/>
<text text-anchor="middle" x="54.45" y="-209.9" font-family="Helvetica,sans-Serif" font-size="10.00" fill="#ffffff">srepkg.</text>
<text text-anchor="middle" x="54.45" y="-198.9" font-family="Helvetica,sans-Serif" font-size="10.00" fill="#ffffff">shared_utils.</text>
<text text-anchor="middle" x="54.45" y="-187.9" font-family="Helvetica,sans-Serif" font-size="10.00" fill="#ffffff">named_tuples</text>
</g>
<!-- srepkg_shared_utils_named_tuples&#45;&gt;srepkg_shared_utils -->
<g id="edge2" class="edge">
<title>srepkg_shared_utils_named_tuples&#45;&gt;srepkg_shared_utils</title><style>.edge>path:hover{stroke-width:8}</style>
<path fill="none" stroke="black" d="M39.58,-173.2C34.33,-162.12 29.08,-148.99 26.45,-136.41 21.17,-111.19 20.55,-103.51 26.45,-78.43 28.67,-69 32.72,-59.34 37.06,-50.75"/>
<polygon fill="#b83d3d" stroke="black" points="40.16,-52.37 41.82,-41.91 34,-49.06 40.16,-52.37"/>
</g>
<!-- srepkg_shared_utils_named_tuples&#45;&gt;srepkg_shared_utils_ep_console_script -->
<g id="edge3" class="edge">
<title>srepkg_shared_utils_named_tuples&#45;&gt;srepkg_shared_utils_ep_console_script</title><style>.edge>path:hover{stroke-width:8}</style>
<path fill="none" stroke="black" d="M68.59,-173.3C73.24,-164.38 78.49,-154.32 83.45,-144.83"/>
<polygon fill="#b83d3d" stroke="black" points="86.55,-146.45 88.07,-135.96 80.34,-143.21 86.55,-146.45"/>
</g>
</g>
</svg>
