<?xml version="1.0" encoding="UTF-8" standalone="no"?>
<!DOCTYPE svg PUBLIC "-//W3C//DTD SVG 1.1//EN"
 "http://www.w3.org/Graphics/SVG/1.1/DTD/svg11.dtd">
<!-- Generated by graphviz version 5.0.0 (20220707.1540)
 -->
<!-- Title: G Pages: 1 -->
<svg width="1563pt" height="389pt"
 viewBox="0.00 0.00 1562.61 388.82" xmlns="http://www.w3.org/2000/svg" xmlns:xlink="http://www.w3.org/1999/xlink">
<g id="graph0" class="graph" transform="scale(1 1) rotate(0) translate(4 384.82)">
<title>G</title><style>.edge>path:hover{stroke-width:8}</style>
<polygon fill="white" stroke="transparent" points="-4,4 -4,-384.82 1558.61,-384.82 1558.61,4 -4,4"/>
<!-- pkginfo -->
<g id="node1" class="node">
<title>pkginfo</title><style>.edge>path:hover{stroke-width:8}</style>
<ellipse fill="#b65353" stroke="black" cx="367.37" cy="-265.62" rx="28.01" ry="18"/>
<text text-anchor="middle" x="367.37" y="-263.12" font-family="Helvetica,sans-Serif" font-size="10.00" fill="#ffffff">pkginfo</text>
</g>
<!-- srepkg_construction_dir_new -->
<g id="node4" class="node">
<title>srepkg_construction_dir_new</title><style>.edge>path:hover{stroke-width:8}</style>
<ellipse fill="#439d43" stroke="black" cx="367.37" cy="-100.99" rx="77.15" ry="21.43"/>
<text text-anchor="middle" x="367.37" y="-103.99" font-family="Helvetica,sans-Serif" font-size="10.00" fill="#ffffff">srepkg.</text>
<text text-anchor="middle" x="367.37" y="-92.99" font-family="Helvetica,sans-Serif" font-size="10.00" fill="#ffffff">construction_dir_new</text>
</g>
<!-- pkginfo&#45;&gt;srepkg_construction_dir_new -->
<g id="edge1" class="edge">
<title>pkginfo&#45;&gt;srepkg_construction_dir_new</title><style>.edge>path:hover{stroke-width:8}</style>
<path fill="none" stroke="black" d="M367.37,-247.53C367.37,-220.3 367.37,-166.7 367.37,-132.69"/>
<polygon fill="#b65353" stroke="black" points="370.87,-132.4 367.37,-122.4 363.87,-132.4 370.87,-132.4"/>
</g>
<!-- srepkg_command_input -->
<g id="node2" class="node">
<title>srepkg_command_input</title><style>.edge>path:hover{stroke-width:8}</style>
<ellipse fill="#47c247" stroke="black" cx="813.37" cy="-100.99" rx="60.62" ry="21.43"/>
<text text-anchor="middle" x="813.37" y="-103.99" font-family="Helvetica,sans-Serif" font-size="10.00" fill="#000000">srepkg.</text>
<text text-anchor="middle" x="813.37" y="-92.99" font-family="Helvetica,sans-Serif" font-size="10.00" fill="#000000">command_input</text>
</g>
<!-- srepkg_srepkg -->
<g id="node19" class="node">
<title>srepkg_srepkg</title><style>.edge>path:hover{stroke-width:8}</style>
<ellipse fill="#409640" stroke="black" cx="891.37" cy="-18" rx="45.83" ry="18"/>
<text text-anchor="middle" x="891.37" y="-15.5" font-family="Helvetica,sans-Serif" font-size="10.00" fill="#ffffff">srepkg.srepkg</text>
</g>
<!-- srepkg_command_input&#45;&gt;srepkg_srepkg -->
<g id="edge2" class="edge">
<title>srepkg_command_input&#45;&gt;srepkg_srepkg</title><style>.edge>path:hover{stroke-width:8}</style>
<path fill="none" stroke="black" d="M832.25,-80.39C843.2,-69.02 857.06,-54.63 868.6,-42.64"/>
<polygon fill="#47c247" stroke="black" points="871.39,-44.79 875.81,-35.16 866.35,-39.93 871.39,-44.79"/>
</g>
<!-- srepkg_command_input_new -->
<g id="node3" class="node">
<title>srepkg_command_input_new</title><style>.edge>path:hover{stroke-width:8}</style>
<ellipse fill="#3db83d" stroke="black" cx="969.37" cy="-100.99" rx="77.15" ry="21.43"/>
<text text-anchor="middle" x="969.37" y="-103.99" font-family="Helvetica,sans-Serif" font-size="10.00" fill="#000000">srepkg.</text>
<text text-anchor="middle" x="969.37" y="-92.99" font-family="Helvetica,sans-Serif" font-size="10.00" fill="#000000">command_input_new</text>
</g>
<!-- srepkg_command_input_new&#45;&gt;srepkg_srepkg -->
<g id="edge3" class="edge">
<title>srepkg_command_input_new&#45;&gt;srepkg_srepkg</title><style>.edge>path:hover{stroke-width:8}</style>
<path fill="none" stroke="black" d="M950.49,-80.39C939.54,-69.02 925.68,-54.63 914.13,-42.64"/>
<polygon fill="#3db83d" stroke="black" points="916.39,-39.93 906.93,-35.16 911.35,-44.79 916.39,-39.93"/>
</g>
<!-- srepkg_dist_provider -->
<g id="node5" class="node">
<title>srepkg_dist_provider</title><style>.edge>path:hover{stroke-width:8}</style>
<ellipse fill="#49ac49" stroke="black" cx="221.37" cy="-100.99" rx="50.82" ry="21.43"/>
<text text-anchor="middle" x="221.37" y="-103.99" font-family="Helvetica,sans-Serif" font-size="10.00" fill="#000000">srepkg.</text>
<text text-anchor="middle" x="221.37" y="-92.99" font-family="Helvetica,sans-Serif" font-size="10.00" fill="#000000">dist_provider</text>
</g>
<!-- srepkg_entry_points_builder -->
<g id="node6" class="node">
<title>srepkg_entry_points_builder</title><style>.edge>path:hover{stroke-width:8}</style>
<ellipse fill="#40c040" stroke="black" cx="893.37" cy="-265.62" rx="73.58" ry="21.43"/>
<text text-anchor="middle" x="893.37" y="-268.62" font-family="Helvetica,sans-Serif" font-size="10.00" fill="#000000">srepkg.</text>
<text text-anchor="middle" x="893.37" y="-257.62" font-family="Helvetica,sans-Serif" font-size="10.00" fill="#000000">entry_points_builder</text>
</g>
<!-- srepkg_srepkg_builder -->
<g id="node20" class="node">
<title>srepkg_srepkg_builder</title><style>.edge>path:hover{stroke-width:8}</style>
<ellipse fill="#3db83d" stroke="black" cx="893.37" cy="-187.2" rx="56.64" ry="21.43"/>
<text text-anchor="middle" x="893.37" y="-190.2" font-family="Helvetica,sans-Serif" font-size="10.00" fill="#000000">srepkg.</text>
<text text-anchor="middle" x="893.37" y="-179.2" font-family="Helvetica,sans-Serif" font-size="10.00" fill="#000000">srepkg_builder</text>
</g>
<!-- srepkg_entry_points_builder&#45;&gt;srepkg_srepkg_builder -->
<g id="edge4" class="edge">
<title>srepkg_entry_points_builder&#45;&gt;srepkg_srepkg_builder</title><style>.edge>path:hover{stroke-width:8}</style>
<path fill="none" stroke="black" d="M893.37,-244.14C893.37,-236.28 893.37,-227.14 893.37,-218.55"/>
<polygon fill="#40c040" stroke="black" points="896.87,-218.47 893.37,-208.47 889.87,-218.47 896.87,-218.47"/>
</g>
<!-- srepkg_file_structure -->
<g id="node7" class="node">
<title>srepkg_file_structure</title><style>.edge>path:hover{stroke-width:8}</style>
<ellipse fill="#21bf21" stroke="black" cx="1331.37" cy="-265.62" rx="51.74" ry="21.43"/>
<text text-anchor="middle" x="1331.37" y="-268.62" font-family="Helvetica,sans-Serif" font-size="10.00" fill="#ffffff">srepkg.</text>
<text text-anchor="middle" x="1331.37" y="-257.62" font-family="Helvetica,sans-Serif" font-size="10.00" fill="#ffffff">file_structure</text>
</g>
<!-- srepkg_path_calculator -->
<g id="node13" class="node">
<title>srepkg_path_calculator</title><style>.edge>path:hover{stroke-width:8}</style>
<ellipse fill="#3db83d" stroke="black" cx="1183.37" cy="-187.2" rx="58.88" ry="21.43"/>
<text text-anchor="middle" x="1183.37" y="-190.2" font-family="Helvetica,sans-Serif" font-size="10.00" fill="#000000">srepkg.</text>
<text text-anchor="middle" x="1183.37" y="-179.2" font-family="Helvetica,sans-Serif" font-size="10.00" fill="#000000">path_calculator</text>
</g>
<!-- srepkg_file_structure&#45;&gt;srepkg_path_calculator -->
<g id="edge5" class="edge">
<title>srepkg_file_structure&#45;&gt;srepkg_path_calculator</title><style>.edge>path:hover{stroke-width:8}</style>
<path fill="none" stroke="black" d="M1300.34,-248.6C1278.49,-237.32 1248.99,-222.08 1225.08,-209.74"/>
<polygon fill="#21bf21" stroke="black" points="1226.38,-206.47 1215.89,-204.99 1223.17,-212.69 1226.38,-206.47"/>
</g>
<!-- srepkg_paths_class_builder_builder -->
<g id="node14" class="node">
<title>srepkg_paths_class_builder_builder</title><style>.edge>path:hover{stroke-width:8}</style>
<ellipse fill="#49ac49" stroke="black" cx="1480.37" cy="-100.99" rx="74.49" ry="28.98"/>
<text text-anchor="middle" x="1480.37" y="-109.49" font-family="Helvetica,sans-Serif" font-size="10.00" fill="#000000">srepkg.</text>
<text text-anchor="middle" x="1480.37" y="-98.49" font-family="Helvetica,sans-Serif" font-size="10.00" fill="#000000">paths_class_builder.</text>
<text text-anchor="middle" x="1480.37" y="-87.49" font-family="Helvetica,sans-Serif" font-size="10.00" fill="#000000">builder</text>
</g>
<!-- srepkg_file_structure&#45;&gt;srepkg_paths_class_builder_builder -->
<g id="edge6" class="edge">
<title>srepkg_file_structure&#45;&gt;srepkg_paths_class_builder_builder</title><style>.edge>path:hover{stroke-width:8}</style>
<path fill="none" stroke="black" d="M1377.87,-256.09C1406.26,-248.43 1440.91,-234.24 1461.37,-208.41 1476.45,-189.36 1481.14,-162.35 1482.09,-140.31"/>
<polygon fill="#21bf21" stroke="black" points="1485.59,-140.33 1482.28,-130.27 1478.59,-140.2 1485.59,-140.33"/>
</g>
<!-- srepkg_file_structure_fs_specs -->
<g id="node8" class="node">
<title>srepkg_file_structure_fs_specs</title><style>.edge>path:hover{stroke-width:8}</style>
<ellipse fill="#47c247" stroke="black" cx="1394.37" cy="-351.83" rx="53.98" ry="28.98"/>
<text text-anchor="middle" x="1394.37" y="-360.33" font-family="Helvetica,sans-Serif" font-size="10.00" fill="#000000">srepkg.</text>
<text text-anchor="middle" x="1394.37" y="-349.33" font-family="Helvetica,sans-Serif" font-size="10.00" fill="#000000">file_structure.</text>
<text text-anchor="middle" x="1394.37" y="-338.33" font-family="Helvetica,sans-Serif" font-size="10.00" fill="#000000">fs_specs</text>
</g>
<!-- srepkg_file_structure_fs_specs&#45;&gt;srepkg_file_structure -->
<g id="edge7" class="edge">
<title>srepkg_file_structure_fs_specs&#45;&gt;srepkg_file_structure</title><style>.edge>path:hover{stroke-width:8}</style>
<path fill="none" stroke="black" d="M1374.78,-324.65C1367.57,-315.01 1359.39,-304.07 1352.08,-294.31"/>
<polygon fill="#47c247" stroke="black" points="1354.73,-292.01 1345.94,-286.1 1349.13,-296.2 1354.73,-292.01"/>
</g>
<!-- srepkg_file_structure_fs_util -->
<g id="node9" class="node">
<title>srepkg_file_structure_fs_util</title><style>.edge>path:hover{stroke-width:8}</style>
<ellipse fill="#47c247" stroke="black" cx="1269.37" cy="-351.83" rx="53.98" ry="28.98"/>
<text text-anchor="middle" x="1269.37" y="-360.33" font-family="Helvetica,sans-Serif" font-size="10.00" fill="#000000">srepkg.</text>
<text text-anchor="middle" x="1269.37" y="-349.33" font-family="Helvetica,sans-Serif" font-size="10.00" fill="#000000">file_structure.</text>
<text text-anchor="middle" x="1269.37" y="-338.33" font-family="Helvetica,sans-Serif" font-size="10.00" fill="#000000">fs_util</text>
</g>
<!-- srepkg_file_structure_fs_util&#45;&gt;srepkg_file_structure -->
<g id="edge8" class="edge">
<title>srepkg_file_structure_fs_util&#45;&gt;srepkg_file_structure</title><style>.edge>path:hover{stroke-width:8}</style>
<path fill="none" stroke="black" d="M1288.64,-324.65C1295.74,-315.01 1303.79,-304.07 1310.98,-294.31"/>
<polygon fill="#47c247" stroke="black" points="1313.92,-296.23 1317.03,-286.1 1308.28,-292.08 1313.92,-296.23"/>
</g>
<!-- srepkg_orig_pkg_inspector -->
<g id="node10" class="node">
<title>srepkg_orig_pkg_inspector</title><style>.edge>path:hover{stroke-width:8}</style>
<ellipse fill="#3db83d" stroke="black" cx="1037.37" cy="-187.2" rx="69.09" ry="21.43"/>
<text text-anchor="middle" x="1037.37" y="-190.2" font-family="Helvetica,sans-Serif" font-size="10.00" fill="#000000">srepkg.</text>
<text text-anchor="middle" x="1037.37" y="-179.2" font-family="Helvetica,sans-Serif" font-size="10.00" fill="#000000">orig_pkg_inspector</text>
</g>
<!-- srepkg_repackager -->
<g id="node16" class="node">
<title>srepkg_repackager</title><style>.edge>path:hover{stroke-width:8}</style>
<ellipse fill="#35a135" stroke="black" cx="1110.37" cy="-100.99" rx="45.92" ry="21.43"/>
<text text-anchor="middle" x="1110.37" y="-103.99" font-family="Helvetica,sans-Serif" font-size="10.00" fill="#ffffff">srepkg.</text>
<text text-anchor="middle" x="1110.37" y="-92.99" font-family="Helvetica,sans-Serif" font-size="10.00" fill="#ffffff">repackager</text>
</g>
<!-- srepkg_orig_pkg_inspector&#45;&gt;srepkg_repackager -->
<g id="edge9" class="edge">
<title>srepkg_orig_pkg_inspector&#45;&gt;srepkg_repackager</title><style>.edge>path:hover{stroke-width:8}</style>
<path fill="none" stroke="black" d="M1054.67,-166.24C1064.42,-154.99 1076.73,-140.79 1087.3,-128.6"/>
<polygon fill="#3db83d" stroke="black" points="1090.04,-130.78 1093.94,-120.94 1084.75,-126.2 1090.04,-130.78"/>
</g>
<!-- srepkg_orig_src_preparer -->
<g id="node11" class="node">
<title>srepkg_orig_src_preparer</title><style>.edge>path:hover{stroke-width:8}</style>
<ellipse fill="#46a446" stroke="black" cx="527.37" cy="-100.99" rx="65.11" ry="21.43"/>
<text text-anchor="middle" x="527.37" y="-103.99" font-family="Helvetica,sans-Serif" font-size="10.00" fill="#ffffff">srepkg.</text>
<text text-anchor="middle" x="527.37" y="-92.99" font-family="Helvetica,sans-Serif" font-size="10.00" fill="#ffffff">orig_src_preparer</text>
</g>
<!-- srepkg_orig_src_preparer_interfaces -->
<g id="node12" class="node">
<title>srepkg_orig_src_preparer_interfaces</title><style>.edge>path:hover{stroke-width:8}</style>
<ellipse fill="#22e722" stroke="black" cx="231.37" cy="-187.2" rx="98.99" ry="21.43"/>
<text text-anchor="middle" x="231.37" y="-190.2" font-family="Helvetica,sans-Serif" font-size="10.00" fill="#000000">srepkg.</text>
<text text-anchor="middle" x="231.37" y="-179.2" font-family="Helvetica,sans-Serif" font-size="10.00" fill="#000000">orig_src_preparer_interfaces</text>
</g>
<!-- srepkg_orig_src_preparer_interfaces&#45;&gt;srepkg_construction_dir_new -->
<g id="edge10" class="edge">
<title>srepkg_orig_src_preparer_interfaces&#45;&gt;srepkg_construction_dir_new</title><style>.edge>path:hover{stroke-width:8}</style>
<path fill="none" stroke="black" d="M262.57,-166.88C282.19,-154.73 307.67,-138.95 328.59,-126"/>
<polygon fill="#22e722" stroke="black" points="330.59,-128.88 337.25,-120.64 326.9,-122.93 330.59,-128.88"/>
</g>
<!-- srepkg_orig_src_preparer_interfaces&#45;&gt;srepkg_dist_provider -->
<g id="edge11" class="edge">
<title>srepkg_orig_src_preparer_interfaces&#45;&gt;srepkg_dist_provider</title><style>.edge>path:hover{stroke-width:8}</style>
<path fill="none" stroke="black" d="M228.95,-165.81C227.76,-155.78 226.29,-143.48 224.97,-132.37"/>
<polygon fill="#22e722" stroke="black" points="228.42,-131.7 223.77,-122.19 221.47,-132.53 228.42,-131.7"/>
</g>
<!-- srepkg_orig_src_preparer_interfaces&#45;&gt;srepkg_orig_src_preparer -->
<g id="edge12" class="edge">
<title>srepkg_orig_src_preparer_interfaces&#45;&gt;srepkg_orig_src_preparer</title><style>.edge>path:hover{stroke-width:8}</style>
<path fill="none" stroke="black" d="M297.98,-171.42C342.36,-161.06 401.79,-146.21 453.37,-129.98 461.47,-127.43 469.97,-124.49 478.21,-121.48"/>
<polygon fill="#22e722" stroke="black" points="479.57,-124.71 487.72,-117.94 477.12,-118.15 479.57,-124.71"/>
</g>
<!-- srepkg_remote_pkg_retriever -->
<g id="node15" class="node">
<title>srepkg_remote_pkg_retriever</title><style>.edge>path:hover{stroke-width:8}</style>
<ellipse fill="#49ac49" stroke="black" cx="76.37" cy="-100.99" rx="76.24" ry="21.43"/>
<text text-anchor="middle" x="76.37" y="-103.99" font-family="Helvetica,sans-Serif" font-size="10.00" fill="#000000">srepkg.</text>
<text text-anchor="middle" x="76.37" y="-92.99" font-family="Helvetica,sans-Serif" font-size="10.00" fill="#000000">remote_pkg_retriever</text>
</g>
<!-- srepkg_orig_src_preparer_interfaces&#45;&gt;srepkg_remote_pkg_retriever -->
<g id="edge13" class="edge">
<title>srepkg_orig_src_preparer_interfaces&#45;&gt;srepkg_remote_pkg_retriever</title><style>.edge>path:hover{stroke-width:8}</style>
<path fill="none" stroke="black" d="M196.58,-167.3C173.55,-154.79 143.2,-138.3 118.76,-125.02"/>
<polygon fill="#22e722" stroke="black" points="120.17,-121.8 109.71,-120.1 116.82,-127.95 120.17,-121.8"/>
</g>
<!-- srepkg_path_calculator&#45;&gt;srepkg_repackager -->
<g id="edge14" class="edge">
<title>srepkg_path_calculator&#45;&gt;srepkg_repackager</title><style>.edge>path:hover{stroke-width:8}</style>
<path fill="none" stroke="black" d="M1166.44,-166.67C1156.62,-155.35 1144.13,-140.94 1133.43,-128.6"/>
<polygon fill="#3db83d" stroke="black" points="1135.9,-126.1 1126.7,-120.84 1130.61,-130.68 1135.9,-126.1"/>
</g>
<!-- srepkg_repackager&#45;&gt;srepkg_srepkg -->
<g id="edge15" class="edge">
<title>srepkg_repackager&#45;&gt;srepkg_srepkg</title><style>.edge>path:hover{stroke-width:8}</style>
<path fill="none" stroke="black" d="M1081.66,-84.3C1073.3,-80.03 1064.08,-75.6 1055.37,-72 1016.52,-55.96 970.93,-41.56 937.69,-31.84"/>
<polygon fill="#35a135" stroke="black" points="938.37,-28.39 927.79,-28.97 936.42,-35.11 938.37,-28.39"/>
</g>
<!-- srepkg_repackager_new -->
<g id="node17" class="node">
<title>srepkg_repackager_new</title><style>.edge>path:hover{stroke-width:8}</style>
<ellipse fill="#3db83d" stroke="black" cx="672.37" cy="-100.99" rx="62.45" ry="21.43"/>
<text text-anchor="middle" x="672.37" y="-103.99" font-family="Helvetica,sans-Serif" font-size="10.00" fill="#000000">srepkg.</text>
<text text-anchor="middle" x="672.37" y="-92.99" font-family="Helvetica,sans-Serif" font-size="10.00" fill="#000000">repackager_new</text>
</g>
<!-- srepkg_repackager_new&#45;&gt;srepkg_srepkg -->
<g id="edge16" class="edge">
<title>srepkg_repackager_new&#45;&gt;srepkg_srepkg</title><style>.edge>path:hover{stroke-width:8}</style>
<path fill="none" stroke="black" d="M711.34,-84.37C721.72,-80.28 732.95,-75.92 743.37,-72 778.6,-58.75 818.82,-44.4 848.43,-33.97"/>
<polygon fill="#3db83d" stroke="black" points="849.77,-37.21 858.05,-30.59 847.45,-30.61 849.77,-37.21"/>
</g>
<!-- srepkg_repackager_new_interfaces -->
<g id="node18" class="node">
<title>srepkg_repackager_new_interfaces</title><style>.edge>path:hover{stroke-width:8}</style>
<ellipse fill="#19e619" stroke="black" cx="588.37" cy="-187.2" rx="96.33" ry="21.43"/>
<text text-anchor="middle" x="588.37" y="-190.2" font-family="Helvetica,sans-Serif" font-size="10.00" fill="#000000">srepkg.</text>
<text text-anchor="middle" x="588.37" y="-179.2" font-family="Helvetica,sans-Serif" font-size="10.00" fill="#000000">repackager_new_interfaces</text>
</g>
<!-- srepkg_repackager_new_interfaces&#45;&gt;srepkg_command_input_new -->
<g id="edge17" class="edge">
<title>srepkg_repackager_new_interfaces&#45;&gt;srepkg_command_input_new</title><style>.edge>path:hover{stroke-width:8}</style>
<path fill="none" stroke="black" d="M665.05,-174.32C724.94,-164.38 810.02,-148.83 883.37,-129.98 893.18,-127.46 903.5,-124.44 913.46,-121.32"/>
<polygon fill="#19e619" stroke="black" points="914.81,-124.56 923.27,-118.18 912.67,-117.89 914.81,-124.56"/>
</g>
<!-- srepkg_repackager_new_interfaces&#45;&gt;srepkg_construction_dir_new -->
<g id="edge18" class="edge">
<title>srepkg_repackager_new_interfaces&#45;&gt;srepkg_construction_dir_new</title><style>.edge>path:hover{stroke-width:8}</style>
<path fill="none" stroke="black" d="M542.04,-168.54C506.6,-155.04 457.69,-136.41 420.64,-122.29"/>
<polygon fill="#19e619" stroke="black" points="421.6,-118.91 411,-118.62 419.1,-125.45 421.6,-118.91"/>
</g>
<!-- srepkg_repackager_new_interfaces&#45;&gt;srepkg_orig_src_preparer -->
<g id="edge19" class="edge">
<title>srepkg_repackager_new_interfaces&#45;&gt;srepkg_orig_src_preparer</title><style>.edge>path:hover{stroke-width:8}</style>
<path fill="none" stroke="black" d="M573.6,-165.81C565.83,-155.08 556.17,-141.76 547.7,-130.06"/>
<polygon fill="#19e619" stroke="black" points="550.49,-127.94 541.79,-121.9 544.82,-132.05 550.49,-127.94"/>
</g>
<!-- srepkg_repackager_new_interfaces&#45;&gt;srepkg_repackager_new -->
<g id="edge20" class="edge">
<title>srepkg_repackager_new_interfaces&#45;&gt;srepkg_repackager_new</title><style>.edge>path:hover{stroke-width:8}</style>
<path fill="none" stroke="black" d="M608.27,-166.24C619.52,-154.96 633.73,-140.72 645.91,-128.52"/>
<polygon fill="#19e619" stroke="black" points="648.6,-130.78 653.18,-121.22 643.64,-125.83 648.6,-130.78"/>
</g>
<!-- srepkg_srepkg_builder&#45;&gt;srepkg_repackager -->
<g id="edge21" class="edge">
<title>srepkg_srepkg_builder&#45;&gt;srepkg_repackager</title><style>.edge>path:hover{stroke-width:8}</style>
<path fill="none" stroke="black" d="M935.92,-173.19C968.95,-162.68 1015.65,-146.89 1055.37,-129.98 1060.93,-127.62 1066.7,-124.94 1072.33,-122.19"/>
<polygon fill="#3db83d" stroke="black" points="1074.22,-125.16 1081.61,-117.56 1071.09,-118.9 1074.22,-125.16"/>
</g>
<!-- srepkg_srepkg_construction_specs -->
<g id="node21" class="node">
<title>srepkg_srepkg_construction_specs</title><style>.edge>path:hover{stroke-width:8}</style>
<ellipse fill="#47c247" stroke="black" cx="1356.37" cy="-187.2" rx="96.33" ry="21.43"/>
<text text-anchor="middle" x="1356.37" y="-190.2" font-family="Helvetica,sans-Serif" font-size="10.00" fill="#000000">srepkg.</text>
<text text-anchor="middle" x="1356.37" y="-179.2" font-family="Helvetica,sans-Serif" font-size="10.00" fill="#000000">srepkg_construction_specs</text>
</g>
<!-- srepkg_srepkg_construction_specs&#45;&gt;srepkg_repackager -->
<g id="edge22" class="edge">
<title>srepkg_srepkg_construction_specs&#45;&gt;srepkg_repackager</title><style>.edge>path:hover{stroke-width:8}</style>
<path fill="none" stroke="black" d="M1306.29,-169.05C1262.24,-153.98 1198.66,-132.21 1155.99,-117.61"/>
<polygon fill="#47c247" stroke="black" points="1157.01,-114.26 1146.42,-114.33 1154.75,-120.88 1157.01,-114.26"/>
</g>
<!-- wheel_inspect -->
<g id="node22" class="node">
<title>wheel_inspect</title><style>.edge>path:hover{stroke-width:8}</style>
<ellipse fill="#5353b6" stroke="black" cx="1037.37" cy="-351.83" rx="46.51" ry="18"/>
<text text-anchor="middle" x="1037.37" y="-349.33" font-family="Helvetica,sans-Serif" font-size="10.00" fill="#ffffff">wheel_inspect</text>
</g>
<!-- wheel_inspect&#45;&gt;srepkg_orig_pkg_inspector -->
<g id="edge23" class="edge">
<title>wheel_inspect&#45;&gt;srepkg_orig_pkg_inspector</title><style>.edge>path:hover{stroke-width:8}</style>
<path fill="none" stroke="black" d="M1037.37,-333.73C1037.37,-306.5 1037.37,-252.9 1037.37,-218.9"/>
<polygon fill="#5353b6" stroke="black" points="1040.87,-218.61 1037.37,-208.61 1033.87,-218.61 1040.87,-218.61"/>
</g>
</g>
</svg>
