<?xml version="1.0" encoding="UTF-8" standalone="no"?>
<!DOCTYPE svg PUBLIC "-//W3C//DTD SVG 1.1//EN"
 "http://www.w3.org/Graphics/SVG/1.1/DTD/svg11.dtd">
<!-- Generated by graphviz version 3.0.0 (20220226.1711)
 -->
<!-- Title: G Pages: 1 -->
<svg width="1631pt" height="467pt"
 viewBox="0.00 0.00 1631.33 467.24" xmlns="http://www.w3.org/2000/svg" xmlns:xlink="http://www.w3.org/1999/xlink">
<g id="graph0" class="graph" transform="scale(1 1) rotate(0) translate(4 463.24)">
<title>G</title><style>.edge>path:hover{stroke-width:8}</style>
<polygon fill="white" stroke="transparent" points="-4,4 -4,-463.24 1627.33,-463.24 1627.33,4 -4,4"/>
<!-- requests -->
<g id="node1" class="node">
<title>requests</title><style>.edge>path:hover{stroke-width:8}</style>
<ellipse fill="#c04040" stroke="black" cx="1591.54" cy="-344.05" rx="31.58" ry="18"/>
<text text-anchor="middle" x="1591.54" y="-341.55" font-family="Helvetica,sans-Serif" font-size="10.00" fill="#ffffff">requests</text>
</g>
<!-- srepkg_service_builder -->
<g id="node19" class="node">
<title>srepkg_service_builder</title><style>.edge>path:hover{stroke-width:8}</style>
<ellipse fill="#309130" stroke="black" cx="1180.54" cy="-179.42" rx="57.97" ry="21.43"/>
<text text-anchor="middle" x="1180.54" y="-182.42" font-family="Helvetica,sans-Serif" font-size="10.00" fill="#ffffff">srepkg.</text>
<text text-anchor="middle" x="1180.54" y="-171.42" font-family="Helvetica,sans-Serif" font-size="10.00" fill="#ffffff">service_builder</text>
</g>
<!-- requests&#45;&gt;srepkg_service_builder -->
<g id="edge1" class="edge">
<title>requests&#45;&gt;srepkg_service_builder</title><style>.edge>path:hover{stroke-width:8}</style>
<path fill="none" stroke="black" d="M1593.61,-326.06C1595.27,-303.96 1594.42,-265.68 1572.54,-244.41 1527.53,-200.66 1348.28,-186.77 1248.49,-182.4"/>
<polygon fill="#c04040" stroke="black" points="1248.34,-178.89 1238.21,-181.97 1248.05,-185.88 1248.34,-178.89"/>
</g>
<!-- srepkg_command_input -->
<g id="node2" class="node">
<title>srepkg_command_input</title><style>.edge>path:hover{stroke-width:8}</style>
<ellipse fill="#3db83d" stroke="black" cx="892.54" cy="-21.21" rx="60.62" ry="21.43"/>
<text text-anchor="middle" x="892.54" y="-24.21" font-family="Helvetica,sans-Serif" font-size="10.00" fill="#000000">srepkg.</text>
<text text-anchor="middle" x="892.54" y="-13.21" font-family="Helvetica,sans-Serif" font-size="10.00" fill="#000000">command_input</text>
</g>
<!-- srepkg_srepkg -->
<g id="node21" class="node">
<title>srepkg_srepkg</title><style>.edge>path:hover{stroke-width:8}</style>
<ellipse fill="#339933" stroke="black" cx="892.54" cy="-96.43" rx="45.83" ry="18"/>
<text text-anchor="middle" x="892.54" y="-93.93" font-family="Helvetica,sans-Serif" font-size="10.00" fill="#ffffff">srepkg.srepkg</text>
</g>
<!-- srepkg_command_input_new -->
<g id="node3" class="node">
<title>srepkg_command_input_new</title><style>.edge>path:hover{stroke-width:8}</style>
<ellipse fill="#3db83d" stroke="black" cx="971.54" cy="-179.42" rx="77.15" ry="21.43"/>
<text text-anchor="middle" x="971.54" y="-182.42" font-family="Helvetica,sans-Serif" font-size="10.00" fill="#000000">srepkg.</text>
<text text-anchor="middle" x="971.54" y="-171.42" font-family="Helvetica,sans-Serif" font-size="10.00" fill="#000000">command_input_new</text>
</g>
<!-- srepkg_command_input_new&#45;&gt;srepkg_srepkg -->
<g id="edge3" class="edge">
<title>srepkg_command_input_new&#45;&gt;srepkg_srepkg</title><style>.edge>path:hover{stroke-width:8}</style>
<path fill="none" stroke="black" d="M952.42,-158.81C941.33,-147.44 927.29,-133.05 915.59,-121.06"/>
<polygon fill="#3db83d" stroke="black" points="917.79,-118.3 908.3,-113.59 912.78,-123.19 917.79,-118.3"/>
</g>
<!-- srepkg_construction_dir_new -->
<g id="node4" class="node">
<title>srepkg_construction_dir_new</title><style>.edge>path:hover{stroke-width:8}</style>
<ellipse fill="#3ab03a" stroke="black" cx="1048.54" cy="-265.62" rx="77.15" ry="21.43"/>
<text text-anchor="middle" x="1048.54" y="-268.62" font-family="Helvetica,sans-Serif" font-size="10.00" fill="#ffffff">srepkg.</text>
<text text-anchor="middle" x="1048.54" y="-257.62" font-family="Helvetica,sans-Serif" font-size="10.00" fill="#ffffff">construction_dir_new</text>
</g>
<!-- srepkg_construction_dir_new&#45;&gt;srepkg_service_builder -->
<g id="edge4" class="edge">
<title>srepkg_construction_dir_new&#45;&gt;srepkg_service_builder</title><style>.edge>path:hover{stroke-width:8}</style>
<path fill="none" stroke="black" d="M1077.83,-245.93C1097.37,-233.47 1123.21,-216.99 1144.07,-203.68"/>
<polygon fill="#3ab03a" stroke="black" points="1146.13,-206.52 1152.68,-198.19 1142.37,-200.62 1146.13,-206.52"/>
</g>
<!-- srepkg_dist_provider -->
<g id="node5" class="node">
<title>srepkg_dist_provider</title><style>.edge>path:hover{stroke-width:8}</style>
<ellipse fill="#3ab03a" stroke="black" cx="1342.54" cy="-265.62" rx="50.82" ry="21.43"/>
<text text-anchor="middle" x="1342.54" y="-268.62" font-family="Helvetica,sans-Serif" font-size="10.00" fill="#ffffff">srepkg.</text>
<text text-anchor="middle" x="1342.54" y="-257.62" font-family="Helvetica,sans-Serif" font-size="10.00" fill="#ffffff">dist_provider</text>
</g>
<!-- srepkg_dist_provider&#45;&gt;srepkg_service_builder -->
<g id="edge5" class="edge">
<title>srepkg_dist_provider&#45;&gt;srepkg_service_builder</title><style>.edge>path:hover{stroke-width:8}</style>
<path fill="none" stroke="black" d="M1311.69,-248.59C1286.2,-235.34 1249.8,-216.42 1221.8,-201.87"/>
<polygon fill="#3ab03a" stroke="black" points="1223.15,-198.62 1212.66,-197.11 1219.92,-204.83 1223.15,-198.62"/>
</g>
<!-- srepkg_entry_points_builder -->
<g id="node6" class="node">
<title>srepkg_entry_points_builder</title><style>.edge>path:hover{stroke-width:8}</style>
<ellipse fill="#40c040" stroke="black" cx="73.54" cy="-344.05" rx="73.58" ry="21.43"/>
<text text-anchor="middle" x="73.54" y="-347.05" font-family="Helvetica,sans-Serif" font-size="10.00" fill="#000000">srepkg.</text>
<text text-anchor="middle" x="73.54" y="-336.05" font-family="Helvetica,sans-Serif" font-size="10.00" fill="#000000">entry_points_builder</text>
</g>
<!-- srepkg_srepkg_builder -->
<g id="node22" class="node">
<title>srepkg_srepkg_builder</title><style>.edge>path:hover{stroke-width:8}</style>
<ellipse fill="#3db83d" stroke="black" cx="73.54" cy="-265.62" rx="56.64" ry="21.43"/>
<text text-anchor="middle" x="73.54" y="-268.62" font-family="Helvetica,sans-Serif" font-size="10.00" fill="#000000">srepkg.</text>
<text text-anchor="middle" x="73.54" y="-257.62" font-family="Helvetica,sans-Serif" font-size="10.00" fill="#000000">srepkg_builder</text>
</g>
<!-- srepkg_entry_points_builder&#45;&gt;srepkg_srepkg_builder -->
<g id="edge6" class="edge">
<title>srepkg_entry_points_builder&#45;&gt;srepkg_srepkg_builder</title><style>.edge>path:hover{stroke-width:8}</style>
<path fill="none" stroke="black" d="M73.54,-322.57C73.54,-314.71 73.54,-305.56 73.54,-296.97"/>
<polygon fill="#40c040" stroke="black" points="77.04,-296.89 73.54,-286.89 70.04,-296.89 77.04,-296.89"/>
</g>
<!-- srepkg_file_structure -->
<g id="node7" class="node">
<title>srepkg_file_structure</title><style>.edge>path:hover{stroke-width:8}</style>
<ellipse fill="#21bf21" stroke="black" cx="511.54" cy="-344.05" rx="51.74" ry="21.43"/>
<text text-anchor="middle" x="511.54" y="-347.05" font-family="Helvetica,sans-Serif" font-size="10.00" fill="#ffffff">srepkg.</text>
<text text-anchor="middle" x="511.54" y="-336.05" font-family="Helvetica,sans-Serif" font-size="10.00" fill="#ffffff">file_structure</text>
</g>
<!-- srepkg_path_calculator -->
<g id="node13" class="node">
<title>srepkg_path_calculator</title><style>.edge>path:hover{stroke-width:8}</style>
<ellipse fill="#3db83d" stroke="black" cx="363.54" cy="-265.62" rx="58.88" ry="21.43"/>
<text text-anchor="middle" x="363.54" y="-268.62" font-family="Helvetica,sans-Serif" font-size="10.00" fill="#000000">srepkg.</text>
<text text-anchor="middle" x="363.54" y="-257.62" font-family="Helvetica,sans-Serif" font-size="10.00" fill="#000000">path_calculator</text>
</g>
<!-- srepkg_file_structure&#45;&gt;srepkg_path_calculator -->
<g id="edge7" class="edge">
<title>srepkg_file_structure&#45;&gt;srepkg_path_calculator</title><style>.edge>path:hover{stroke-width:8}</style>
<path fill="none" stroke="black" d="M480.51,-327.03C458.66,-315.74 429.16,-300.51 405.26,-288.16"/>
<polygon fill="#21bf21" stroke="black" points="406.55,-284.9 396.06,-283.42 403.34,-291.11 406.55,-284.9"/>
</g>
<!-- srepkg_paths_class_builder_builder -->
<g id="node14" class="node">
<title>srepkg_paths_class_builder_builder</title><style>.edge>path:hover{stroke-width:8}</style>
<ellipse fill="#49ac49" stroke="black" cx="660.54" cy="-179.42" rx="74.49" ry="28.98"/>
<text text-anchor="middle" x="660.54" y="-187.92" font-family="Helvetica,sans-Serif" font-size="10.00" fill="#000000">srepkg.</text>
<text text-anchor="middle" x="660.54" y="-176.92" font-family="Helvetica,sans-Serif" font-size="10.00" fill="#000000">paths_class_builder.</text>
<text text-anchor="middle" x="660.54" y="-165.92" font-family="Helvetica,sans-Serif" font-size="10.00" fill="#000000">builder</text>
</g>
<!-- srepkg_file_structure&#45;&gt;srepkg_paths_class_builder_builder -->
<g id="edge8" class="edge">
<title>srepkg_file_structure&#45;&gt;srepkg_paths_class_builder_builder</title><style>.edge>path:hover{stroke-width:8}</style>
<path fill="none" stroke="black" d="M558.04,-334.52C586.43,-326.86 621.09,-312.67 641.54,-286.84 656.62,-267.78 661.31,-240.78 662.26,-218.74"/>
<polygon fill="#21bf21" stroke="black" points="665.76,-218.76 662.45,-208.69 658.76,-218.62 665.76,-218.76"/>
</g>
<!-- srepkg_file_structure_fs_specs -->
<g id="node8" class="node">
<title>srepkg_file_structure_fs_specs</title><style>.edge>path:hover{stroke-width:8}</style>
<ellipse fill="#47c247" stroke="black" cx="574.54" cy="-430.25" rx="53.98" ry="28.98"/>
<text text-anchor="middle" x="574.54" y="-438.75" font-family="Helvetica,sans-Serif" font-size="10.00" fill="#000000">srepkg.</text>
<text text-anchor="middle" x="574.54" y="-427.75" font-family="Helvetica,sans-Serif" font-size="10.00" fill="#000000">file_structure.</text>
<text text-anchor="middle" x="574.54" y="-416.75" font-family="Helvetica,sans-Serif" font-size="10.00" fill="#000000">fs_specs</text>
</g>
<!-- srepkg_file_structure_fs_specs&#45;&gt;srepkg_file_structure -->
<g id="edge9" class="edge">
<title>srepkg_file_structure_fs_specs&#45;&gt;srepkg_file_structure</title><style>.edge>path:hover{stroke-width:8}</style>
<path fill="none" stroke="black" d="M554.95,-403.07C547.74,-393.44 539.56,-382.5 532.26,-372.74"/>
<polygon fill="#47c247" stroke="black" points="534.9,-370.43 526.11,-364.52 529.3,-374.63 534.9,-370.43"/>
</g>
<!-- srepkg_file_structure_fs_util -->
<g id="node9" class="node">
<title>srepkg_file_structure_fs_util</title><style>.edge>path:hover{stroke-width:8}</style>
<ellipse fill="#47c247" stroke="black" cx="449.54" cy="-430.25" rx="53.98" ry="28.98"/>
<text text-anchor="middle" x="449.54" y="-438.75" font-family="Helvetica,sans-Serif" font-size="10.00" fill="#000000">srepkg.</text>
<text text-anchor="middle" x="449.54" y="-427.75" font-family="Helvetica,sans-Serif" font-size="10.00" fill="#000000">file_structure.</text>
<text text-anchor="middle" x="449.54" y="-416.75" font-family="Helvetica,sans-Serif" font-size="10.00" fill="#000000">fs_util</text>
</g>
<!-- srepkg_file_structure_fs_util&#45;&gt;srepkg_file_structure -->
<g id="edge10" class="edge">
<title>srepkg_file_structure_fs_util&#45;&gt;srepkg_file_structure</title><style>.edge>path:hover{stroke-width:8}</style>
<path fill="none" stroke="black" d="M468.82,-403.07C475.91,-393.44 483.96,-382.5 491.15,-372.74"/>
<polygon fill="#47c247" stroke="black" points="494.09,-374.65 497.2,-364.52 488.45,-370.5 494.09,-374.65"/>
</g>
<!-- srepkg_orig_pkg_inspector -->
<g id="node10" class="node">
<title>srepkg_orig_pkg_inspector</title><style>.edge>path:hover{stroke-width:8}</style>
<ellipse fill="#40c040" stroke="black" cx="217.54" cy="-265.62" rx="69.09" ry="21.43"/>
<text text-anchor="middle" x="217.54" y="-268.62" font-family="Helvetica,sans-Serif" font-size="10.00" fill="#000000">srepkg.</text>
<text text-anchor="middle" x="217.54" y="-257.62" font-family="Helvetica,sans-Serif" font-size="10.00" fill="#000000">orig_pkg_inspector</text>
</g>
<!-- srepkg_repackager -->
<g id="node16" class="node">
<title>srepkg_repackager</title><style>.edge>path:hover{stroke-width:8}</style>
<ellipse fill="#35a135" stroke="black" cx="363.54" cy="-179.42" rx="45.92" ry="21.43"/>
<text text-anchor="middle" x="363.54" y="-182.42" font-family="Helvetica,sans-Serif" font-size="10.00" fill="#ffffff">srepkg.</text>
<text text-anchor="middle" x="363.54" y="-171.42" font-family="Helvetica,sans-Serif" font-size="10.00" fill="#ffffff">repackager</text>
</g>
<!-- srepkg_orig_pkg_inspector&#45;&gt;srepkg_repackager -->
<g id="edge11" class="edge">
<title>srepkg_orig_pkg_inspector&#45;&gt;srepkg_repackager</title><style>.edge>path:hover{stroke-width:8}</style>
<path fill="none" stroke="black" d="M248.86,-246.56C271.74,-233.36 302.84,-215.42 326.88,-201.56"/>
<polygon fill="#40c040" stroke="black" points="328.81,-204.49 335.72,-196.46 325.31,-198.43 328.81,-204.49"/>
</g>
<!-- srepkg_orig_src_preparer -->
<g id="node11" class="node">
<title>srepkg_orig_src_preparer</title><style>.edge>path:hover{stroke-width:8}</style>
<ellipse fill="#3ab03a" stroke="black" cx="1208.54" cy="-265.62" rx="65.11" ry="21.43"/>
<text text-anchor="middle" x="1208.54" y="-268.62" font-family="Helvetica,sans-Serif" font-size="10.00" fill="#ffffff">srepkg.</text>
<text text-anchor="middle" x="1208.54" y="-257.62" font-family="Helvetica,sans-Serif" font-size="10.00" fill="#ffffff">orig_src_preparer</text>
</g>
<!-- srepkg_orig_src_preparer&#45;&gt;srepkg_service_builder -->
<g id="edge12" class="edge">
<title>srepkg_orig_src_preparer&#45;&gt;srepkg_service_builder</title><style>.edge>path:hover{stroke-width:8}</style>
<path fill="none" stroke="black" d="M1201.76,-244.24C1198.36,-234 1194.17,-221.4 1190.41,-210.11"/>
<polygon fill="#3ab03a" stroke="black" points="1193.73,-209 1187.25,-200.61 1187.09,-211.21 1193.73,-209"/>
</g>
<!-- srepkg_orig_src_preparer_interfaces -->
<g id="node12" class="node">
<title>srepkg_orig_src_preparer_interfaces</title><style>.edge>path:hover{stroke-width:8}</style>
<ellipse fill="#2fdb2f" stroke="black" cx="1377.54" cy="-344.05" rx="98.99" ry="21.43"/>
<text text-anchor="middle" x="1377.54" y="-347.05" font-family="Helvetica,sans-Serif" font-size="10.00" fill="#000000">srepkg.</text>
<text text-anchor="middle" x="1377.54" y="-336.05" font-family="Helvetica,sans-Serif" font-size="10.00" fill="#000000">orig_src_preparer_interfaces</text>
</g>
<!-- srepkg_orig_src_preparer_interfaces&#45;&gt;srepkg_dist_provider -->
<g id="edge13" class="edge">
<title>srepkg_orig_src_preparer_interfaces&#45;&gt;srepkg_dist_provider</title><style>.edge>path:hover{stroke-width:8}</style>
<path fill="none" stroke="black" d="M1368.16,-322.57C1364.41,-314.39 1360.03,-304.81 1355.95,-295.92"/>
<polygon fill="#2fdb2f" stroke="black" points="1359.05,-294.27 1351.7,-286.63 1352.68,-297.18 1359.05,-294.27"/>
</g>
<!-- srepkg_orig_src_preparer_interfaces&#45;&gt;srepkg_orig_src_preparer -->
<g id="edge14" class="edge">
<title>srepkg_orig_src_preparer_interfaces&#45;&gt;srepkg_orig_src_preparer</title><style>.edge>path:hover{stroke-width:8}</style>
<path fill="none" stroke="black" d="M1336.63,-324.55C1311.83,-313.33 1280.14,-299 1254.49,-287.4"/>
<polygon fill="#2fdb2f" stroke="black" points="1255.88,-284.19 1245.33,-283.26 1253,-290.57 1255.88,-284.19"/>
</g>
<!-- srepkg_remote_pkg_retriever -->
<g id="node15" class="node">
<title>srepkg_remote_pkg_retriever</title><style>.edge>path:hover{stroke-width:8}</style>
<ellipse fill="#3db83d" stroke="black" cx="1487.54" cy="-265.62" rx="76.24" ry="21.43"/>
<text text-anchor="middle" x="1487.54" y="-268.62" font-family="Helvetica,sans-Serif" font-size="10.00" fill="#000000">srepkg.</text>
<text text-anchor="middle" x="1487.54" y="-257.62" font-family="Helvetica,sans-Serif" font-size="10.00" fill="#000000">remote_pkg_retriever</text>
</g>
<!-- srepkg_orig_src_preparer_interfaces&#45;&gt;srepkg_remote_pkg_retriever -->
<g id="edge15" class="edge">
<title>srepkg_orig_src_preparer_interfaces&#45;&gt;srepkg_remote_pkg_retriever</title><style>.edge>path:hover{stroke-width:8}</style>
<path fill="none" stroke="black" d="M1405.58,-323.57C1419.63,-313.81 1436.79,-301.88 1451.78,-291.47"/>
<polygon fill="#2fdb2f" stroke="black" points="1454.09,-294.12 1460.31,-285.54 1450.1,-288.37 1454.09,-294.12"/>
</g>
<!-- srepkg_path_calculator&#45;&gt;srepkg_repackager -->
<g id="edge16" class="edge">
<title>srepkg_path_calculator&#45;&gt;srepkg_repackager</title><style>.edge>path:hover{stroke-width:8}</style>
<path fill="none" stroke="black" d="M363.54,-244.24C363.54,-234.28 363.54,-222.09 363.54,-211.04"/>
<polygon fill="#3db83d" stroke="black" points="367.04,-210.91 363.54,-200.91 360.04,-210.91 367.04,-210.91"/>
</g>
<!-- srepkg_remote_pkg_retriever&#45;&gt;srepkg_service_builder -->
<g id="edge17" class="edge">
<title>srepkg_remote_pkg_retriever&#45;&gt;srepkg_service_builder</title><style>.edge>path:hover{stroke-width:8}</style>
<path fill="none" stroke="black" d="M1434.76,-250.15C1379.13,-234.89 1291.89,-210.96 1235.46,-195.48"/>
<polygon fill="#3db83d" stroke="black" points="1236.21,-192.06 1225.64,-192.79 1234.36,-198.81 1236.21,-192.06"/>
</g>
<!-- srepkg_repackager&#45;&gt;srepkg_srepkg -->
<g id="edge18" class="edge">
<title>srepkg_repackager&#45;&gt;srepkg_srepkg</title><style>.edge>path:hover{stroke-width:8}</style>
<path fill="none" stroke="black" d="M406.83,-171.79C503.43,-157 736.25,-121.35 840.52,-105.39"/>
<polygon fill="#35a135" stroke="black" points="841.14,-108.84 850.5,-103.86 840.08,-101.92 841.14,-108.84"/>
</g>
<!-- srepkg_repackager_new -->
<g id="node17" class="node">
<title>srepkg_repackager_new</title><style>.edge>path:hover{stroke-width:8}</style>
<ellipse fill="#3db83d" stroke="black" cx="814.54" cy="-179.42" rx="62.45" ry="21.43"/>
<text text-anchor="middle" x="814.54" y="-182.42" font-family="Helvetica,sans-Serif" font-size="10.00" fill="#000000">srepkg.</text>
<text text-anchor="middle" x="814.54" y="-171.42" font-family="Helvetica,sans-Serif" font-size="10.00" fill="#000000">repackager_new</text>
</g>
<!-- srepkg_repackager_new&#45;&gt;srepkg_srepkg -->
<g id="edge19" class="edge">
<title>srepkg_repackager_new&#45;&gt;srepkg_srepkg</title><style>.edge>path:hover{stroke-width:8}</style>
<path fill="none" stroke="black" d="M833.42,-158.81C844.37,-147.44 858.23,-133.05 869.78,-121.06"/>
<polygon fill="#3db83d" stroke="black" points="872.56,-123.22 876.98,-113.59 867.52,-118.36 872.56,-123.22"/>
</g>
<!-- srepkg_repackager_new_interfaces -->
<g id="node18" class="node">
<title>srepkg_repackager_new_interfaces</title><style>.edge>path:hover{stroke-width:8}</style>
<ellipse fill="#0cf30c" stroke="black" cx="1013.54" cy="-344.05" rx="96.33" ry="21.43"/>
<text text-anchor="middle" x="1013.54" y="-347.05" font-family="Helvetica,sans-Serif" font-size="10.00" fill="#000000">srepkg.</text>
<text text-anchor="middle" x="1013.54" y="-336.05" font-family="Helvetica,sans-Serif" font-size="10.00" fill="#000000">repackager_new_interfaces</text>
</g>
<!-- srepkg_repackager_new_interfaces&#45;&gt;srepkg_command_input_new -->
<g id="edge20" class="edge">
<title>srepkg_repackager_new_interfaces&#45;&gt;srepkg_command_input_new</title><style>.edge>path:hover{stroke-width:8}</style>
<path fill="none" stroke="black" d="M943.54,-264.62C941.24,-245.88 947.56,-225.78 954.77,-209.93"/>
<polygon fill="#0cf30c" stroke="black" points="958.06,-211.17 959.31,-200.65 951.77,-208.09 958.06,-211.17"/>
</g>
<!-- srepkg_repackager_new_interfaces&#45;&gt;srepkg_construction_dir_new -->
<g id="edge21" class="edge">
<title>srepkg_repackager_new_interfaces&#45;&gt;srepkg_construction_dir_new</title><style>.edge>path:hover{stroke-width:8}</style>
<path fill="none" stroke="black" d="M1022.92,-322.57C1026.64,-314.45 1030.98,-304.96 1035.03,-296.13"/>
<polygon fill="#0cf30c" stroke="black" points="1038.27,-297.44 1039.26,-286.89 1031.91,-294.53 1038.27,-297.44"/>
</g>
<!-- srepkg_repackager_new_interfaces&#45;&gt;srepkg_orig_src_preparer -->
<g id="edge22" class="edge">
<title>srepkg_repackager_new_interfaces&#45;&gt;srepkg_orig_src_preparer</title><style>.edge>path:hover{stroke-width:8}</style>
<path fill="none" stroke="black" d="M1058.77,-325.32C1088.61,-313.62 1127.74,-298.29 1158.52,-286.23"/>
<polygon fill="#0cf30c" stroke="black" points="1160.16,-289.34 1168.19,-282.43 1157.61,-282.83 1160.16,-289.34"/>
</g>
<!-- srepkg_repackager_new_interfaces&#45;&gt;srepkg_repackager_new -->
<g id="edge23" class="edge">
<title>srepkg_repackager_new_interfaces&#45;&gt;srepkg_repackager_new</title><style>.edge>path:hover{stroke-width:8}</style>
<path fill="none" stroke="black" d="M943.54,-264.62C941.08,-244.58 896.63,-218.88 860.59,-201.18"/>
<polygon fill="#0cf30c" stroke="black" points="861.7,-197.82 851.17,-196.63 858.66,-204.13 861.7,-197.82"/>
<path fill="none" stroke="black" d="M983,-323.83C965.52,-310.37 946.48,-290.55 943.54,-266.62"/>
</g>
<!-- srepkg_repackager_new_interfaces&#45;&gt;srepkg_service_builder -->
<g id="edge24" class="edge">
<title>srepkg_repackager_new_interfaces&#45;&gt;srepkg_service_builder</title><style>.edge>path:hover{stroke-width:8}</style>
<path fill="none" stroke="black" d="M943.54,-264.62C942.04,-252.39 952.03,-250.86 962.54,-244.41 989.35,-227.94 1067.44,-207.14 1122.46,-193.8"/>
<polygon fill="#0cf30c" stroke="black" points="1123.54,-197.14 1132.45,-191.4 1121.91,-190.34 1123.54,-197.14"/>
</g>
<!-- srepkg_service_builder&#45;&gt;srepkg_srepkg -->
<g id="edge25" class="edge">
<title>srepkg_service_builder&#45;&gt;srepkg_srepkg</title><style>.edge>path:hover{stroke-width:8}</style>
<path fill="none" stroke="black" d="M1135.86,-165.85C1082.16,-150.75 992.55,-125.55 938.35,-110.31"/>
<polygon fill="#309130" stroke="black" points="939.24,-106.92 928.66,-107.59 937.34,-113.66 939.24,-106.92"/>
</g>
<!-- srepkg_shared_interfaces -->
<g id="node20" class="node">
<title>srepkg_shared_interfaces</title><style>.edge>path:hover{stroke-width:8}</style>
<ellipse fill="#3bce3b" stroke="black" cx="1194.54" cy="-344.05" rx="66.44" ry="21.43"/>
<text text-anchor="middle" x="1194.54" y="-347.05" font-family="Helvetica,sans-Serif" font-size="10.00" fill="#000000">srepkg.</text>
<text text-anchor="middle" x="1194.54" y="-336.05" font-family="Helvetica,sans-Serif" font-size="10.00" fill="#000000">shared_interfaces</text>
</g>
<!-- srepkg_shared_interfaces&#45;&gt;srepkg_construction_dir_new -->
<g id="edge26" class="edge">
<title>srepkg_shared_interfaces&#45;&gt;srepkg_construction_dir_new</title><style>.edge>path:hover{stroke-width:8}</style>
<path fill="none" stroke="black" d="M1161.04,-325.52C1140.55,-314.79 1114.11,-300.94 1092.01,-289.38"/>
<polygon fill="#3bce3b" stroke="black" points="1093.63,-286.28 1083.15,-284.74 1090.38,-292.48 1093.63,-286.28"/>
</g>
<!-- srepkg_shared_interfaces&#45;&gt;srepkg_dist_provider -->
<g id="edge27" class="edge">
<title>srepkg_shared_interfaces&#45;&gt;srepkg_dist_provider</title><style>.edge>path:hover{stroke-width:8}</style>
<path fill="none" stroke="black" d="M1228.12,-325.71C1250.26,-314.28 1279.35,-299.25 1302.66,-287.21"/>
<polygon fill="#3bce3b" stroke="black" points="1304.33,-290.29 1311.61,-282.59 1301.12,-284.07 1304.33,-290.29"/>
</g>
<!-- srepkg_srepkg&#45;&gt;srepkg_command_input -->
<g id="edge28" class="edge">
<title>srepkg_srepkg&#45;&gt;srepkg_command_input</title><style>.edge>path:hover{stroke-width:8}</style>
<path fill="none" stroke="black" d="M892.54,-67.93C892.54,-62.93 892.54,-57.69 892.54,-52.61"/>
<polygon fill="#339933" stroke="black" points="889.04,-68.08 892.54,-78.08 896.04,-68.08 889.04,-68.08"/>
<polygon fill="#339933" stroke="black" points="896.04,-52.56 892.54,-42.56 889.04,-52.56 896.04,-52.56"/>
</g>
<!-- srepkg_srepkg_builder&#45;&gt;srepkg_repackager -->
<g id="edge29" class="edge">
<title>srepkg_srepkg_builder&#45;&gt;srepkg_repackager</title><style>.edge>path:hover{stroke-width:8}</style>
<path fill="none" stroke="black" d="M116.11,-251.46C123.89,-249.08 131.96,-246.65 139.54,-244.41 199.93,-226.54 269.74,-206.73 315.16,-193.95"/>
<polygon fill="#3db83d" stroke="black" points="316.35,-197.26 325.03,-191.18 314.45,-190.52 316.35,-197.26"/>
</g>
<!-- srepkg_srepkg_construction_specs -->
<g id="node23" class="node">
<title>srepkg_srepkg_construction_specs</title><style>.edge>path:hover{stroke-width:8}</style>
<ellipse fill="#47c247" stroke="black" cx="536.54" cy="-265.62" rx="96.33" ry="21.43"/>
<text text-anchor="middle" x="536.54" y="-268.62" font-family="Helvetica,sans-Serif" font-size="10.00" fill="#000000">srepkg.</text>
<text text-anchor="middle" x="536.54" y="-257.62" font-family="Helvetica,sans-Serif" font-size="10.00" fill="#000000">srepkg_construction_specs</text>
</g>
<!-- srepkg_srepkg_construction_specs&#45;&gt;srepkg_repackager -->
<g id="edge30" class="edge">
<title>srepkg_srepkg_construction_specs&#45;&gt;srepkg_repackager</title><style>.edge>path:hover{stroke-width:8}</style>
<path fill="none" stroke="black" d="M498.14,-245.93C470.06,-232.27 432.06,-213.77 403.6,-199.91"/>
<polygon fill="#47c247" stroke="black" points="404.86,-196.64 394.34,-195.41 401.8,-202.93 404.86,-196.64"/>
</g>
<!-- wheel_inspect -->
<g id="node24" class="node">
<title>wheel_inspect</title><style>.edge>path:hover{stroke-width:8}</style>
<ellipse fill="#5353b6" stroke="black" cx="217.54" cy="-430.25" rx="46.51" ry="18"/>
<text text-anchor="middle" x="217.54" y="-427.75" font-family="Helvetica,sans-Serif" font-size="10.00" fill="#ffffff">wheel_inspect</text>
</g>
<!-- wheel_inspect&#45;&gt;srepkg_orig_pkg_inspector -->
<g id="edge31" class="edge">
<title>wheel_inspect&#45;&gt;srepkg_orig_pkg_inspector</title><style>.edge>path:hover{stroke-width:8}</style>
<path fill="none" stroke="black" d="M217.54,-412.16C217.54,-384.93 217.54,-331.33 217.54,-297.33"/>
<polygon fill="#5353b6" stroke="black" points="221.04,-297.03 217.54,-287.03 214.04,-297.03 221.04,-297.03"/>
</g>
</g>
</svg>
