<?xml version="1.0" encoding="UTF-8" standalone="no"?>
<!DOCTYPE svg PUBLIC "-//W3C//DTD SVG 1.1//EN"
 "http://www.w3.org/Graphics/SVG/1.1/DTD/svg11.dtd">
<!-- Generated by graphviz version 3.0.0 (20220226.1711)
 -->
<!-- Title: G Pages: 1 -->
<svg width="698pt" height="207pt"
 viewBox="0.00 0.00 698.16 207.28" xmlns="http://www.w3.org/2000/svg" xmlns:xlink="http://www.w3.org/1999/xlink">
<g id="graph0" class="graph" transform="scale(1 1) rotate(0) translate(4 203.28)">
<title>G</title><style>.edge>path:hover{stroke-width:8}</style>
<polygon fill="white" stroke="transparent" points="-4,4 -4,-203.28 694.16,-203.28 694.16,4 -4,4"/>
<!-- requests -->
<g id="node1" class="node">
<title>requests</title><style>.edge>path:hover{stroke-width:8}</style>
<ellipse fill="#c04040" stroke="black" cx="31.79" cy="-178.07" rx="31.58" ry="18"/>
<text text-anchor="middle" x="31.79" y="-175.57" font-family="Helvetica,sans-Serif" font-size="10.00" fill="#ffffff">requests</text>
</g>
<!-- srepkg_service_builder -->
<g id="node7" class="node">
<title>srepkg_service_builder</title><style>.edge>path:hover{stroke-width:8}</style>
<ellipse fill="#3a8888" stroke="black" cx="349.79" cy="-21.21" rx="57.97" ry="21.43"/>
<text text-anchor="middle" x="349.79" y="-24.21" font-family="Helvetica,sans-Serif" font-size="10.00" fill="#ffffff">srepkg.</text>
<text text-anchor="middle" x="349.79" y="-13.21" font-family="Helvetica,sans-Serif" font-size="10.00" fill="#ffffff">service_builder</text>
</g>
<!-- requests&#45;&gt;srepkg_service_builder -->
<g id="edge1" class="edge">
<title>requests&#45;&gt;srepkg_service_builder</title><style>.edge>path:hover{stroke-width:8}</style>
<path fill="none" stroke="black" d="M29.77,-159.78C28.23,-137.71 29.28,-99.84 50.79,-78.43 82.67,-46.69 204.52,-32.3 282.48,-26.22"/>
<polygon fill="#c04040" stroke="black" points="283,-29.69 292.71,-25.45 282.47,-22.71 283,-29.69"/>
</g>
<!-- srepkg_construction_dir_new -->
<g id="node2" class="node">
<title>srepkg_construction_dir_new</title><style>.edge>path:hover{stroke-width:8}</style>
<ellipse fill="#4cb3b3" stroke="black" cx="136.79" cy="-99.64" rx="77.15" ry="21.43"/>
<text text-anchor="middle" x="136.79" y="-102.64" font-family="Helvetica,sans-Serif" font-size="10.00" fill="#000000">srepkg.</text>
<text text-anchor="middle" x="136.79" y="-91.64" font-family="Helvetica,sans-Serif" font-size="10.00" fill="#000000">construction_dir_new</text>
</g>
<!-- srepkg_construction_dir_new&#45;&gt;srepkg_service_builder -->
<g id="edge2" class="edge">
<title>srepkg_construction_dir_new&#45;&gt;srepkg_service_builder</title><style>.edge>path:hover{stroke-width:8}</style>
<path fill="none" stroke="black" d="M181.96,-82.43C216.56,-70.02 264.27,-52.9 299.98,-40.09"/>
<polygon fill="#4cb3b3" stroke="black" points="301.48,-43.27 309.71,-36.59 299.11,-36.68 301.48,-43.27"/>
</g>
<!-- srepkg_dist_provider -->
<g id="node3" class="node">
<title>srepkg_dist_provider</title><style>.edge>path:hover{stroke-width:8}</style>
<ellipse fill="#4cb3b3" stroke="black" cx="282.79" cy="-99.64" rx="50.82" ry="21.43"/>
<text text-anchor="middle" x="282.79" y="-102.64" font-family="Helvetica,sans-Serif" font-size="10.00" fill="#000000">srepkg.</text>
<text text-anchor="middle" x="282.79" y="-91.64" font-family="Helvetica,sans-Serif" font-size="10.00" fill="#000000">dist_provider</text>
</g>
<!-- srepkg_dist_provider&#45;&gt;srepkg_service_builder -->
<g id="edge3" class="edge">
<title>srepkg_dist_provider&#45;&gt;srepkg_service_builder</title><style>.edge>path:hover{stroke-width:8}</style>
<path fill="none" stroke="black" d="M299.69,-79.35C307.65,-70.28 317.27,-59.31 325.95,-49.41"/>
<polygon fill="#4cb3b3" stroke="black" points="328.69,-51.59 332.65,-41.76 323.43,-46.97 328.69,-51.59"/>
</g>
<!-- srepkg_orig_src_preparer -->
<g id="node4" class="node">
<title>srepkg_orig_src_preparer</title><style>.edge>path:hover{stroke-width:8}</style>
<ellipse fill="#49acac" stroke="black" cx="416.79" cy="-99.64" rx="65.11" ry="21.43"/>
<text text-anchor="middle" x="416.79" y="-102.64" font-family="Helvetica,sans-Serif" font-size="10.00" fill="#000000">srepkg.</text>
<text text-anchor="middle" x="416.79" y="-91.64" font-family="Helvetica,sans-Serif" font-size="10.00" fill="#000000">orig_src_preparer</text>
</g>
<!-- srepkg_orig_src_preparer&#45;&gt;srepkg_service_builder -->
<g id="edge4" class="edge">
<title>srepkg_orig_src_preparer&#45;&gt;srepkg_service_builder</title><style>.edge>path:hover{stroke-width:8}</style>
<path fill="none" stroke="black" d="M399.53,-78.96C391.58,-69.88 382.01,-58.97 373.4,-49.15"/>
<polygon fill="#49acac" stroke="black" points="375.98,-46.78 366.75,-41.56 370.71,-51.39 375.98,-46.78"/>
</g>
<!-- srepkg_remote_pkg_retriever -->
<g id="node5" class="node">
<title>srepkg_remote_pkg_retriever</title><style>.edge>path:hover{stroke-width:8}</style>
<ellipse fill="#4cb3b3" stroke="black" cx="613.79" cy="-99.64" rx="76.24" ry="21.43"/>
<text text-anchor="middle" x="613.79" y="-102.64" font-family="Helvetica,sans-Serif" font-size="10.00" fill="#000000">srepkg.</text>
<text text-anchor="middle" x="613.79" y="-91.64" font-family="Helvetica,sans-Serif" font-size="10.00" fill="#000000">remote_pkg_retriever</text>
</g>
<!-- srepkg_remote_pkg_retriever&#45;&gt;srepkg_service_builder -->
<g id="edge5" class="edge">
<title>srepkg_remote_pkg_retriever&#45;&gt;srepkg_service_builder</title><style>.edge>path:hover{stroke-width:8}</style>
<path fill="none" stroke="black" d="M562.57,-83.81C517.03,-70.63 450.65,-51.41 404.17,-37.96"/>
<polygon fill="#4cb3b3" stroke="black" points="404.86,-34.51 394.28,-35.09 402.91,-41.24 404.86,-34.51"/>
</g>
<!-- srepkg_repackager_new_interfaces -->
<g id="node6" class="node">
<title>srepkg_repackager_new_interfaces</title><style>.edge>path:hover{stroke-width:8}</style>
<ellipse fill="#40bfc0" stroke="black" cx="462.79" cy="-178.07" rx="96.33" ry="21.43"/>
<text text-anchor="middle" x="462.79" y="-181.07" font-family="Helvetica,sans-Serif" font-size="10.00" fill="#000000">srepkg.</text>
<text text-anchor="middle" x="462.79" y="-170.07" font-family="Helvetica,sans-Serif" font-size="10.00" fill="#000000">repackager_new_interfaces</text>
</g>
<!-- srepkg_repackager_new_interfaces&#45;&gt;srepkg_orig_src_preparer -->
<g id="edge6" class="edge">
<title>srepkg_repackager_new_interfaces&#45;&gt;srepkg_orig_src_preparer</title><style>.edge>path:hover{stroke-width:8}</style>
<path fill="none" stroke="black" d="M450.7,-156.99C445.63,-148.56 439.64,-138.6 434.11,-129.42"/>
<polygon fill="#40bfc0" stroke="black" points="436.95,-127.35 428.79,-120.59 430.95,-130.96 436.95,-127.35"/>
</g>
<!-- srepkg_repackager_new_interfaces&#45;&gt;srepkg_service_builder -->
<g id="edge7" class="edge">
<title>srepkg_repackager_new_interfaces&#45;&gt;srepkg_service_builder</title><style>.edge>path:hover{stroke-width:8}</style>
<path fill="none" stroke="black" d="M477.63,-156.98C491.27,-135.87 507.07,-102.44 490.79,-78.43 473.46,-52.86 442.45,-38.93 413.92,-31.33"/>
<polygon fill="#40bfc0" stroke="black" points="414.5,-27.86 403.95,-28.89 412.84,-34.67 414.5,-27.86"/>
</g>
</g>
</svg>
