<?xml version="1.0" encoding="UTF-8" standalone="no"?>
<!DOCTYPE svg PUBLIC "-//W3C//DTD SVG 1.1//EN"
 "http://www.w3.org/Graphics/SVG/1.1/DTD/svg11.dtd">
<!-- Generated by graphviz version 3.0.0 (20220226.1711)
 -->
<!-- Title: G Pages: 1 -->
<svg width="903pt" height="529pt"
 viewBox="0.00 0.00 902.87 528.93" xmlns="http://www.w3.org/2000/svg" xmlns:xlink="http://www.w3.org/1999/xlink">
<g id="graph0" class="graph" transform="scale(1 1) rotate(0) translate(4 524.93)">
<title>G</title><style>.edge>path:hover{stroke-width:8}</style>
<polygon fill="white" stroke="transparent" points="-4,4 -4,-524.93 898.87,-524.93 898.87,4 -4,4"/>
<!-- srepkg_io -->
<g id="node1" class="node">
<title>srepkg_io</title><style>.edge>path:hover{stroke-width:8}</style>
<ellipse fill="#c24747" stroke="black" cx="463.76" cy="-90" rx="32.93" ry="18"/>
<text text-anchor="middle" x="463.76" y="-87.5" font-family="Helvetica,sans-Serif" font-size="10.00" fill="#ffffff">srepkg.io</text>
</g>
<!-- srepkg_srepkg -->
<g id="node10" class="node">
<title>srepkg_srepkg</title><style>.edge>path:hover{stroke-width:8}</style>
<ellipse fill="#813737" stroke="black" cx="493.76" cy="-18" rx="45.83" ry="18"/>
<text text-anchor="middle" x="493.76" y="-15.5" font-family="Helvetica,sans-Serif" font-size="10.00" fill="#ffffff">srepkg.srepkg</text>
</g>
<!-- srepkg_io&#45;&gt;srepkg_srepkg -->
<g id="edge1" class="edge">
<title>srepkg_io&#45;&gt;srepkg_srepkg</title><style>.edge>path:hover{stroke-width:8}</style>
<path fill="none" stroke="black" d="M470.87,-72.41C474.33,-64.34 478.58,-54.43 482.47,-45.35"/>
<polygon fill="#c24747" stroke="black" points="485.77,-46.53 486.49,-35.96 479.34,-43.77 485.77,-46.53"/>
</g>
<!-- srepkg_io_command_input -->
<g id="node2" class="node">
<title>srepkg_io_command_input</title><style>.edge>path:hover{stroke-width:8}</style>
<ellipse fill="#c24747" stroke="black" cx="390.76" cy="-172.99" rx="60.62" ry="28.98"/>
<text text-anchor="middle" x="390.76" y="-181.49" font-family="Helvetica,sans-Serif" font-size="10.00" fill="#ffffff">srepkg.</text>
<text text-anchor="middle" x="390.76" y="-170.49" font-family="Helvetica,sans-Serif" font-size="10.00" fill="#ffffff">io.</text>
<text text-anchor="middle" x="390.76" y="-159.49" font-family="Helvetica,sans-Serif" font-size="10.00" fill="#ffffff">command_input</text>
</g>
<!-- srepkg_io_command_input&#45;&gt;srepkg_srepkg -->
<g id="edge2" class="edge">
<title>srepkg_io_command_input&#45;&gt;srepkg_srepkg</title><style>.edge>path:hover{stroke-width:8}</style>
<path fill="none" stroke="black" d="M524.76,-89C518.61,-74.47 511.5,-58.36 505.64,-45.26"/>
<polygon fill="#c24747" stroke="black" points="508.73,-43.59 501.44,-35.91 502.34,-46.46 508.73,-43.59"/>
<path fill="none" stroke="black" d="M437.92,-154.33C479.79,-137.16 533.16,-110.84 524.76,-91"/>
</g>
<!-- srepkg_io_orig_pkg_inspector -->
<g id="node3" class="node">
<title>srepkg_io_orig_pkg_inspector</title><style>.edge>path:hover{stroke-width:8}</style>
<ellipse fill="#b03a3a" stroke="black" cx="737.76" cy="-303.97" rx="69.09" ry="28.98"/>
<text text-anchor="middle" x="737.76" y="-312.47" font-family="Helvetica,sans-Serif" font-size="10.00" fill="#ffffff">srepkg.</text>
<text text-anchor="middle" x="737.76" y="-301.47" font-family="Helvetica,sans-Serif" font-size="10.00" fill="#ffffff">io.</text>
<text text-anchor="middle" x="737.76" y="-290.47" font-family="Helvetica,sans-Serif" font-size="10.00" fill="#ffffff">orig_pkg_inspector</text>
</g>
<!-- srepkg_io_orig_pkg_inspector&#45;&gt;srepkg_srepkg -->
<g id="edge3" class="edge">
<title>srepkg_io_orig_pkg_inspector&#45;&gt;srepkg_srepkg</title><style>.edge>path:hover{stroke-width:8}</style>
<path fill="none" stroke="black" d="M793.56,-286.69C814.44,-276.88 833.49,-261.74 834.76,-238.98"/>
<path fill="none" stroke="black" d="M834.76,-237.98C836.61,-204.96 819.99,-197.54 796.76,-173.99"/>
</g>
<!-- srepkg_path_builders -->
<g id="node4" class="node">
<title>srepkg_path_builders</title><style>.edge>path:hover{stroke-width:8}</style>
<ellipse fill="#e72222" stroke="black" cx="597.76" cy="-303.97" rx="52.15" ry="21.43"/>
<text text-anchor="middle" x="597.76" y="-306.97" font-family="Helvetica,sans-Serif" font-size="10.00" fill="#ffffff">srepkg.</text>
<text text-anchor="middle" x="597.76" y="-295.97" font-family="Helvetica,sans-Serif" font-size="10.00" fill="#ffffff">path_builders</text>
</g>
<!-- srepkg_path_builders&#45;&gt;srepkg_srepkg -->
<g id="edge4" class="edge">
<title>srepkg_path_builders&#45;&gt;srepkg_srepkg</title><style>.edge>path:hover{stroke-width:8}</style>
<path fill="none" stroke="black" d="M796.76,-237.98C799.68,-209.69 816.73,-194.24 796.76,-173.99"/>
<path fill="none" stroke="black" d="M796.76,-171.99C708.19,-82.19 573.91,-207.16 524.76,-91"/>
</g>
<!-- srepkg_srepkg_builders_srepkg_builder -->
<g id="node13" class="node">
<title>srepkg_srepkg_builders_srepkg_builder</title><style>.edge>path:hover{stroke-width:8}</style>
<ellipse fill="#a13535" stroke="black" cx="569.76" cy="-172.99" rx="62.45" ry="28.98"/>
<text text-anchor="middle" x="569.76" y="-181.49" font-family="Helvetica,sans-Serif" font-size="10.00" fill="#ffffff">srepkg.</text>
<text text-anchor="middle" x="569.76" y="-170.49" font-family="Helvetica,sans-Serif" font-size="10.00" fill="#ffffff">srepkg_builders.</text>
<text text-anchor="middle" x="569.76" y="-159.49" font-family="Helvetica,sans-Serif" font-size="10.00" fill="#ffffff">srepkg_builder</text>
</g>
<!-- srepkg_path_builders&#45;&gt;srepkg_srepkg_builders_srepkg_builder -->
<g id="edge5" class="edge">
<title>srepkg_path_builders&#45;&gt;srepkg_srepkg_builders_srepkg_builder</title><style>.edge>path:hover{stroke-width:8}</style>
<path fill="none" stroke="black" d="M630.16,-287.12C639.58,-282.85 649.96,-278.45 659.76,-274.98 719.1,-253.96 790.31,-301.61 796.76,-238.98"/>
<path fill="none" stroke="black" d="M796.76,-237.98C800.15,-205.05 708.7,-188.19 640.86,-180.24"/>
<polygon fill="#e72222" stroke="black" points="640.94,-176.73 630.61,-179.08 640.16,-183.68 640.94,-176.73"/>
</g>
<!-- srepkg_path_builders_builder_dest_paths -->
<g id="node5" class="node">
<title>srepkg_path_builders_builder_dest_paths</title><style>.edge>path:hover{stroke-width:8}</style>
<ellipse fill="#c24747" stroke="black" cx="420.76" cy="-397.96" rx="69.09" ry="28.98"/>
<text text-anchor="middle" x="420.76" y="-406.46" font-family="Helvetica,sans-Serif" font-size="10.00" fill="#ffffff">srepkg.</text>
<text text-anchor="middle" x="420.76" y="-395.46" font-family="Helvetica,sans-Serif" font-size="10.00" fill="#ffffff">path_builders.</text>
<text text-anchor="middle" x="420.76" y="-384.46" font-family="Helvetica,sans-Serif" font-size="10.00" fill="#ffffff">builder_dest_paths</text>
</g>
<!-- srepkg_path_builders_path_calculator -->
<g id="node8" class="node">
<title>srepkg_path_builders_path_calculator</title><style>.edge>path:hover{stroke-width:8}</style>
<ellipse fill="#932424" stroke="black" cx="260.76" cy="-303.97" rx="58.88" ry="28.98"/>
<text text-anchor="middle" x="260.76" y="-312.47" font-family="Helvetica,sans-Serif" font-size="10.00" fill="#ffffff">srepkg.</text>
<text text-anchor="middle" x="260.76" y="-301.47" font-family="Helvetica,sans-Serif" font-size="10.00" fill="#ffffff">path_builders.</text>
<text text-anchor="middle" x="260.76" y="-290.47" font-family="Helvetica,sans-Serif" font-size="10.00" fill="#ffffff">path_calculator</text>
</g>
<!-- srepkg_path_builders_builder_dest_paths&#45;&gt;srepkg_path_builders_path_calculator -->
<g id="edge6" class="edge">
<title>srepkg_path_builders_builder_dest_paths&#45;&gt;srepkg_path_builders_path_calculator</title><style>.edge>path:hover{stroke-width:8}</style>
<path fill="none" stroke="black" d="M380.8,-373.98C358.31,-361.05 330.13,-344.86 306.73,-331.4"/>
<polygon fill="#c24747" stroke="black" points="308.43,-328.34 298.02,-326.39 304.94,-334.41 308.43,-328.34"/>
</g>
<!-- srepkg_path_builders_builder_src_paths -->
<g id="node6" class="node">
<title>srepkg_path_builders_builder_src_paths</title><style>.edge>path:hover{stroke-width:8}</style>
<ellipse fill="#c24747" stroke="black" cx="65.76" cy="-397.96" rx="65.52" ry="28.98"/>
<text text-anchor="middle" x="65.76" y="-406.46" font-family="Helvetica,sans-Serif" font-size="10.00" fill="#ffffff">srepkg.</text>
<text text-anchor="middle" x="65.76" y="-395.46" font-family="Helvetica,sans-Serif" font-size="10.00" fill="#ffffff">path_builders.</text>
<text text-anchor="middle" x="65.76" y="-384.46" font-family="Helvetica,sans-Serif" font-size="10.00" fill="#ffffff">builder_src_paths</text>
</g>
<!-- srepkg_path_builders_builder_src_paths&#45;&gt;srepkg_path_builders_path_calculator -->
<g id="edge7" class="edge">
<title>srepkg_path_builders_builder_src_paths&#45;&gt;srepkg_path_builders_path_calculator</title><style>.edge>path:hover{stroke-width:8}</style>
<path fill="none" stroke="black" d="M109.52,-376.31C139.24,-362.3 178.64,-343.71 209.77,-329.03"/>
<polygon fill="#c24747" stroke="black" points="211.6,-332.03 219.15,-324.6 208.61,-325.7 211.6,-332.03"/>
</g>
<!-- srepkg_path_builders_file_structures -->
<g id="node7" class="node">
<title>srepkg_path_builders_file_structures</title><style>.edge>path:hover{stroke-width:8}</style>
<ellipse fill="#ce3b3b" stroke="black" cx="210.76" cy="-491.94" rx="55.31" ry="28.98"/>
<text text-anchor="middle" x="210.76" y="-500.44" font-family="Helvetica,sans-Serif" font-size="10.00" fill="#ffffff">srepkg.</text>
<text text-anchor="middle" x="210.76" y="-489.44" font-family="Helvetica,sans-Serif" font-size="10.00" fill="#ffffff">path_builders.</text>
<text text-anchor="middle" x="210.76" y="-478.44" font-family="Helvetica,sans-Serif" font-size="10.00" fill="#ffffff">file_structures</text>
</g>
<!-- srepkg_path_builders_file_structures&#45;&gt;srepkg_path_builders_path_calculator -->
<g id="edge8" class="edge">
<title>srepkg_path_builders_file_structures&#45;&gt;srepkg_path_builders_path_calculator</title><style>.edge>path:hover{stroke-width:8}</style>
<path fill="none" stroke="black" d="M193.34,-464.18C179.14,-438.73 163.68,-399.85 178.76,-368.97 186.17,-353.78 199.12,-341.15 212.57,-331.23"/>
<polygon fill="#ce3b3b" stroke="black" points="214.74,-333.98 220.97,-325.4 210.75,-328.23 214.74,-333.98"/>
</g>
<!-- srepkg_path_builders_paths_class_builder -->
<g id="node9" class="node">
<title>srepkg_path_builders_paths_class_builder</title><style>.edge>path:hover{stroke-width:8}</style>
<ellipse fill="#b03a3a" stroke="black" cx="260.76" cy="-397.96" rx="72.66" ry="28.98"/>
<text text-anchor="middle" x="260.76" y="-406.46" font-family="Helvetica,sans-Serif" font-size="10.00" fill="#ffffff">srepkg.</text>
<text text-anchor="middle" x="260.76" y="-395.46" font-family="Helvetica,sans-Serif" font-size="10.00" fill="#ffffff">path_builders.</text>
<text text-anchor="middle" x="260.76" y="-384.46" font-family="Helvetica,sans-Serif" font-size="10.00" fill="#ffffff">paths_class_builder</text>
</g>
<!-- srepkg_path_builders_file_structures&#45;&gt;srepkg_path_builders_paths_class_builder -->
<g id="edge9" class="edge">
<title>srepkg_path_builders_file_structures&#45;&gt;srepkg_path_builders_paths_class_builder</title><style>.edge>path:hover{stroke-width:8}</style>
<path fill="none" stroke="black" d="M225.49,-463.84C230.34,-454.92 235.81,-444.86 240.97,-435.37"/>
<polygon fill="#ce3b3b" stroke="black" points="244.09,-436.96 245.79,-426.5 237.94,-433.61 244.09,-436.96"/>
</g>
<!-- srepkg_path_builders_path_calculator&#45;&gt;srepkg_srepkg -->
<g id="edge10" class="edge">
<title>srepkg_path_builders_path_calculator&#45;&gt;srepkg_srepkg</title><style>.edge>path:hover{stroke-width:8}</style>
<path fill="none" stroke="black" d="M479.76,-237.98C514.2,-212.89 485.04,-184.35 498.76,-144 507.21,-119.16 534.98,-115.16 524.76,-91"/>
<path fill="none" stroke="black" d="M317.31,-295.97C364.02,-288.05 430.42,-271.73 479.76,-238.98"/>
</g>
<!-- srepkg_path_builders_path_calculator&#45;&gt;srepkg_srepkg_builders_srepkg_builder -->
<g id="edge11" class="edge">
<title>srepkg_path_builders_path_calculator&#45;&gt;srepkg_srepkg_builders_srepkg_builder</title><style>.edge>path:hover{stroke-width:8}</style>
<path fill="none" stroke="black" d="M479.76,-237.98C495.45,-226.55 512.81,-214.15 528.06,-203.34"/>
<polygon fill="#932424" stroke="black" points="530.15,-206.15 536.29,-197.51 526.11,-200.43 530.15,-206.15"/>
</g>
<!-- srepkg_path_builders_paths_class_builder&#45;&gt;srepkg_path_builders_path_calculator -->
<g id="edge12" class="edge">
<title>srepkg_path_builders_paths_class_builder&#45;&gt;srepkg_path_builders_path_calculator</title><style>.edge>path:hover{stroke-width:8}</style>
<path fill="none" stroke="black" d="M260.76,-368.86C260.76,-360.82 260.76,-351.92 260.76,-343.38"/>
<polygon fill="#b03a3a" stroke="black" points="264.26,-343.22 260.76,-333.22 257.26,-343.22 264.26,-343.22"/>
</g>
<!-- srepkg_srepkg_builders -->
<g id="node11" class="node">
<title>srepkg_srepkg_builders</title><style>.edge>path:hover{stroke-width:8}</style>
<ellipse fill="#e72222" stroke="black" cx="834.76" cy="-491.94" rx="60.21" ry="21.43"/>
<text text-anchor="middle" x="834.76" y="-494.94" font-family="Helvetica,sans-Serif" font-size="10.00" fill="#ffffff">srepkg.</text>
<text text-anchor="middle" x="834.76" y="-483.94" font-family="Helvetica,sans-Serif" font-size="10.00" fill="#ffffff">srepkg_builders</text>
</g>
<!-- srepkg_srepkg_builders&#45;&gt;srepkg_io_orig_pkg_inspector -->
<g id="edge13" class="edge">
<title>srepkg_srepkg_builders&#45;&gt;srepkg_io_orig_pkg_inspector</title><style>.edge>path:hover{stroke-width:8}</style>
<path fill="none" stroke="black" d="M834.76,-396.96C819.52,-374.02 797.57,-352.59 778.4,-336.19"/>
<polygon fill="#e72222" stroke="black" points="780.58,-333.45 770.66,-329.71 776.08,-338.81 780.58,-333.45"/>
</g>
<!-- srepkg_srepkg_builders&#45;&gt;srepkg_path_builders_path_calculator -->
<g id="edge14" class="edge">
<title>srepkg_srepkg_builders&#45;&gt;srepkg_path_builders_path_calculator</title><style>.edge>path:hover{stroke-width:8}</style>
<path fill="none" stroke="black" d="M834.76,-396.96C820.76,-375.88 476.38,-331.37 327.89,-313.08"/>
<polygon fill="#e72222" stroke="black" points="327.89,-309.56 317.54,-311.81 327.04,-316.5 327.89,-309.56"/>
<path fill="none" stroke="black" d="M840.73,-470.81C845.37,-450.85 848.9,-420.24 834.76,-398.96"/>
</g>
<!-- srepkg_srepkg_builders&#45;&gt;srepkg_srepkg -->
<g id="edge15" class="edge">
<title>srepkg_srepkg_builders&#45;&gt;srepkg_srepkg</title><style>.edge>path:hover{stroke-width:8}</style>
<path fill="none" stroke="black" d="M834.76,-396.96C795.9,-338.48 830.84,-309.08 834.76,-238.98"/>
</g>
<!-- srepkg_srepkg_builders_ep_console_script -->
<g id="node12" class="node">
<title>srepkg_srepkg_builders_ep_console_script</title><style>.edge>path:hover{stroke-width:8}</style>
<ellipse fill="#db2f2f" stroke="black" cx="517.76" cy="-491.94" rx="67.35" ry="28.98"/>
<text text-anchor="middle" x="517.76" y="-500.44" font-family="Helvetica,sans-Serif" font-size="10.00" fill="#ffffff">srepkg.</text>
<text text-anchor="middle" x="517.76" y="-489.44" font-family="Helvetica,sans-Serif" font-size="10.00" fill="#ffffff">srepkg_builders.</text>
<text text-anchor="middle" x="517.76" y="-478.44" font-family="Helvetica,sans-Serif" font-size="10.00" fill="#ffffff">ep_console_script</text>
</g>
<!-- srepkg_srepkg_builders_ep_console_script&#45;&gt;srepkg_io_orig_pkg_inspector -->
<g id="edge16" class="edge">
<title>srepkg_srepkg_builders_ep_console_script&#45;&gt;srepkg_io_orig_pkg_inspector</title><style>.edge>path:hover{stroke-width:8}</style>
<path fill="none" stroke="black" d="M517.76,-396.96C517.19,-388.29 611.84,-351.49 677.15,-327.14"/>
<polygon fill="#db2f2f" stroke="black" points="678.41,-330.41 686.56,-323.65 675.97,-323.85 678.41,-330.41"/>
</g>
<!-- srepkg_srepkg_builders_ep_console_script&#45;&gt;srepkg_path_builders_path_calculator -->
<g id="edge17" class="edge">
<title>srepkg_srepkg_builders_ep_console_script&#45;&gt;srepkg_path_builders_path_calculator</title><style>.edge>path:hover{stroke-width:8}</style>
<path fill="none" stroke="black" d="M518.71,-462.73C519.09,-444.51 519.16,-420.31 517.76,-398.96"/>
<path fill="none" stroke="black" d="M517.76,-396.96C516.78,-381.95 511.01,-377.68 498.76,-368.97 448.62,-333.28 379.69,-317.49 328.91,-310.51"/>
<polygon fill="#db2f2f" stroke="black" points="329.05,-307 318.69,-309.19 328.15,-313.94 329.05,-307"/>
</g>
<!-- srepkg_srepkg_builders_ep_console_script&#45;&gt;srepkg_srepkg_builders_srepkg_builder -->
<g id="edge18" class="edge">
<title>srepkg_srepkg_builders_ep_console_script&#45;&gt;srepkg_srepkg_builders_srepkg_builder</title><style>.edge>path:hover{stroke-width:8}</style>
<path fill="none" stroke="black" d="M517.76,-396.96C513.4,-330.21 537.24,-254.88 554.09,-211.08"/>
<polygon fill="#db2f2f" stroke="black" points="557.38,-212.29 557.78,-201.7 550.86,-209.73 557.38,-212.29"/>
</g>
<!-- srepkg_srepkg_builders_srepkg_builder&#45;&gt;srepkg_srepkg -->
<g id="edge19" class="edge">
<title>srepkg_srepkg_builders_srepkg_builder&#45;&gt;srepkg_srepkg</title><style>.edge>path:hover{stroke-width:8}</style>
<path fill="none" stroke="black" d="M552.84,-144.99C543.68,-129.58 532.66,-109.67 524.76,-91"/>
</g>
</g>
</svg>
