<?xml version="1.0" encoding="UTF-8" standalone="no"?>
<!DOCTYPE svg PUBLIC "-//W3C//DTD SVG 1.1//EN"
 "http://www.w3.org/Graphics/SVG/1.1/DTD/svg11.dtd">
<!-- Generated by graphviz version 3.0.0 (20220226.1711)
 -->
<!-- Title: G Pages: 1 -->
<svg width="498pt" height="467pt"
 viewBox="0.00 0.00 498.13 467.24" xmlns="http://www.w3.org/2000/svg" xmlns:xlink="http://www.w3.org/1999/xlink">
<g id="graph0" class="graph" transform="scale(1 1) rotate(0) translate(4 463.24)">
<title>G</title><style>.edge>path:hover{stroke-width:8}</style>
<polygon fill="white" stroke="transparent" points="-4,4 -4,-463.24 494.13,-463.24 494.13,4 -4,4"/>
<!-- srepkg_app -->
<g id="node1" class="node">
<title>srepkg_app</title><style>.edge>path:hover{stroke-width:8}</style>
<ellipse fill="#964040" stroke="black" cx="271.3" cy="-18" rx="38.03" ry="18"/>
<text text-anchor="middle" x="271.3" y="-15.5" font-family="Helvetica,sans-Serif" font-size="10.00" fill="#ffffff">srepkg.app</text>
</g>
<!-- srepkg_command_input -->
<g id="node2" class="node">
<title>srepkg_command_input</title><style>.edge>path:hover{stroke-width:8}</style>
<ellipse fill="#c24747" stroke="black" cx="182.3" cy="-93.21" rx="60.62" ry="21.43"/>
<text text-anchor="middle" x="182.3" y="-96.21" font-family="Helvetica,sans-Serif" font-size="10.00" fill="#ffffff">srepkg.</text>
<text text-anchor="middle" x="182.3" y="-85.21" font-family="Helvetica,sans-Serif" font-size="10.00" fill="#ffffff">command_input</text>
</g>
<!-- srepkg_command_input&#45;&gt;srepkg_app -->
<g id="edge1" class="edge">
<title>srepkg_command_input&#45;&gt;srepkg_app</title><style>.edge>path:hover{stroke-width:8}</style>
<path fill="none" stroke="black" d="M205.22,-73.36C217.47,-63.28 232.6,-50.83 245.29,-40.39"/>
<polygon fill="#c24747" stroke="black" points="247.72,-42.92 253.22,-33.87 243.28,-37.52 247.72,-42.92"/>
</g>
<!-- srepkg_ep_console_script -->
<g id="node3" class="node">
<title>srepkg_ep_console_script</title><style>.edge>path:hover{stroke-width:8}</style>
<ellipse fill="#db2f2f" stroke="black" cx="221.3" cy="-250.07" rx="67.35" ry="21.43"/>
<text text-anchor="middle" x="221.3" y="-253.07" font-family="Helvetica,sans-Serif" font-size="10.00" fill="#ffffff">srepkg.</text>
<text text-anchor="middle" x="221.3" y="-242.07" font-family="Helvetica,sans-Serif" font-size="10.00" fill="#ffffff">ep_console_script</text>
</g>
<!-- srepkg_orig_pkg_inspector -->
<g id="node4" class="node">
<title>srepkg_orig_pkg_inspector</title><style>.edge>path:hover{stroke-width:8}</style>
<ellipse fill="#b83d3d" stroke="black" cx="130.3" cy="-171.64" rx="69.09" ry="21.43"/>
<text text-anchor="middle" x="130.3" y="-174.64" font-family="Helvetica,sans-Serif" font-size="10.00" fill="#ffffff">srepkg.</text>
<text text-anchor="middle" x="130.3" y="-163.64" font-family="Helvetica,sans-Serif" font-size="10.00" fill="#ffffff">orig_pkg_inspector</text>
</g>
<!-- srepkg_ep_console_script&#45;&gt;srepkg_orig_pkg_inspector -->
<g id="edge2" class="edge">
<title>srepkg_ep_console_script&#45;&gt;srepkg_orig_pkg_inspector</title><style>.edge>path:hover{stroke-width:8}</style>
<path fill="none" stroke="black" d="M198.33,-229.78C187.02,-220.28 173.21,-208.68 161,-198.43"/>
<polygon fill="#db2f2f" stroke="black" points="163.16,-195.67 153.25,-191.92 158.66,-201.03 163.16,-195.67"/>
</g>
<!-- srepkg_path_calculator -->
<g id="node10" class="node">
<title>srepkg_path_calculator</title><style>.edge>path:hover{stroke-width:8}</style>
<ellipse fill="#9b2626" stroke="black" cx="314.3" cy="-171.64" rx="58.88" ry="21.43"/>
<text text-anchor="middle" x="314.3" y="-174.64" font-family="Helvetica,sans-Serif" font-size="10.00" fill="#ffffff">srepkg.</text>
<text text-anchor="middle" x="314.3" y="-163.64" font-family="Helvetica,sans-Serif" font-size="10.00" fill="#ffffff">path_calculator</text>
</g>
<!-- srepkg_ep_console_script&#45;&gt;srepkg_path_calculator -->
<g id="edge3" class="edge">
<title>srepkg_ep_console_script&#45;&gt;srepkg_path_calculator</title><style>.edge>path:hover{stroke-width:8}</style>
<path fill="none" stroke="black" d="M244.76,-229.78C256.51,-220.13 270.87,-208.33 283.49,-197.96"/>
<polygon fill="#db2f2f" stroke="black" points="285.98,-200.44 291.48,-191.39 281.53,-195.04 285.98,-200.44"/>
</g>
<!-- srepkg_srepkg_builder -->
<g id="node11" class="node">
<title>srepkg_srepkg_builder</title><style>.edge>path:hover{stroke-width:8}</style>
<ellipse fill="#a83838" stroke="black" cx="356.3" cy="-93.21" rx="56.64" ry="21.43"/>
<text text-anchor="middle" x="356.3" y="-96.21" font-family="Helvetica,sans-Serif" font-size="10.00" fill="#ffffff">srepkg.</text>
<text text-anchor="middle" x="356.3" y="-85.21" font-family="Helvetica,sans-Serif" font-size="10.00" fill="#ffffff">srepkg_builder</text>
</g>
<!-- srepkg_ep_console_script&#45;&gt;srepkg_srepkg_builder -->
<g id="edge4" class="edge">
<title>srepkg_ep_console_script&#45;&gt;srepkg_srepkg_builder</title><style>.edge>path:hover{stroke-width:8}</style>
<path fill="none" stroke="black" d="M221.66,-228.78C223.05,-207.19 228.23,-173.08 246.3,-150.43 260.79,-132.25 282.74,-119.39 303.22,-110.6"/>
<polygon fill="#db2f2f" stroke="black" points="304.54,-113.84 312.5,-106.84 301.91,-107.35 304.54,-113.84"/>
</g>
<!-- srepkg_orig_pkg_inspector&#45;&gt;srepkg_app -->
<g id="edge5" class="edge">
<title>srepkg_orig_pkg_inspector&#45;&gt;srepkg_app</title><style>.edge>path:hover{stroke-width:8}</style>
<path fill="none" stroke="black" d="M188.08,-159.77C222.29,-149.62 260.94,-130.35 271.3,-94.21"/>
<path fill="none" stroke="black" d="M271.3,-92.21C275.54,-77.41 275.77,-60.23 274.83,-46.23"/>
<polygon fill="#b83d3d" stroke="black" points="278.31,-45.88 273.93,-36.24 271.34,-46.51 278.31,-45.88"/>
</g>
<!-- srepkg_path_builders -->
<g id="node5" class="node">
<title>srepkg_path_builders</title><style>.edge>path:hover{stroke-width:8}</style>
<ellipse fill="#db2f2f" stroke="black" cx="399.3" cy="-250.07" rx="52.15" ry="21.43"/>
<text text-anchor="middle" x="399.3" y="-253.07" font-family="Helvetica,sans-Serif" font-size="10.00" fill="#ffffff">srepkg.</text>
<text text-anchor="middle" x="399.3" y="-242.07" font-family="Helvetica,sans-Serif" font-size="10.00" fill="#ffffff">path_builders</text>
</g>
<!-- srepkg_path_builders&#45;&gt;srepkg_path_calculator -->
<g id="edge6" class="edge">
<title>srepkg_path_builders&#45;&gt;srepkg_path_calculator</title><style>.edge>path:hover{stroke-width:8}</style>
<path fill="none" stroke="black" d="M378.29,-230.17C367.66,-220.62 354.6,-208.88 343.06,-198.5"/>
<polygon fill="#db2f2f" stroke="black" points="345.14,-195.66 335.36,-191.58 340.46,-200.87 345.14,-195.66"/>
</g>
<!-- srepkg_path_builders&#45;&gt;srepkg_srepkg_builder -->
<g id="edge7" class="edge">
<title>srepkg_path_builders&#45;&gt;srepkg_srepkg_builder</title><style>.edge>path:hover{stroke-width:8}</style>
<path fill="none" stroke="black" d="M397.36,-228.68C395.08,-208.47 390.51,-176.81 382.3,-150.43 379.49,-141.4 375.54,-131.95 371.57,-123.42"/>
<polygon fill="#db2f2f" stroke="black" points="374.64,-121.74 367.13,-114.26 368.34,-124.79 374.64,-121.74"/>
</g>
<!-- srepkg_path_builders_builder_dest_paths -->
<g id="node6" class="node">
<title>srepkg_path_builders_builder_dest_paths</title><style>.edge>path:hover{stroke-width:8}</style>
<ellipse fill="#c24747" stroke="black" cx="69.3" cy="-336.27" rx="69.09" ry="28.98"/>
<text text-anchor="middle" x="69.3" y="-344.77" font-family="Helvetica,sans-Serif" font-size="10.00" fill="#ffffff">srepkg.</text>
<text text-anchor="middle" x="69.3" y="-333.77" font-family="Helvetica,sans-Serif" font-size="10.00" fill="#ffffff">path_builders.</text>
<text text-anchor="middle" x="69.3" y="-322.77" font-family="Helvetica,sans-Serif" font-size="10.00" fill="#ffffff">builder_dest_paths</text>
</g>
<!-- srepkg_path_builders_builder_dest_paths&#45;&gt;srepkg_path_calculator -->
<g id="edge8" class="edge">
<title>srepkg_path_builders_builder_dest_paths&#45;&gt;srepkg_path_calculator</title><style>.edge>path:hover{stroke-width:8}</style>
<path fill="none" stroke="black" d="M316.3,-249.07C320.7,-234.38 320.72,-217.38 319.42,-203.15"/>
<polygon fill="#c24747" stroke="black" points="322.86,-202.41 318.22,-192.89 315.9,-203.23 322.86,-202.41"/>
<path fill="none" stroke="black" d="M119.8,-316.24C128.9,-313.07 138.34,-309.95 147.3,-307.28 223.15,-284.64 293.56,-326.89 316.3,-251.07"/>
</g>
<!-- srepkg_path_builders_builder_src_paths -->
<g id="node7" class="node">
<title>srepkg_path_builders_builder_src_paths</title><style>.edge>path:hover{stroke-width:8}</style>
<ellipse fill="#c24747" stroke="black" cx="222.3" cy="-336.27" rx="65.52" ry="28.98"/>
<text text-anchor="middle" x="222.3" y="-344.77" font-family="Helvetica,sans-Serif" font-size="10.00" fill="#ffffff">srepkg.</text>
<text text-anchor="middle" x="222.3" y="-333.77" font-family="Helvetica,sans-Serif" font-size="10.00" fill="#ffffff">path_builders.</text>
<text text-anchor="middle" x="222.3" y="-322.77" font-family="Helvetica,sans-Serif" font-size="10.00" fill="#ffffff">builder_src_paths</text>
</g>
<!-- srepkg_path_builders_builder_src_paths&#45;&gt;srepkg_path_calculator -->
<g id="edge9" class="edge">
<title>srepkg_path_builders_builder_src_paths&#45;&gt;srepkg_path_calculator</title><style>.edge>path:hover{stroke-width:8}</style>
<path fill="none" stroke="black" d="M263,-313.48C284.56,-299.14 308.21,-278.03 316.3,-251.07"/>
</g>
<!-- srepkg_path_builders_file_structures -->
<g id="node8" class="node">
<title>srepkg_path_builders_file_structures</title><style>.edge>path:hover{stroke-width:8}</style>
<ellipse fill="#ce3b3b" stroke="black" cx="417.3" cy="-430.25" rx="55.31" ry="28.98"/>
<text text-anchor="middle" x="417.3" y="-438.75" font-family="Helvetica,sans-Serif" font-size="10.00" fill="#ffffff">srepkg.</text>
<text text-anchor="middle" x="417.3" y="-427.75" font-family="Helvetica,sans-Serif" font-size="10.00" fill="#ffffff">path_builders.</text>
<text text-anchor="middle" x="417.3" y="-416.75" font-family="Helvetica,sans-Serif" font-size="10.00" fill="#ffffff">file_structures</text>
</g>
<!-- srepkg_path_builders_paths_class_builder -->
<g id="node9" class="node">
<title>srepkg_path_builders_paths_class_builder</title><style>.edge>path:hover{stroke-width:8}</style>
<ellipse fill="#b03a3a" stroke="black" cx="417.3" cy="-336.27" rx="72.66" ry="28.98"/>
<text text-anchor="middle" x="417.3" y="-344.77" font-family="Helvetica,sans-Serif" font-size="10.00" fill="#ffffff">srepkg.</text>
<text text-anchor="middle" x="417.3" y="-333.77" font-family="Helvetica,sans-Serif" font-size="10.00" fill="#ffffff">path_builders.</text>
<text text-anchor="middle" x="417.3" y="-322.77" font-family="Helvetica,sans-Serif" font-size="10.00" fill="#ffffff">paths_class_builder</text>
</g>
<!-- srepkg_path_builders_file_structures&#45;&gt;srepkg_path_builders_paths_class_builder -->
<g id="edge10" class="edge">
<title>srepkg_path_builders_file_structures&#45;&gt;srepkg_path_builders_paths_class_builder</title><style>.edge>path:hover{stroke-width:8}</style>
<path fill="none" stroke="black" d="M417.3,-401.16C417.3,-393.12 417.3,-384.22 417.3,-375.67"/>
<polygon fill="#ce3b3b" stroke="black" points="420.8,-375.51 417.3,-365.51 413.8,-375.51 420.8,-375.51"/>
</g>
<!-- srepkg_path_builders_file_structures&#45;&gt;srepkg_path_calculator -->
<g id="edge11" class="edge">
<title>srepkg_path_builders_file_structures&#45;&gt;srepkg_path_calculator</title><style>.edge>path:hover{stroke-width:8}</style>
<path fill="none" stroke="black" d="M379.73,-408.64C363.54,-397.84 345.91,-383.11 335.3,-365.26 309,-321.04 301.52,-300.35 316.3,-251.07"/>
</g>
<!-- srepkg_path_builders_paths_class_builder&#45;&gt;srepkg_path_calculator -->
<g id="edge12" class="edge">
<title>srepkg_path_builders_paths_class_builder&#45;&gt;srepkg_path_calculator</title><style>.edge>path:hover{stroke-width:8}</style>
<path fill="none" stroke="black" d="M364.36,-316.09C335.6,-302.07 307.51,-280.37 316.3,-251.07"/>
</g>
<!-- srepkg_path_calculator&#45;&gt;srepkg_app -->
<g id="edge13" class="edge">
<title>srepkg_path_calculator&#45;&gt;srepkg_app</title><style>.edge>path:hover{stroke-width:8}</style>
<path fill="none" stroke="black" d="M293.34,-151.66C279.61,-136.83 265.25,-115.29 271.3,-94.21"/>
</g>
<!-- srepkg_path_calculator&#45;&gt;srepkg_srepkg_builder -->
<g id="edge14" class="edge">
<title>srepkg_path_calculator&#45;&gt;srepkg_srepkg_builder</title><style>.edge>path:hover{stroke-width:8}</style>
<path fill="none" stroke="black" d="M325.33,-150.56C329.96,-142.13 335.43,-132.18 340.48,-123"/>
<polygon fill="#9b2626" stroke="black" points="343.59,-124.61 345.34,-114.16 337.45,-121.24 343.59,-124.61"/>
</g>
<!-- srepkg_srepkg_builder&#45;&gt;srepkg_app -->
<g id="edge15" class="edge">
<title>srepkg_srepkg_builder&#45;&gt;srepkg_app</title><style>.edge>path:hover{stroke-width:8}</style>
<path fill="none" stroke="black" d="M334.41,-73.36C322.9,-63.44 308.73,-51.24 296.73,-40.91"/>
<polygon fill="#a83838" stroke="black" points="298.69,-37.98 288.83,-34.1 294.12,-43.28 298.69,-37.98"/>
</g>
</g>
</svg>
