<?xml version="1.0" encoding="UTF-8" standalone="no"?>
<!DOCTYPE svg PUBLIC "-//W3C//DTD SVG 1.1//EN"
 "http://www.w3.org/Graphics/SVG/1.1/DTD/svg11.dtd">
<!-- Generated by graphviz version 3.0.0 (20220226.1711)
 -->
<!-- Title: G Pages: 1 -->
<svg width="618pt" height="467pt"
 viewBox="0.00 0.00 617.64 467.24" xmlns="http://www.w3.org/2000/svg" xmlns:xlink="http://www.w3.org/1999/xlink">
<g id="graph0" class="graph" transform="scale(1 1) rotate(0) translate(4 463.24)">
<title>G</title><style>.edge>path:hover{stroke-width:8}</style>
<polygon fill="white" stroke="transparent" points="-4,4 -4,-463.24 613.64,-463.24 613.64,4 -4,4"/>
<!-- srepkg_command_input -->
<g id="node1" class="node">
<title>srepkg_command_input</title><style>.edge>path:hover{stroke-width:8}</style>
<ellipse fill="#c24747" stroke="black" cx="60.81" cy="-93.21" rx="60.62" ry="21.43"/>
<text text-anchor="middle" x="60.81" y="-96.21" font-family="Helvetica,sans-Serif" font-size="10.00" fill="#ffffff">srepkg.</text>
<text text-anchor="middle" x="60.81" y="-85.21" font-family="Helvetica,sans-Serif" font-size="10.00" fill="#ffffff">command_input</text>
</g>
<!-- srepkg_srepkg -->
<g id="node10" class="node">
<title>srepkg_srepkg</title><style>.edge>path:hover{stroke-width:8}</style>
<ellipse fill="#964040" stroke="black" cx="191.81" cy="-18" rx="45.83" ry="18"/>
<text text-anchor="middle" x="191.81" y="-15.5" font-family="Helvetica,sans-Serif" font-size="10.00" fill="#ffffff">srepkg.srepkg</text>
</g>
<!-- srepkg_command_input&#45;&gt;srepkg_srepkg -->
<g id="edge1" class="edge">
<title>srepkg_command_input&#45;&gt;srepkg_srepkg</title><style>.edge>path:hover{stroke-width:8}</style>
<path fill="none" stroke="black" d="M91.86,-74.86C111.54,-63.86 137.03,-49.62 157.34,-38.27"/>
<polygon fill="#c24747" stroke="black" points="159.24,-41.21 166.27,-33.28 155.83,-35.1 159.24,-41.21"/>
</g>
<!-- srepkg_ep_console_script -->
<g id="node2" class="node">
<title>srepkg_ep_console_script</title><style>.edge>path:hover{stroke-width:8}</style>
<ellipse fill="#db2f2f" stroke="black" cx="232.81" cy="-250.07" rx="67.35" ry="21.43"/>
<text text-anchor="middle" x="232.81" y="-253.07" font-family="Helvetica,sans-Serif" font-size="10.00" fill="#ffffff">srepkg.</text>
<text text-anchor="middle" x="232.81" y="-242.07" font-family="Helvetica,sans-Serif" font-size="10.00" fill="#ffffff">ep_console_script</text>
</g>
<!-- srepkg_orig_pkg_inspector -->
<g id="node3" class="node">
<title>srepkg_orig_pkg_inspector</title><style>.edge>path:hover{stroke-width:8}</style>
<ellipse fill="#b83d3d" stroke="black" cx="135.81" cy="-171.64" rx="69.09" ry="21.43"/>
<text text-anchor="middle" x="135.81" y="-174.64" font-family="Helvetica,sans-Serif" font-size="10.00" fill="#ffffff">srepkg.</text>
<text text-anchor="middle" x="135.81" y="-163.64" font-family="Helvetica,sans-Serif" font-size="10.00" fill="#ffffff">orig_pkg_inspector</text>
</g>
<!-- srepkg_ep_console_script&#45;&gt;srepkg_orig_pkg_inspector -->
<g id="edge2" class="edge">
<title>srepkg_ep_console_script&#45;&gt;srepkg_orig_pkg_inspector</title><style>.edge>path:hover{stroke-width:8}</style>
<path fill="none" stroke="black" d="M208.83,-230.17C196.48,-220.44 181.23,-208.43 167.88,-197.91"/>
<polygon fill="#db2f2f" stroke="black" points="169.87,-195.02 159.85,-191.58 165.54,-200.52 169.87,-195.02"/>
</g>
<!-- srepkg_path_calculator -->
<g id="node9" class="node">
<title>srepkg_path_calculator</title><style>.edge>path:hover{stroke-width:8}</style>
<ellipse fill="#bc2f2f" stroke="black" cx="319.81" cy="-171.64" rx="58.88" ry="21.43"/>
<text text-anchor="middle" x="319.81" y="-174.64" font-family="Helvetica,sans-Serif" font-size="10.00" fill="#ffffff">srepkg.</text>
<text text-anchor="middle" x="319.81" y="-163.64" font-family="Helvetica,sans-Serif" font-size="10.00" fill="#ffffff">path_calculator</text>
</g>
<!-- srepkg_ep_console_script&#45;&gt;srepkg_path_calculator -->
<g id="edge3" class="edge">
<title>srepkg_ep_console_script&#45;&gt;srepkg_path_calculator</title><style>.edge>path:hover{stroke-width:8}</style>
<path fill="none" stroke="black" d="M254.76,-229.78C265.56,-220.3 278.73,-208.73 290.39,-198.49"/>
<polygon fill="#db2f2f" stroke="black" points="292.96,-200.88 298.17,-191.65 288.34,-195.62 292.96,-200.88"/>
</g>
<!-- srepkg_srepkg_builder -->
<g id="node11" class="node">
<title>srepkg_srepkg_builder</title><style>.edge>path:hover{stroke-width:8}</style>
<ellipse fill="#a83838" stroke="black" cx="234.81" cy="-93.21" rx="56.64" ry="21.43"/>
<text text-anchor="middle" x="234.81" y="-96.21" font-family="Helvetica,sans-Serif" font-size="10.00" fill="#ffffff">srepkg.</text>
<text text-anchor="middle" x="234.81" y="-85.21" font-family="Helvetica,sans-Serif" font-size="10.00" fill="#ffffff">srepkg_builder</text>
</g>
<!-- srepkg_ep_console_script&#45;&gt;srepkg_srepkg_builder -->
<g id="edge4" class="edge">
<title>srepkg_ep_console_script&#45;&gt;srepkg_srepkg_builder</title><style>.edge>path:hover{stroke-width:8}</style>
<path fill="none" stroke="black" d="M233.07,-228.82C233.42,-202.27 234.02,-155.46 234.42,-124.64"/>
<polygon fill="#db2f2f" stroke="black" points="237.92,-124.51 234.55,-114.46 230.92,-124.42 237.92,-124.51"/>
</g>
<!-- srepkg_orig_pkg_inspector&#45;&gt;srepkg_srepkg -->
<g id="edge5" class="edge">
<title>srepkg_orig_pkg_inspector&#45;&gt;srepkg_srepkg</title><style>.edge>path:hover{stroke-width:8}</style>
<path fill="none" stroke="black" d="M142.01,-150.43C148.29,-130.37 158.53,-98.81 168.81,-72 172.17,-63.25 176.14,-53.83 179.83,-45.39"/>
<polygon fill="#b83d3d" stroke="black" points="183.12,-46.59 183.97,-36.03 176.72,-43.75 183.12,-46.59"/>
</g>
<!-- srepkg_path_builders -->
<g id="node4" class="node">
<title>srepkg_path_builders</title><style>.edge>path:hover{stroke-width:8}</style>
<ellipse fill="#b81414" stroke="black" cx="388.81" cy="-250.07" rx="52.15" ry="21.43"/>
<text text-anchor="middle" x="388.81" y="-253.07" font-family="Helvetica,sans-Serif" font-size="10.00" fill="#ffffff">srepkg.</text>
<text text-anchor="middle" x="388.81" y="-242.07" font-family="Helvetica,sans-Serif" font-size="10.00" fill="#ffffff">path_builders</text>
</g>
<!-- srepkg_path_builders&#45;&gt;srepkg_path_calculator -->
<g id="edge6" class="edge">
<title>srepkg_path_builders&#45;&gt;srepkg_path_calculator</title><style>.edge>path:hover{stroke-width:8}</style>
<path fill="none" stroke="black" d="M371.4,-229.78C363.15,-220.64 353.15,-209.56 344.16,-199.61"/>
<polygon fill="#b81414" stroke="black" points="346.52,-197 337.22,-191.92 341.32,-201.69 346.52,-197"/>
</g>
<!-- srepkg_path_builders&#45;&gt;srepkg_srepkg_builder -->
<g id="edge7" class="edge">
<title>srepkg_path_builders&#45;&gt;srepkg_srepkg_builder</title><style>.edge>path:hover{stroke-width:8}</style>
<path fill="none" stroke="black" d="M394.79,-228.9C399.86,-207.4 404,-173.38 387.81,-150.43 367.7,-121.93 331.49,-107.84 299.35,-100.89"/>
<polygon fill="#b81414" stroke="black" points="300.01,-97.46 289.52,-98.96 298.66,-104.33 300.01,-97.46"/>
</g>
<!-- srepkg_path_builders_builder_dest_paths -->
<g id="node5" class="node">
<title>srepkg_path_builders_builder_dest_paths</title><style>.edge>path:hover{stroke-width:8}</style>
<ellipse fill="#c24747" stroke="black" cx="188.81" cy="-336.27" rx="69.09" ry="28.98"/>
<text text-anchor="middle" x="188.81" y="-344.77" font-family="Helvetica,sans-Serif" font-size="10.00" fill="#ffffff">srepkg.</text>
<text text-anchor="middle" x="188.81" y="-333.77" font-family="Helvetica,sans-Serif" font-size="10.00" fill="#ffffff">path_builders.</text>
<text text-anchor="middle" x="188.81" y="-322.77" font-family="Helvetica,sans-Serif" font-size="10.00" fill="#ffffff">builder_dest_paths</text>
</g>
<!-- srepkg_path_builders_builder_dest_paths&#45;&gt;srepkg_path_builders -->
<g id="edge8" class="edge">
<title>srepkg_path_builders_builder_dest_paths&#45;&gt;srepkg_path_builders</title><style>.edge>path:hover{stroke-width:8}</style>
<path fill="none" stroke="black" d="M236.46,-315.21C269.13,-301.45 312.18,-283.33 344.18,-269.86"/>
<polygon fill="#c24747" stroke="black" points="345.88,-272.94 353.73,-265.83 343.16,-266.49 345.88,-272.94"/>
</g>
<!-- srepkg_path_builders_builder_src_paths -->
<g id="node6" class="node">
<title>srepkg_path_builders_builder_src_paths</title><style>.edge>path:hover{stroke-width:8}</style>
<ellipse fill="#c24747" stroke="black" cx="341.81" cy="-336.27" rx="65.52" ry="28.98"/>
<text text-anchor="middle" x="341.81" y="-344.77" font-family="Helvetica,sans-Serif" font-size="10.00" fill="#ffffff">srepkg.</text>
<text text-anchor="middle" x="341.81" y="-333.77" font-family="Helvetica,sans-Serif" font-size="10.00" fill="#ffffff">path_builders.</text>
<text text-anchor="middle" x="341.81" y="-322.77" font-family="Helvetica,sans-Serif" font-size="10.00" fill="#ffffff">builder_src_paths</text>
</g>
<!-- srepkg_path_builders_builder_src_paths&#45;&gt;srepkg_path_builders -->
<g id="edge9" class="edge">
<title>srepkg_path_builders_builder_src_paths&#45;&gt;srepkg_path_builders</title><style>.edge>path:hover{stroke-width:8}</style>
<path fill="none" stroke="black" d="M357.2,-307.7C362.17,-298.8 367.69,-288.91 372.7,-279.92"/>
<polygon fill="#c24747" stroke="black" points="375.89,-281.4 377.71,-270.96 369.78,-277.98 375.89,-281.4"/>
</g>
<!-- srepkg_path_builders_file_structures -->
<g id="node7" class="node">
<title>srepkg_path_builders_file_structures</title><style>.edge>path:hover{stroke-width:8}</style>
<ellipse fill="#ce3b3b" stroke="black" cx="485.81" cy="-430.25" rx="55.31" ry="28.98"/>
<text text-anchor="middle" x="485.81" y="-438.75" font-family="Helvetica,sans-Serif" font-size="10.00" fill="#ffffff">srepkg.</text>
<text text-anchor="middle" x="485.81" y="-427.75" font-family="Helvetica,sans-Serif" font-size="10.00" fill="#ffffff">path_builders.</text>
<text text-anchor="middle" x="485.81" y="-416.75" font-family="Helvetica,sans-Serif" font-size="10.00" fill="#ffffff">file_structures</text>
</g>
<!-- srepkg_path_builders_file_structures&#45;&gt;srepkg_path_builders -->
<g id="edge10" class="edge">
<title>srepkg_path_builders_file_structures&#45;&gt;srepkg_path_builders</title><style>.edge>path:hover{stroke-width:8}</style>
<path fill="none" stroke="black" d="M471.08,-402.19C453.11,-369.17 422.85,-313.6 404.47,-279.83"/>
<polygon fill="#ce3b3b" stroke="black" points="407.47,-278.03 399.62,-270.92 401.33,-281.38 407.47,-278.03"/>
</g>
<!-- srepkg_path_builders_paths_class_builder -->
<g id="node8" class="node">
<title>srepkg_path_builders_paths_class_builder</title><style>.edge>path:hover{stroke-width:8}</style>
<ellipse fill="#b03a3a" stroke="black" cx="536.81" cy="-336.27" rx="72.66" ry="28.98"/>
<text text-anchor="middle" x="536.81" y="-344.77" font-family="Helvetica,sans-Serif" font-size="10.00" fill="#ffffff">srepkg.</text>
<text text-anchor="middle" x="536.81" y="-333.77" font-family="Helvetica,sans-Serif" font-size="10.00" fill="#ffffff">path_builders.</text>
<text text-anchor="middle" x="536.81" y="-322.77" font-family="Helvetica,sans-Serif" font-size="10.00" fill="#ffffff">paths_class_builder</text>
</g>
<!-- srepkg_path_builders_file_structures&#45;&gt;srepkg_path_builders_paths_class_builder -->
<g id="edge11" class="edge">
<title>srepkg_path_builders_file_structures&#45;&gt;srepkg_path_builders_paths_class_builder</title><style>.edge>path:hover{stroke-width:8}</style>
<path fill="none" stroke="black" d="M500.84,-402.15C505.78,-393.24 511.36,-383.18 516.62,-373.68"/>
<polygon fill="#ce3b3b" stroke="black" points="519.75,-375.26 521.54,-364.81 513.63,-371.86 519.75,-375.26"/>
</g>
<!-- srepkg_path_builders_paths_class_builder&#45;&gt;srepkg_path_builders -->
<g id="edge12" class="edge">
<title>srepkg_path_builders_paths_class_builder&#45;&gt;srepkg_path_builders</title><style>.edge>path:hover{stroke-width:8}</style>
<path fill="none" stroke="black" d="M495.98,-312.04C474.42,-299.77 448.12,-284.81 426.97,-272.78"/>
<polygon fill="#b03a3a" stroke="black" points="428.67,-269.72 418.25,-267.82 425.21,-275.8 428.67,-269.72"/>
</g>
<!-- srepkg_path_calculator&#45;&gt;srepkg_srepkg -->
<g id="edge13" class="edge">
<title>srepkg_path_calculator&#45;&gt;srepkg_srepkg</title><style>.edge>path:hover{stroke-width:8}</style>
<path fill="none" stroke="black" d="M320.96,-150.37C321.12,-128.79 318.22,-94.7 300.81,-72 285.7,-52.29 261.35,-39.49 239.49,-31.42"/>
<polygon fill="#bc2f2f" stroke="black" points="240.59,-28.09 229.99,-28.14 238.3,-34.71 240.59,-28.09"/>
</g>
<!-- srepkg_path_calculator&#45;&gt;srepkg_srepkg_builder -->
<g id="edge14" class="edge">
<title>srepkg_path_calculator&#45;&gt;srepkg_srepkg_builder</title><style>.edge>path:hover{stroke-width:8}</style>
<path fill="none" stroke="black" d="M298.8,-151.75C288.17,-142.19 275.12,-130.45 263.58,-120.08"/>
<polygon fill="#bc2f2f" stroke="black" points="265.65,-117.24 255.88,-113.15 260.97,-122.44 265.65,-117.24"/>
</g>
<!-- srepkg_srepkg_builder&#45;&gt;srepkg_srepkg -->
<g id="edge15" class="edge">
<title>srepkg_srepkg_builder&#45;&gt;srepkg_srepkg</title><style>.edge>path:hover{stroke-width:8}</style>
<path fill="none" stroke="black" d="M223.06,-72.21C218.12,-63.79 212.3,-53.88 207.03,-44.91"/>
<polygon fill="#a83838" stroke="black" points="209.88,-42.85 201.8,-36 203.84,-46.4 209.88,-42.85"/>
</g>
</g>
</svg>
