<?xml version="1.0" encoding="UTF-8" standalone="no"?>
<!DOCTYPE svg PUBLIC "-//W3C//DTD SVG 1.1//EN"
 "http://www.w3.org/Graphics/SVG/1.1/DTD/svg11.dtd">
<!-- Generated by graphviz version 3.0.0 (20220226.1711)
 -->
<!-- Title: G Pages: 1 -->
<svg width="584pt" height="561pt"
 viewBox="0.00 0.00 583.74 561.23" xmlns="http://www.w3.org/2000/svg" xmlns:xlink="http://www.w3.org/1999/xlink">
<g id="graph0" class="graph" transform="scale(1 1) rotate(0) translate(4 557.23)">
<title>G</title><style>.edge>path:hover{stroke-width:8}</style>
<polygon fill="white" stroke="transparent" points="-4,4 -4,-557.23 579.74,-557.23 579.74,4 -4,4"/>
<!-- setuptools -->
<g id="node1" class="node">
<title>setuptools</title><style>.edge>path:hover{stroke-width:8}</style>
<ellipse fill="#c04040" stroke="black" cx="100.3" cy="-336.27" rx="36.49" ry="18"/>
<text text-anchor="middle" x="100.3" y="-333.77" font-family="Helvetica,sans-Serif" font-size="10.00" fill="#ffffff">setuptools</text>
</g>
<!-- srepkg_setup_file_reader -->
<g id="node8" class="node">
<title>srepkg_setup_file_reader</title><style>.edge>path:hover{stroke-width:8}</style>
<ellipse fill="#3ab0b0" stroke="black" cx="100.3" cy="-171.64" rx="64.19" ry="21.43"/>
<text text-anchor="middle" x="100.3" y="-174.64" font-family="Helvetica,sans-Serif" font-size="10.00" fill="#000000">srepkg.</text>
<text text-anchor="middle" x="100.3" y="-163.64" font-family="Helvetica,sans-Serif" font-size="10.00" fill="#000000">setup_file_reader</text>
</g>
<!-- setuptools&#45;&gt;srepkg_setup_file_reader -->
<g id="edge1" class="edge">
<title>setuptools&#45;&gt;srepkg_setup_file_reader</title><style>.edge>path:hover{stroke-width:8}</style>
<path fill="none" stroke="black" d="M100.3,-318.17C100.3,-290.95 100.3,-237.34 100.3,-203.34"/>
<polygon fill="#c04040" stroke="black" points="103.8,-203.05 100.3,-193.05 96.8,-203.05 103.8,-203.05"/>
</g>
<!-- srepkg_command_input -->
<g id="node2" class="node">
<title>srepkg_command_input</title><style>.edge>path:hover{stroke-width:8}</style>
<ellipse fill="#47c2c2" stroke="black" cx="217.3" cy="-93.21" rx="60.62" ry="21.43"/>
<text text-anchor="middle" x="217.3" y="-96.21" font-family="Helvetica,sans-Serif" font-size="10.00" fill="#000000">srepkg.</text>
<text text-anchor="middle" x="217.3" y="-85.21" font-family="Helvetica,sans-Serif" font-size="10.00" fill="#000000">command_input</text>
</g>
<!-- srepkg_srepkg -->
<g id="node14" class="node">
<title>srepkg_srepkg</title><style>.edge>path:hover{stroke-width:8}</style>
<ellipse fill="#409696" stroke="black" cx="284.3" cy="-18" rx="45.83" ry="18"/>
<text text-anchor="middle" x="284.3" y="-15.5" font-family="Helvetica,sans-Serif" font-size="10.00" fill="#ffffff">srepkg.srepkg</text>
</g>
<!-- srepkg_command_input&#45;&gt;srepkg_srepkg -->
<g id="edge2" class="edge">
<title>srepkg_command_input&#45;&gt;srepkg_srepkg</title><style>.edge>path:hover{stroke-width:8}</style>
<path fill="none" stroke="black" d="M235.25,-72.59C243.69,-63.37 253.83,-52.3 262.69,-42.61"/>
<polygon fill="#47c2c2" stroke="black" points="265.29,-44.95 269.46,-35.21 260.13,-40.23 265.29,-44.95"/>
</g>
<!-- srepkg_orig_pkg_inspector -->
<g id="node3" class="node">
<title>srepkg_orig_pkg_inspector</title><style>.edge>path:hover{stroke-width:8}</style>
<ellipse fill="#3ab0b0" stroke="black" cx="69.3" cy="-93.21" rx="69.09" ry="21.43"/>
<text text-anchor="middle" x="69.3" y="-96.21" font-family="Helvetica,sans-Serif" font-size="10.00" fill="#000000">srepkg.</text>
<text text-anchor="middle" x="69.3" y="-85.21" font-family="Helvetica,sans-Serif" font-size="10.00" fill="#000000">orig_pkg_inspector</text>
</g>
<!-- srepkg_orig_pkg_inspector&#45;&gt;srepkg_srepkg -->
<g id="edge3" class="edge">
<title>srepkg_orig_pkg_inspector&#45;&gt;srepkg_srepkg</title><style>.edge>path:hover{stroke-width:8}</style>
<path fill="none" stroke="black" d="M114.11,-76.95C151.5,-64.22 204.45,-46.19 241.32,-33.63"/>
<polygon fill="#3ab0b0" stroke="black" points="242.46,-36.94 250.8,-30.41 240.2,-30.32 242.46,-36.94"/>
</g>
<!-- srepkg_path_builders -->
<g id="node4" class="node">
<title>srepkg_path_builders</title><style>.edge>path:hover{stroke-width:8}</style>
<ellipse fill="#21bfbf" stroke="black" cx="445.3" cy="-250.07" rx="52.15" ry="21.43"/>
<text text-anchor="middle" x="445.3" y="-253.07" font-family="Helvetica,sans-Serif" font-size="10.00" fill="#000000">srepkg.</text>
<text text-anchor="middle" x="445.3" y="-242.07" font-family="Helvetica,sans-Serif" font-size="10.00" fill="#000000">path_builders</text>
</g>
<!-- srepkg_path_calculator -->
<g id="node7" class="node">
<title>srepkg_path_calculator</title><style>.edge>path:hover{stroke-width:8}</style>
<ellipse fill="#3ab0b0" stroke="black" cx="437.3" cy="-171.64" rx="58.88" ry="21.43"/>
<text text-anchor="middle" x="437.3" y="-174.64" font-family="Helvetica,sans-Serif" font-size="10.00" fill="#000000">srepkg.</text>
<text text-anchor="middle" x="437.3" y="-163.64" font-family="Helvetica,sans-Serif" font-size="10.00" fill="#000000">path_calculator</text>
</g>
<!-- srepkg_path_builders&#45;&gt;srepkg_path_calculator -->
<g id="edge4" class="edge">
<title>srepkg_path_builders&#45;&gt;srepkg_path_calculator</title><style>.edge>path:hover{stroke-width:8}</style>
<path fill="none" stroke="black" d="M443.15,-228.59C442.33,-220.73 441.37,-211.58 440.47,-202.99"/>
<polygon fill="#21bfbf" stroke="black" points="443.94,-202.49 439.42,-192.91 436.98,-203.22 443.94,-202.49"/>
</g>
<!-- srepkg_path_builders_class_builder -->
<g id="node5" class="node">
<title>srepkg_path_builders_class_builder</title><style>.edge>path:hover{stroke-width:8}</style>
<ellipse fill="#3ab0b0" stroke="black" cx="521.3" cy="-336.27" rx="54.39" ry="28.98"/>
<text text-anchor="middle" x="521.3" y="-344.77" font-family="Helvetica,sans-Serif" font-size="10.00" fill="#000000">srepkg.</text>
<text text-anchor="middle" x="521.3" y="-333.77" font-family="Helvetica,sans-Serif" font-size="10.00" fill="#000000">path_builders.</text>
<text text-anchor="middle" x="521.3" y="-322.77" font-family="Helvetica,sans-Serif" font-size="10.00" fill="#000000">class_builder</text>
</g>
<!-- srepkg_path_builders_class_builder&#45;&gt;srepkg_path_builders -->
<g id="edge5" class="edge">
<title>srepkg_path_builders_class_builder&#45;&gt;srepkg_path_builders</title><style>.edge>path:hover{stroke-width:8}</style>
<path fill="none" stroke="black" d="M498.08,-309.55C488.97,-299.45 478.51,-287.86 469.32,-277.68"/>
<polygon fill="#3ab0b0" stroke="black" points="471.88,-275.29 462.58,-270.22 466.68,-279.98 471.88,-275.29"/>
</g>
<!-- srepkg_path_builders_file_structures -->
<g id="node6" class="node">
<title>srepkg_path_builders_file_structures</title><style>.edge>path:hover{stroke-width:8}</style>
<ellipse fill="#3bcece" stroke="black" cx="465.3" cy="-430.25" rx="55.31" ry="28.98"/>
<text text-anchor="middle" x="465.3" y="-438.75" font-family="Helvetica,sans-Serif" font-size="10.00" fill="#000000">srepkg.</text>
<text text-anchor="middle" x="465.3" y="-427.75" font-family="Helvetica,sans-Serif" font-size="10.00" fill="#000000">path_builders.</text>
<text text-anchor="middle" x="465.3" y="-416.75" font-family="Helvetica,sans-Serif" font-size="10.00" fill="#000000">file_structures</text>
</g>
<!-- srepkg_path_builders_file_structures&#45;&gt;srepkg_path_builders -->
<g id="edge6" class="edge">
<title>srepkg_path_builders_file_structures&#45;&gt;srepkg_path_builders</title><style>.edge>path:hover{stroke-width:8}</style>
<path fill="none" stroke="black" d="M462.13,-401.02C458.47,-368.43 452.48,-315.04 448.72,-281.54"/>
<polygon fill="#3bcece" stroke="black" points="452.17,-280.96 447.58,-271.41 445.22,-281.74 452.17,-280.96"/>
</g>
<!-- srepkg_path_builders_file_structures&#45;&gt;srepkg_path_builders_class_builder -->
<g id="edge7" class="edge">
<title>srepkg_path_builders_file_structures&#45;&gt;srepkg_path_builders_class_builder</title><style>.edge>path:hover{stroke-width:8}</style>
<path fill="none" stroke="black" d="M481.8,-402.15C487.38,-392.98 493.7,-382.6 499.62,-372.87"/>
<polygon fill="#3bcece" stroke="black" points="502.7,-374.54 504.92,-364.18 496.73,-370.9 502.7,-374.54"/>
</g>
<!-- srepkg_path_calculator&#45;&gt;srepkg_srepkg -->
<g id="edge8" class="edge">
<title>srepkg_path_calculator&#45;&gt;srepkg_srepkg</title><style>.edge>path:hover{stroke-width:8}</style>
<path fill="none" stroke="black" d="M438.77,-150.11C439.21,-128.31 436.55,-94.02 418.3,-72 398.01,-47.54 364.87,-34.3 336.62,-27.17"/>
<polygon fill="#3ab0b0" stroke="black" points="337.39,-23.76 326.86,-24.9 335.8,-30.58 337.39,-23.76"/>
</g>
<!-- srepkg_setup_file_reader&#45;&gt;srepkg_orig_pkg_inspector -->
<g id="edge9" class="edge">
<title>srepkg_setup_file_reader&#45;&gt;srepkg_orig_pkg_inspector</title><style>.edge>path:hover{stroke-width:8}</style>
<path fill="none" stroke="black" d="M92.15,-150.56C88.83,-142.37 84.93,-132.75 81.29,-123.79"/>
<polygon fill="#3ab0b0" stroke="black" points="84.5,-122.38 77.49,-114.42 78.01,-125.01 84.5,-122.38"/>
</g>
<!-- srepkg_shared_utils -->
<g id="node9" class="node">
<title>srepkg_shared_utils</title><style>.edge>path:hover{stroke-width:8}</style>
<ellipse fill="#05dbdb" stroke="black" cx="326.3" cy="-250.07" rx="48.58" ry="21.43"/>
<text text-anchor="middle" x="326.3" y="-253.07" font-family="Helvetica,sans-Serif" font-size="10.00" fill="#000000">srepkg.</text>
<text text-anchor="middle" x="326.3" y="-242.07" font-family="Helvetica,sans-Serif" font-size="10.00" fill="#000000">shared_utils</text>
</g>
<!-- srepkg_shared_utils&#45;&gt;srepkg_orig_pkg_inspector -->
<g id="edge10" class="edge">
<title>srepkg_shared_utils&#45;&gt;srepkg_orig_pkg_inspector</title><style>.edge>path:hover{stroke-width:8}</style>
<path fill="none" stroke="black" d="M342.3,-170.64C340.1,-165.66 210.53,-131.06 130.71,-110.16"/>
<polygon fill="#05dbdb" stroke="black" points="131.31,-106.7 120.75,-107.55 129.54,-113.47 131.31,-106.7"/>
<path fill="none" stroke="black" d="M336.91,-229.21C343.88,-213.36 350.35,-190.87 342.3,-172.64"/>
</g>
<!-- srepkg_shared_utils&#45;&gt;srepkg_path_calculator -->
<g id="edge11" class="edge">
<title>srepkg_shared_utils&#45;&gt;srepkg_path_calculator</title><style>.edge>path:hover{stroke-width:8}</style>
<path fill="none" stroke="black" d="M351.48,-231.72C366.63,-221.3 386.11,-207.88 402.69,-196.47"/>
<polygon fill="#05dbdb" stroke="black" points="404.8,-199.26 411.05,-190.71 400.83,-193.5 404.8,-199.26"/>
</g>
<!-- srepkg_shared_utils&#45;&gt;srepkg_setup_file_reader -->
<g id="edge12" class="edge">
<title>srepkg_shared_utils&#45;&gt;srepkg_setup_file_reader</title><style>.edge>path:hover{stroke-width:8}</style>
<path fill="none" stroke="black" d="M288.72,-236.36C251.77,-223.86 195.02,-204.67 153.45,-190.61"/>
<polygon fill="#05dbdb" stroke="black" points="154.36,-187.23 143.76,-187.34 152.11,-193.86 154.36,-187.23"/>
</g>
<!-- srepkg_srepkg_builder -->
<g id="node15" class="node">
<title>srepkg_srepkg_builder</title><style>.edge>path:hover{stroke-width:8}</style>
<ellipse fill="#3db8b8" stroke="black" cx="352.3" cy="-93.21" rx="56.64" ry="21.43"/>
<text text-anchor="middle" x="352.3" y="-96.21" font-family="Helvetica,sans-Serif" font-size="10.00" fill="#000000">srepkg.</text>
<text text-anchor="middle" x="352.3" y="-85.21" font-family="Helvetica,sans-Serif" font-size="10.00" fill="#000000">srepkg_builder</text>
</g>
<!-- srepkg_shared_utils&#45;&gt;srepkg_srepkg_builder -->
<g id="edge13" class="edge">
<title>srepkg_shared_utils&#45;&gt;srepkg_srepkg_builder</title><style>.edge>path:hover{stroke-width:8}</style>
<path fill="none" stroke="black" d="M342.3,-170.64C335.95,-156.26 337.53,-138.98 341.1,-124.49"/>
<polygon fill="#05dbdb" stroke="black" points="344.57,-125.1 343.97,-114.52 337.84,-123.16 344.57,-125.1"/>
</g>
<!-- srepkg_shared_utils_builder_dest_paths -->
<g id="node10" class="node">
<title>srepkg_shared_utils_builder_dest_paths</title><style>.edge>path:hover{stroke-width:8}</style>
<ellipse fill="#47c2c2" stroke="black" cx="230.3" cy="-524.24" rx="69.09" ry="28.98"/>
<text text-anchor="middle" x="230.3" y="-532.74" font-family="Helvetica,sans-Serif" font-size="10.00" fill="#000000">srepkg.</text>
<text text-anchor="middle" x="230.3" y="-521.74" font-family="Helvetica,sans-Serif" font-size="10.00" fill="#000000">shared_utils.</text>
<text text-anchor="middle" x="230.3" y="-510.74" font-family="Helvetica,sans-Serif" font-size="10.00" fill="#000000">builder_dest_paths</text>
</g>
<!-- srepkg_shared_utils_named_tuples -->
<g id="node13" class="node">
<title>srepkg_shared_utils_named_tuples</title><style>.edge>path:hover{stroke-width:8}</style>
<ellipse fill="#2db4b4" stroke="black" cx="306.3" cy="-430.25" rx="54.39" ry="28.98"/>
<text text-anchor="middle" x="306.3" y="-438.75" font-family="Helvetica,sans-Serif" font-size="10.00" fill="#000000">srepkg.</text>
<text text-anchor="middle" x="306.3" y="-427.75" font-family="Helvetica,sans-Serif" font-size="10.00" fill="#000000">shared_utils.</text>
<text text-anchor="middle" x="306.3" y="-416.75" font-family="Helvetica,sans-Serif" font-size="10.00" fill="#000000">named_tuples</text>
</g>
<!-- srepkg_shared_utils_builder_dest_paths&#45;&gt;srepkg_shared_utils_named_tuples -->
<g id="edge14" class="edge">
<title>srepkg_shared_utils_builder_dest_paths&#45;&gt;srepkg_shared_utils_named_tuples</title><style>.edge>path:hover{stroke-width:8}</style>
<path fill="none" stroke="black" d="M252.28,-496.63C260.45,-486.74 269.84,-475.38 278.47,-464.93"/>
<polygon fill="#47c2c2" stroke="black" points="281.22,-467.1 284.89,-457.16 275.82,-462.64 281.22,-467.1"/>
</g>
<!-- srepkg_shared_utils_builder_src_paths -->
<g id="node11" class="node">
<title>srepkg_shared_utils_builder_src_paths</title><style>.edge>path:hover{stroke-width:8}</style>
<ellipse fill="#47c2c2" stroke="black" cx="383.3" cy="-524.24" rx="65.52" ry="28.98"/>
<text text-anchor="middle" x="383.3" y="-532.74" font-family="Helvetica,sans-Serif" font-size="10.00" fill="#000000">srepkg.</text>
<text text-anchor="middle" x="383.3" y="-521.74" font-family="Helvetica,sans-Serif" font-size="10.00" fill="#000000">shared_utils.</text>
<text text-anchor="middle" x="383.3" y="-510.74" font-family="Helvetica,sans-Serif" font-size="10.00" fill="#000000">builder_src_paths</text>
</g>
<!-- srepkg_shared_utils_builder_src_paths&#45;&gt;srepkg_shared_utils_named_tuples -->
<g id="edge15" class="edge">
<title>srepkg_shared_utils_builder_src_paths&#45;&gt;srepkg_shared_utils_named_tuples</title><style>.edge>path:hover{stroke-width:8}</style>
<path fill="none" stroke="black" d="M361.02,-496.63C352.74,-486.74 343.23,-475.38 334.49,-464.93"/>
<polygon fill="#47c2c2" stroke="black" points="337.09,-462.59 327.99,-457.16 331.72,-467.08 337.09,-462.59"/>
</g>
<!-- srepkg_shared_utils_ep_console_script -->
<g id="node12" class="node">
<title>srepkg_shared_utils_ep_console_script</title><style>.edge>path:hover{stroke-width:8}</style>
<ellipse fill="#3ab0b0" stroke="black" cx="332.3" cy="-336.27" rx="67.35" ry="28.98"/>
<text text-anchor="middle" x="332.3" y="-344.77" font-family="Helvetica,sans-Serif" font-size="10.00" fill="#000000">srepkg.</text>
<text text-anchor="middle" x="332.3" y="-333.77" font-family="Helvetica,sans-Serif" font-size="10.00" fill="#000000">shared_utils.</text>
<text text-anchor="middle" x="332.3" y="-322.77" font-family="Helvetica,sans-Serif" font-size="10.00" fill="#000000">ep_console_script</text>
</g>
<!-- srepkg_shared_utils_ep_console_script&#45;&gt;srepkg_shared_utils -->
<g id="edge16" class="edge">
<title>srepkg_shared_utils_ep_console_script&#45;&gt;srepkg_shared_utils</title><style>.edge>path:hover{stroke-width:8}</style>
<path fill="none" stroke="black" d="M330.3,-307.23C329.71,-299.02 329.07,-290.01 328.48,-281.65"/>
<polygon fill="#3ab0b0" stroke="black" points="331.96,-281.25 327.75,-271.53 324.97,-281.75 331.96,-281.25"/>
</g>
<!-- srepkg_shared_utils_named_tuples&#45;&gt;srepkg_shared_utils -->
<g id="edge17" class="edge">
<title>srepkg_shared_utils_named_tuples&#45;&gt;srepkg_shared_utils</title><style>.edge>path:hover{stroke-width:8}</style>
<path fill="none" stroke="black" d="M280.72,-404.56C271.11,-393.55 261.3,-379.79 256.3,-365.26 247.91,-340.9 245.15,-330.52 256.3,-307.28 263.03,-293.23 275.18,-281.59 287.48,-272.61"/>
<polygon fill="#2db4b4" stroke="black" points="289.67,-275.35 295.96,-266.82 285.73,-269.57 289.67,-275.35"/>
</g>
<!-- srepkg_shared_utils_named_tuples&#45;&gt;srepkg_shared_utils_ep_console_script -->
<g id="edge18" class="edge">
<title>srepkg_shared_utils_named_tuples&#45;&gt;srepkg_shared_utils_ep_console_script</title><style>.edge>path:hover{stroke-width:8}</style>
<path fill="none" stroke="black" d="M314.24,-401.16C316.58,-392.86 319.19,-383.65 321.67,-374.87"/>
<polygon fill="#2db4b4" stroke="black" points="325.05,-375.77 324.4,-365.2 318.31,-373.87 325.05,-375.77"/>
</g>
<!-- srepkg_srepkg_builder&#45;&gt;srepkg_srepkg -->
<g id="edge19" class="edge">
<title>srepkg_srepkg_builder&#45;&gt;srepkg_srepkg</title><style>.edge>path:hover{stroke-width:8}</style>
<path fill="none" stroke="black" d="M334.43,-72.98C325.86,-63.75 315.51,-52.61 306.45,-42.85"/>
<polygon fill="#3db8b8" stroke="black" points="308.88,-40.32 299.51,-35.38 303.75,-45.09 308.88,-40.32"/>
</g>
</g>
</svg>
