<?xml version="1.0" encoding="UTF-8" standalone="no"?>
<!DOCTYPE svg PUBLIC "-//W3C//DTD SVG 1.1//EN"
 "http://www.w3.org/Graphics/SVG/1.1/DTD/svg11.dtd">
<!-- Generated by graphviz version 3.0.0 (20220226.1711)
 -->
<!-- Title: G Pages: 1 -->
<svg width="627pt" height="389pt"
 viewBox="0.00 0.00 626.75 388.82" xmlns="http://www.w3.org/2000/svg" xmlns:xlink="http://www.w3.org/1999/xlink">
<g id="graph0" class="graph" transform="scale(1 1) rotate(0) translate(4 384.82)">
<title>G</title><style>.edge>path:hover{stroke-width:8}</style>
<polygon fill="white" stroke="transparent" points="-4,4 -4,-384.82 622.75,-384.82 622.75,4 -4,4"/>
<!-- srepkg_command_input -->
<g id="node1" class="node">
<title>srepkg_command_input</title><style>.edge>path:hover{stroke-width:8}</style>
<ellipse fill="#c24747" stroke="black" cx="391.5" cy="-100.99" rx="60.62" ry="21.43"/>
<text text-anchor="middle" x="391.5" y="-103.99" font-family="Helvetica,sans-Serif" font-size="10.00" fill="#ffffff">srepkg.</text>
<text text-anchor="middle" x="391.5" y="-92.99" font-family="Helvetica,sans-Serif" font-size="10.00" fill="#ffffff">command_input</text>
</g>
<!-- srepkg_srepkg -->
<g id="node10" class="node">
<title>srepkg_srepkg</title><style>.edge>path:hover{stroke-width:8}</style>
<ellipse fill="#a44646" stroke="black" cx="328.5" cy="-18" rx="45.83" ry="18"/>
<text text-anchor="middle" x="328.5" y="-15.5" font-family="Helvetica,sans-Serif" font-size="10.00" fill="#ffffff">srepkg.srepkg</text>
</g>
<!-- srepkg_command_input&#45;&gt;srepkg_srepkg -->
<g id="edge1" class="edge">
<title>srepkg_command_input&#45;&gt;srepkg_srepkg</title><style>.edge>path:hover{stroke-width:8}</style>
<path fill="none" stroke="black" d="M376.25,-80.39C367.64,-69.31 356.79,-55.36 347.61,-43.56"/>
<polygon fill="#c24747" stroke="black" points="350.18,-41.17 341.28,-35.42 344.66,-45.47 350.18,-41.17"/>
</g>
<!-- srepkg_entry_points_builder -->
<g id="node2" class="node">
<title>srepkg_entry_points_builder</title><style>.edge>path:hover{stroke-width:8}</style>
<ellipse fill="#c04040" stroke="black" cx="288.5" cy="-265.62" rx="73.58" ry="21.43"/>
<text text-anchor="middle" x="288.5" y="-268.62" font-family="Helvetica,sans-Serif" font-size="10.00" fill="#ffffff">srepkg.</text>
<text text-anchor="middle" x="288.5" y="-257.62" font-family="Helvetica,sans-Serif" font-size="10.00" fill="#ffffff">entry_points_builder</text>
</g>
<!-- srepkg_srepkg_builder -->
<g id="node11" class="node">
<title>srepkg_srepkg_builder</title><style>.edge>path:hover{stroke-width:8}</style>
<ellipse fill="#b83d3d" stroke="black" cx="281.5" cy="-187.2" rx="56.64" ry="21.43"/>
<text text-anchor="middle" x="281.5" y="-190.2" font-family="Helvetica,sans-Serif" font-size="10.00" fill="#ffffff">srepkg.</text>
<text text-anchor="middle" x="281.5" y="-179.2" font-family="Helvetica,sans-Serif" font-size="10.00" fill="#ffffff">srepkg_builder</text>
</g>
<!-- srepkg_entry_points_builder&#45;&gt;srepkg_srepkg_builder -->
<g id="edge2" class="edge">
<title>srepkg_entry_points_builder&#45;&gt;srepkg_srepkg_builder</title><style>.edge>path:hover{stroke-width:8}</style>
<path fill="none" stroke="black" d="M286.63,-244.14C285.91,-236.28 285.07,-227.14 284.28,-218.55"/>
<polygon fill="#c04040" stroke="black" points="287.76,-218.11 283.36,-208.47 280.79,-218.75 287.76,-218.11"/>
</g>
<!-- srepkg_file_structure -->
<g id="node3" class="node">
<title>srepkg_file_structure</title><style>.edge>path:hover{stroke-width:8}</style>
<ellipse fill="#bf2121" stroke="black" cx="494.5" cy="-265.62" rx="51.74" ry="21.43"/>
<text text-anchor="middle" x="494.5" y="-268.62" font-family="Helvetica,sans-Serif" font-size="10.00" fill="#ffffff">srepkg.</text>
<text text-anchor="middle" x="494.5" y="-257.62" font-family="Helvetica,sans-Serif" font-size="10.00" fill="#ffffff">file_structure</text>
</g>
<!-- srepkg_path_calculator -->
<g id="node7" class="node">
<title>srepkg_path_calculator</title><style>.edge>path:hover{stroke-width:8}</style>
<ellipse fill="#b83d3d" stroke="black" cx="443.5" cy="-187.2" rx="58.88" ry="21.43"/>
<text text-anchor="middle" x="443.5" y="-190.2" font-family="Helvetica,sans-Serif" font-size="10.00" fill="#ffffff">srepkg.</text>
<text text-anchor="middle" x="443.5" y="-179.2" font-family="Helvetica,sans-Serif" font-size="10.00" fill="#ffffff">path_calculator</text>
</g>
<!-- srepkg_file_structure&#45;&gt;srepkg_path_calculator -->
<g id="edge3" class="edge">
<title>srepkg_file_structure&#45;&gt;srepkg_path_calculator</title><style>.edge>path:hover{stroke-width:8}</style>
<path fill="none" stroke="black" d="M481.37,-244.94C475.59,-236.27 468.68,-225.92 462.36,-216.45"/>
<polygon fill="#bf2121" stroke="black" points="465.23,-214.45 456.77,-208.08 459.41,-218.34 465.23,-214.45"/>
</g>
<!-- srepkg_paths_class_builder_builder -->
<g id="node8" class="node">
<title>srepkg_paths_class_builder_builder</title><style>.edge>path:hover{stroke-width:8}</style>
<ellipse fill="#ac4949" stroke="black" cx="544.5" cy="-100.99" rx="74.49" ry="28.98"/>
<text text-anchor="middle" x="544.5" y="-109.49" font-family="Helvetica,sans-Serif" font-size="10.00" fill="#ffffff">srepkg.</text>
<text text-anchor="middle" x="544.5" y="-98.49" font-family="Helvetica,sans-Serif" font-size="10.00" fill="#ffffff">paths_class_builder.</text>
<text text-anchor="middle" x="544.5" y="-87.49" font-family="Helvetica,sans-Serif" font-size="10.00" fill="#ffffff">builder</text>
</g>
<!-- srepkg_file_structure&#45;&gt;srepkg_paths_class_builder_builder -->
<g id="edge4" class="edge">
<title>srepkg_file_structure&#45;&gt;srepkg_paths_class_builder_builder</title><style>.edge>path:hover{stroke-width:8}</style>
<path fill="none" stroke="black" d="M500.74,-244.35C508.78,-218.19 522.93,-172.17 532.96,-139.54"/>
<polygon fill="#bf2121" stroke="black" points="536.34,-140.47 535.93,-129.88 529.65,-138.41 536.34,-140.47"/>
</g>
<!-- srepkg_file_structure_fs_specs -->
<g id="node4" class="node">
<title>srepkg_file_structure_fs_specs</title><style>.edge>path:hover{stroke-width:8}</style>
<ellipse fill="#c24747" stroke="black" cx="431.5" cy="-351.83" rx="53.98" ry="28.98"/>
<text text-anchor="middle" x="431.5" y="-360.33" font-family="Helvetica,sans-Serif" font-size="10.00" fill="#ffffff">srepkg.</text>
<text text-anchor="middle" x="431.5" y="-349.33" font-family="Helvetica,sans-Serif" font-size="10.00" fill="#ffffff">file_structure.</text>
<text text-anchor="middle" x="431.5" y="-338.33" font-family="Helvetica,sans-Serif" font-size="10.00" fill="#ffffff">fs_specs</text>
</g>
<!-- srepkg_file_structure_fs_specs&#45;&gt;srepkg_file_structure -->
<g id="edge5" class="edge">
<title>srepkg_file_structure_fs_specs&#45;&gt;srepkg_file_structure</title><style>.edge>path:hover{stroke-width:8}</style>
<path fill="none" stroke="black" d="M451.09,-324.65C458.3,-315.01 466.48,-304.07 473.79,-294.31"/>
<polygon fill="#c24747" stroke="black" points="476.75,-296.2 479.93,-286.1 471.14,-292.01 476.75,-296.2"/>
</g>
<!-- srepkg_file_structure_fs_util -->
<g id="node5" class="node">
<title>srepkg_file_structure_fs_util</title><style>.edge>path:hover{stroke-width:8}</style>
<ellipse fill="#c24747" stroke="black" cx="556.5" cy="-351.83" rx="53.98" ry="28.98"/>
<text text-anchor="middle" x="556.5" y="-360.33" font-family="Helvetica,sans-Serif" font-size="10.00" fill="#ffffff">srepkg.</text>
<text text-anchor="middle" x="556.5" y="-349.33" font-family="Helvetica,sans-Serif" font-size="10.00" fill="#ffffff">file_structure.</text>
<text text-anchor="middle" x="556.5" y="-338.33" font-family="Helvetica,sans-Serif" font-size="10.00" fill="#ffffff">fs_util</text>
</g>
<!-- srepkg_file_structure_fs_util&#45;&gt;srepkg_file_structure -->
<g id="edge6" class="edge">
<title>srepkg_file_structure_fs_util&#45;&gt;srepkg_file_structure</title><style>.edge>path:hover{stroke-width:8}</style>
<path fill="none" stroke="black" d="M537.23,-324.65C530.13,-315.01 522.08,-304.07 514.89,-294.31"/>
<polygon fill="#c24747" stroke="black" points="517.59,-292.08 508.84,-286.1 511.95,-296.23 517.59,-292.08"/>
</g>
<!-- srepkg_orig_pkg_inspector -->
<g id="node6" class="node">
<title>srepkg_orig_pkg_inspector</title><style>.edge>path:hover{stroke-width:8}</style>
<ellipse fill="#a83838" stroke="black" cx="131.5" cy="-187.2" rx="69.09" ry="21.43"/>
<text text-anchor="middle" x="131.5" y="-190.2" font-family="Helvetica,sans-Serif" font-size="10.00" fill="#ffffff">srepkg.</text>
<text text-anchor="middle" x="131.5" y="-179.2" font-family="Helvetica,sans-Serif" font-size="10.00" fill="#ffffff">orig_pkg_inspector</text>
</g>
<!-- srepkg_repackager -->
<g id="node9" class="node">
<title>srepkg_repackager</title><style>.edge>path:hover{stroke-width:8}</style>
<ellipse fill="#a83838" stroke="black" cx="266.5" cy="-100.99" rx="45.92" ry="21.43"/>
<text text-anchor="middle" x="266.5" y="-103.99" font-family="Helvetica,sans-Serif" font-size="10.00" fill="#ffffff">srepkg.</text>
<text text-anchor="middle" x="266.5" y="-92.99" font-family="Helvetica,sans-Serif" font-size="10.00" fill="#ffffff">repackager</text>
</g>
<!-- srepkg_orig_pkg_inspector&#45;&gt;srepkg_repackager -->
<g id="edge7" class="edge">
<title>srepkg_orig_pkg_inspector&#45;&gt;srepkg_repackager</title><style>.edge>path:hover{stroke-width:8}</style>
<path fill="none" stroke="black" d="M160.8,-167.92C181.52,-155 209.4,-137.61 231.32,-123.93"/>
<polygon fill="#a83838" stroke="black" points="233.38,-126.78 240.01,-118.51 229.68,-120.84 233.38,-126.78"/>
</g>
<!-- srepkg_path_calculator&#45;&gt;srepkg_repackager -->
<g id="edge8" class="edge">
<title>srepkg_path_calculator&#45;&gt;srepkg_repackager</title><style>.edge>path:hover{stroke-width:8}</style>
<path fill="none" stroke="black" d="M407.83,-170.2C383.41,-159.15 350.36,-143.97 321.5,-129.98 316.19,-127.41 310.62,-124.65 305.14,-121.9"/>
<polygon fill="#b83d3d" stroke="black" points="306.59,-118.7 296.08,-117.31 303.43,-124.95 306.59,-118.7"/>
</g>
<!-- srepkg_repackager&#45;&gt;srepkg_srepkg -->
<g id="edge9" class="edge">
<title>srepkg_repackager&#45;&gt;srepkg_srepkg</title><style>.edge>path:hover{stroke-width:8}</style>
<path fill="none" stroke="black" d="M281.2,-80.8C289.73,-69.66 300.56,-55.51 309.7,-43.56"/>
<polygon fill="#a83838" stroke="black" points="312.71,-45.39 316.01,-35.32 307.15,-41.14 312.71,-45.39"/>
</g>
<!-- srepkg_srepkg_builder&#45;&gt;srepkg_repackager -->
<g id="edge10" class="edge">
<title>srepkg_srepkg_builder&#45;&gt;srepkg_repackager</title><style>.edge>path:hover{stroke-width:8}</style>
<path fill="none" stroke="black" d="M277.87,-165.81C276.09,-155.78 273.9,-143.48 271.92,-132.37"/>
<polygon fill="#b83d3d" stroke="black" points="275.3,-131.42 270.1,-122.19 268.41,-132.65 275.3,-131.42"/>
</g>
<!-- srepkg_utils -->
<g id="node12" class="node">
<title>srepkg_utils</title><style>.edge>path:hover{stroke-width:8}</style>
<ellipse fill="#c24747" stroke="black" cx="119.5" cy="-265.62" rx="39.38" ry="18"/>
<text text-anchor="middle" x="119.5" y="-263.12" font-family="Helvetica,sans-Serif" font-size="10.00" fill="#ffffff">srepkg.utils</text>
</g>
<!-- srepkg_utils&#45;&gt;srepkg_orig_pkg_inspector -->
<g id="edge11" class="edge">
<title>srepkg_utils&#45;&gt;srepkg_orig_pkg_inspector</title><style>.edge>path:hover{stroke-width:8}</style>
<path fill="none" stroke="black" d="M122.17,-247.66C123.51,-239.11 125.18,-228.48 126.73,-218.58"/>
<polygon fill="#c24747" stroke="black" points="130.2,-219.06 128.29,-208.64 123.29,-217.98 130.2,-219.06"/>
</g>
<!-- srepkg_utils_cd_context_manager -->
<g id="node13" class="node">
<title>srepkg_utils_cd_context_manager</title><style>.edge>path:hover{stroke-width:8}</style>
<ellipse fill="#c24747" stroke="black" cx="186.5" cy="-351.83" rx="75.82" ry="28.98"/>
<text text-anchor="middle" x="186.5" y="-360.33" font-family="Helvetica,sans-Serif" font-size="10.00" fill="#ffffff">srepkg.</text>
<text text-anchor="middle" x="186.5" y="-349.33" font-family="Helvetica,sans-Serif" font-size="10.00" fill="#ffffff">utils.</text>
<text text-anchor="middle" x="186.5" y="-338.33" font-family="Helvetica,sans-Serif" font-size="10.00" fill="#ffffff">cd_context_manager</text>
</g>
<!-- srepkg_utils_cd_context_manager&#45;&gt;srepkg_orig_pkg_inspector -->
<g id="edge12" class="edge">
<title>srepkg_utils_cd_context_manager&#45;&gt;srepkg_orig_pkg_inspector</title><style>.edge>path:hover{stroke-width:8}</style>
<path fill="none" stroke="black" d="M184.48,-322.45C182.2,-300.52 177.42,-269.75 167.5,-244.41 163.74,-234.8 158.24,-225.07 152.66,-216.47"/>
<polygon fill="#c24747" stroke="black" points="155.41,-214.28 146.9,-207.97 149.61,-218.21 155.41,-214.28"/>
</g>
<!-- wheel_inspect -->
<g id="node14" class="node">
<title>wheel_inspect</title><style>.edge>path:hover{stroke-width:8}</style>
<ellipse fill="#53b6b6" stroke="black" cx="46.5" cy="-351.83" rx="46.51" ry="18"/>
<text text-anchor="middle" x="46.5" y="-349.33" font-family="Helvetica,sans-Serif" font-size="10.00" fill="#000000">wheel_inspect</text>
</g>
<!-- wheel_inspect&#45;&gt;srepkg_orig_pkg_inspector -->
<g id="edge13" class="edge">
<title>wheel_inspect&#45;&gt;srepkg_orig_pkg_inspector</title><style>.edge>path:hover{stroke-width:8}</style>
<path fill="none" stroke="black" d="M47.5,-333.48C49.43,-311.44 55.07,-272.83 71.5,-244.41 78.16,-232.9 87.91,-222.33 97.62,-213.54"/>
<polygon fill="#53b6b6" stroke="black" points="100.06,-216.06 105.35,-206.88 95.49,-210.76 100.06,-216.06"/>
</g>
</g>
</svg>
