<?xml version="1.0" encoding="UTF-8" standalone="no"?>
<!DOCTYPE svg PUBLIC "-//W3C//DTD SVG 1.1//EN"
 "http://www.w3.org/Graphics/SVG/1.1/DTD/svg11.dtd">
<!-- Generated by graphviz version 3.0.0 (20220226.1711)
 -->
<!-- Title: G Pages: 1 -->
<svg width="1169pt" height="646pt"
 viewBox="0.00 0.00 1168.71 645.54" xmlns="http://www.w3.org/2000/svg" xmlns:xlink="http://www.w3.org/1999/xlink">
<g id="graph0" class="graph" transform="scale(1 1) rotate(0) translate(4 641.54)">
<title>G</title><style>.edge>path:hover{stroke-width:8}</style>
<polygon fill="white" stroke="transparent" points="-4,4 -4,-641.54 1164.71,-641.54 1164.71,4 -4,4"/>
<!-- custom_datatypes -->
<g id="node1" class="node">
<title>custom_datatypes</title><style>.edge>path:hover{stroke-width:8}</style>
<ellipse fill="#ef0606" stroke="black" cx="642" cy="-537.9" rx="57.2" ry="18"/>
<text text-anchor="middle" x="642" y="-535.4" font-family="Helvetica,sans-Serif" font-size="10.00" fill="#ffffff">custom_datatypes</text>
</g>
<!-- srepkg_archive_retriever -->
<g id="node10" class="node">
<title>srepkg_archive_retriever</title><style>.edge>path:hover{stroke-width:8}</style>
<ellipse fill="#964096" stroke="black" cx="244" cy="-422.48" rx="62.87" ry="21.43"/>
<text text-anchor="middle" x="244" y="-425.48" font-family="Helvetica,sans-Serif" font-size="10.00" fill="#ffffff">srepkg.</text>
<text text-anchor="middle" x="244" y="-414.48" font-family="Helvetica,sans-Serif" font-size="10.00" fill="#ffffff">archive_retriever</text>
</g>
<!-- custom_datatypes&#45;&gt;srepkg_archive_retriever -->
<g id="edge1" class="edge">
<title>custom_datatypes&#45;&gt;srepkg_archive_retriever</title><style>.edge>path:hover{stroke-width:8}</style>
<path fill="none" stroke="black" d="M601.52,-525.12C591.56,-522.29 580.91,-519.33 571,-516.69 506.84,-499.6 487.38,-506.01 426,-480.69"/>
<path fill="none" stroke="black" d="M426,-479.69C385.76,-463.09 338.79,-448.7 302.64,-438.64"/>
<polygon fill="#ef0606" stroke="black" points="303.32,-435.19 292.75,-435.91 301.46,-441.94 303.32,-435.19"/>
</g>
<!-- srepkg_entry_points_builder -->
<g id="node12" class="node">
<title>srepkg_entry_points_builder</title><style>.edge>path:hover{stroke-width:8}</style>
<ellipse fill="#a838a8" stroke="black" cx="927" cy="-422.48" rx="73.58" ry="21.43"/>
<text text-anchor="middle" x="927" y="-425.48" font-family="Helvetica,sans-Serif" font-size="10.00" fill="#ffffff">srepkg.</text>
<text text-anchor="middle" x="927" y="-414.48" font-family="Helvetica,sans-Serif" font-size="10.00" fill="#ffffff">entry_points_builder</text>
</g>
<!-- custom_datatypes&#45;&gt;srepkg_entry_points_builder -->
<g id="edge2" class="edge">
<title>custom_datatypes&#45;&gt;srepkg_entry_points_builder</title><style>.edge>path:hover{stroke-width:8}</style>
<path fill="none" stroke="black" d="M676.09,-523.33C725.78,-503.56 818.43,-466.68 876.18,-443.7"/>
<polygon fill="#ef0606" stroke="black" points="877.49,-446.95 885.49,-440 874.9,-440.44 877.49,-446.95"/>
</g>
<!-- srepkg_file_structure_fs_specs -->
<g id="node14" class="node">
<title>srepkg_file_structure_fs_specs</title><style>.edge>path:hover{stroke-width:8}</style>
<ellipse fill="#b83db8" stroke="black" cx="613" cy="-336.27" rx="53.98" ry="28.98"/>
<text text-anchor="middle" x="613" y="-344.77" font-family="Helvetica,sans-Serif" font-size="10.00" fill="#ffffff">srepkg.</text>
<text text-anchor="middle" x="613" y="-333.77" font-family="Helvetica,sans-Serif" font-size="10.00" fill="#ffffff">file_structure.</text>
<text text-anchor="middle" x="613" y="-322.77" font-family="Helvetica,sans-Serif" font-size="10.00" fill="#ffffff">fs_specs</text>
</g>
<!-- custom_datatypes&#45;&gt;srepkg_file_structure_fs_specs -->
<g id="edge3" class="edge">
<title>custom_datatypes&#45;&gt;srepkg_file_structure_fs_specs</title><style>.edge>path:hover{stroke-width:8}</style>
<path fill="none" stroke="black" d="M613,-421.48C618.79,-407.2 619.82,-390.4 619.01,-375.58"/>
<polygon fill="#ef0606" stroke="black" points="622.47,-374.88 618.15,-365.2 615.49,-375.46 622.47,-374.88"/>
</g>
<!-- srepkg_file_structure_fs_util -->
<g id="node15" class="node">
<title>srepkg_file_structure_fs_util</title><style>.edge>path:hover{stroke-width:8}</style>
<ellipse fill="#b83db8" stroke="black" cx="738" cy="-336.27" rx="53.98" ry="28.98"/>
<text text-anchor="middle" x="738" y="-344.77" font-family="Helvetica,sans-Serif" font-size="10.00" fill="#ffffff">srepkg.</text>
<text text-anchor="middle" x="738" y="-333.77" font-family="Helvetica,sans-Serif" font-size="10.00" fill="#ffffff">file_structure.</text>
<text text-anchor="middle" x="738" y="-322.77" font-family="Helvetica,sans-Serif" font-size="10.00" fill="#ffffff">fs_util</text>
</g>
<!-- custom_datatypes&#45;&gt;srepkg_file_structure_fs_util -->
<g id="edge4" class="edge">
<title>custom_datatypes&#45;&gt;srepkg_file_structure_fs_util</title><style>.edge>path:hover{stroke-width:8}</style>
<path fill="none" stroke="black" d="M613,-421.48C620.06,-404.08 658.49,-379.72 690.89,-361.68"/>
<polygon fill="#ef0606" stroke="black" points="692.76,-364.65 699.84,-356.77 689.39,-358.51 692.76,-364.65"/>
</g>
<!-- srepkg_orig_pkg_inspector -->
<g id="node16" class="node">
<title>srepkg_orig_pkg_inspector</title><style>.edge>path:hover{stroke-width:8}</style>
<ellipse fill="#b03ab0" stroke="black" cx="434" cy="-336.27" rx="69.09" ry="21.43"/>
<text text-anchor="middle" x="434" y="-339.27" font-family="Helvetica,sans-Serif" font-size="10.00" fill="#ffffff">srepkg.</text>
<text text-anchor="middle" x="434" y="-328.27" font-family="Helvetica,sans-Serif" font-size="10.00" fill="#ffffff">orig_pkg_inspector</text>
</g>
<!-- custom_datatypes&#45;&gt;srepkg_orig_pkg_inspector -->
<g id="edge5" class="edge">
<title>custom_datatypes&#45;&gt;srepkg_orig_pkg_inspector</title><style>.edge>path:hover{stroke-width:8}</style>
<path fill="none" stroke="black" d="M624.98,-520.56C589.1,-486.13 505.42,-405.82 461.71,-363.87"/>
<polygon fill="#ef0606" stroke="black" points="463.93,-361.14 454.29,-356.74 459.08,-366.19 463.93,-361.14"/>
</g>
<!-- srepkg_path_calculator -->
<g id="node17" class="node">
<title>srepkg_path_calculator</title><style>.edge>path:hover{stroke-width:8}</style>
<ellipse fill="#993399" stroke="black" cx="676" cy="-171.64" rx="58.88" ry="21.43"/>
<text text-anchor="middle" x="676" y="-174.64" font-family="Helvetica,sans-Serif" font-size="10.00" fill="#ffffff">srepkg.</text>
<text text-anchor="middle" x="676" y="-163.64" font-family="Helvetica,sans-Serif" font-size="10.00" fill="#ffffff">path_calculator</text>
</g>
<!-- custom_datatypes&#45;&gt;srepkg_path_calculator -->
<g id="edge6" class="edge">
<title>custom_datatypes&#45;&gt;srepkg_path_calculator</title><style>.edge>path:hover{stroke-width:8}</style>
<path fill="none" stroke="black" d="M626.36,-520.15C618.2,-509.45 610.41,-494.95 613,-480.69"/>
<path fill="none" stroke="black" d="M613,-421.48C632.64,-373.07 538.35,-388.99 531,-337.27"/>
<path fill="none" stroke="black" d="M613,-479.69C617.47,-455.11 603.61,-446.63 613,-423.48"/>
</g>
<!-- srepkg_setup_file_reader -->
<g id="node19" class="node">
<title>srepkg_setup_file_reader</title><style>.edge>path:hover{stroke-width:8}</style>
<ellipse fill="#b83db8" stroke="black" cx="407" cy="-422.48" rx="64.19" ry="21.43"/>
<text text-anchor="middle" x="407" y="-425.48" font-family="Helvetica,sans-Serif" font-size="10.00" fill="#ffffff">srepkg.</text>
<text text-anchor="middle" x="407" y="-414.48" font-family="Helvetica,sans-Serif" font-size="10.00" fill="#ffffff">setup_file_reader</text>
</g>
<!-- custom_datatypes&#45;&gt;srepkg_setup_file_reader -->
<g id="edge7" class="edge">
<title>custom_datatypes&#45;&gt;srepkg_setup_file_reader</title><style>.edge>path:hover{stroke-width:8}</style>
<path fill="none" stroke="black" d="M426,-479.69C415.72,-475.45 410.73,-464.79 408.4,-453.88"/>
<polygon fill="#ef0606" stroke="black" points="411.86,-453.34 406.93,-443.96 404.93,-454.37 411.86,-453.34"/>
</g>
<!-- srepkg_srepkg_builder -->
<g id="node21" class="node">
<title>srepkg_srepkg_builder</title><style>.edge>path:hover{stroke-width:8}</style>
<ellipse fill="#913091" stroke="black" cx="905" cy="-336.27" rx="56.64" ry="21.43"/>
<text text-anchor="middle" x="905" y="-339.27" font-family="Helvetica,sans-Serif" font-size="10.00" fill="#ffffff">srepkg.</text>
<text text-anchor="middle" x="905" y="-328.27" font-family="Helvetica,sans-Serif" font-size="10.00" fill="#ffffff">srepkg_builder</text>
</g>
<!-- custom_datatypes&#45;&gt;srepkg_srepkg_builder -->
<g id="edge8" class="edge">
<title>custom_datatypes&#45;&gt;srepkg_srepkg_builder</title><style>.edge>path:hover{stroke-width:8}</style>
<path fill="none" stroke="black" d="M613,-421.48C623.11,-396.57 644.35,-409.29 670,-401.26 678.76,-398.52 783.69,-370.07 850.34,-352.04"/>
<polygon fill="#ef0606" stroke="black" points="851.55,-355.34 860.29,-349.35 849.72,-348.59 851.55,-355.34"/>
</g>
<!-- srepkg_venv_controller -->
<g id="node22" class="node">
<title>srepkg_venv_controller</title><style>.edge>path:hover{stroke-width:8}</style>
<ellipse fill="#b83db8" stroke="black" cx="738" cy="-422.48" rx="58.88" ry="21.43"/>
<text text-anchor="middle" x="738" y="-425.48" font-family="Helvetica,sans-Serif" font-size="10.00" fill="#ffffff">srepkg.</text>
<text text-anchor="middle" x="738" y="-414.48" font-family="Helvetica,sans-Serif" font-size="10.00" fill="#ffffff">venv_controller</text>
</g>
<!-- custom_datatypes&#45;&gt;srepkg_venv_controller -->
<g id="edge9" class="edge">
<title>custom_datatypes&#45;&gt;srepkg_venv_controller</title><style>.edge>path:hover{stroke-width:8}</style>
<path fill="none" stroke="black" d="M613,-479.69C617.96,-452.37 644.37,-438.28 671.64,-431.03"/>
<polygon fill="#ef0606" stroke="black" points="672.76,-434.36 681.68,-428.66 671.15,-427.55 672.76,-434.36"/>
</g>
<!-- custom_datatypes_builder_dest_paths -->
<g id="node2" class="node">
<title>custom_datatypes_builder_dest_paths</title><style>.edge>path:hover{stroke-width:8}</style>
<ellipse fill="#ce3b3b" stroke="black" cx="1090" cy="-537.9" rx="70.92" ry="21.43"/>
<text text-anchor="middle" x="1090" y="-540.9" font-family="Helvetica,sans-Serif" font-size="10.00" fill="#ffffff">custom_datatypes.</text>
<text text-anchor="middle" x="1090" y="-529.9" font-family="Helvetica,sans-Serif" font-size="10.00" fill="#ffffff">builder_dest_paths</text>
</g>
<!-- custom_datatypes_builder_dest_paths&#45;&gt;srepkg_entry_points_builder -->
<g id="edge10" class="edge">
<title>custom_datatypes_builder_dest_paths&#45;&gt;srepkg_entry_points_builder</title><style>.edge>path:hover{stroke-width:8}</style>
<path fill="none" stroke="black" d="M1049.4,-520.3C1029.97,-510.86 1007.42,-497.53 991,-480.69"/>
</g>
<!-- custom_datatypes_builder_dest_paths&#45;&gt;srepkg_path_calculator -->
<g id="edge11" class="edge">
<title>custom_datatypes_builder_dest_paths&#45;&gt;srepkg_path_calculator</title><style>.edge>path:hover{stroke-width:8}</style>
<path fill="none" stroke="black" d="M1067,-421.48C1034.96,-363.42 1024.65,-346.24 971,-307.28 917.08,-268.13 888.94,-285.69 832,-251.07"/>
</g>
<!-- custom_datatypes_builder_dest_paths&#45;&gt;srepkg_srepkg_builder -->
<g id="edge12" class="edge">
<title>custom_datatypes_builder_dest_paths&#45;&gt;srepkg_srepkg_builder</title><style>.edge>path:hover{stroke-width:8}</style>
<path fill="none" stroke="black" d="M1067,-421.48C1050.8,-380.59 1004.58,-359.29 965.63,-348.35"/>
<polygon fill="#ce3b3b" stroke="black" points="966.47,-344.95 955.91,-345.79 964.69,-351.72 966.47,-344.95"/>
<path fill="none" stroke="black" d="M1088.07,-516.62C1085.38,-493.44 1079.36,-454.67 1067,-423.48"/>
</g>
<!-- custom_datatypes_builder_src_paths -->
<g id="node3" class="node">
<title>custom_datatypes_builder_src_paths</title><style>.edge>path:hover{stroke-width:8}</style>
<ellipse fill="#ce3b3b" stroke="black" cx="826" cy="-537.9" rx="70.92" ry="21.43"/>
<text text-anchor="middle" x="826" y="-540.9" font-family="Helvetica,sans-Serif" font-size="10.00" fill="#ffffff">custom_datatypes.</text>
<text text-anchor="middle" x="826" y="-529.9" font-family="Helvetica,sans-Serif" font-size="10.00" fill="#ffffff">builder_src_paths</text>
</g>
<!-- custom_datatypes_builder_src_paths&#45;&gt;srepkg_entry_points_builder -->
<g id="edge13" class="edge">
<title>custom_datatypes_builder_src_paths&#45;&gt;srepkg_entry_points_builder</title><style>.edge>path:hover{stroke-width:8}</style>
<path fill="none" stroke="black" d="M825,-479.69C831.52,-462 846.82,-449.74 863.64,-441.3"/>
<polygon fill="#ce3b3b" stroke="black" points="865.45,-444.32 873.1,-436.99 862.54,-437.95 865.45,-444.32"/>
</g>
<!-- custom_datatypes_builder_src_paths&#45;&gt;srepkg_path_calculator -->
<g id="edge14" class="edge">
<title>custom_datatypes_builder_src_paths&#45;&gt;srepkg_path_calculator</title><style>.edge>path:hover{stroke-width:8}</style>
<path fill="none" stroke="black" d="M825,-421.48C828.86,-402.92 848.04,-261.16 832,-251.07"/>
<path fill="none" stroke="black" d="M825,-479.69C833.64,-456.25 819.05,-447.74 825,-423.48"/>
<path fill="none" stroke="black" d="M822.14,-516.54C820.92,-505.59 820.81,-492.04 825,-480.69"/>
<path fill="none" stroke="black" d="M832,-249.07C796.39,-227.41 753.76,-206.86 722.07,-192.54"/>
<polygon fill="#ce3b3b" stroke="black" points="723.17,-189.19 712.61,-188.3 720.3,-195.58 723.17,-189.19"/>
</g>
<!-- custom_datatypes_builder_src_paths&#45;&gt;srepkg_srepkg_builder -->
<g id="edge15" class="edge">
<title>custom_datatypes_builder_src_paths&#45;&gt;srepkg_srepkg_builder</title><style>.edge>path:hover{stroke-width:8}</style>
<path fill="none" stroke="black" d="M825,-421.48C830.17,-396.65 849.56,-375.9 867.95,-361.21"/>
<polygon fill="#ce3b3b" stroke="black" points="870.43,-363.72 876.28,-354.89 866.2,-358.14 870.43,-363.72"/>
</g>
<!-- custom_datatypes_named_tuples -->
<g id="node4" class="node">
<title>custom_datatypes_named_tuples</title><style>.edge>path:hover{stroke-width:8}</style>
<ellipse fill="#f91010" stroke="black" cx="684" cy="-616.33" rx="70.92" ry="21.43"/>
<text text-anchor="middle" x="684" y="-619.33" font-family="Helvetica,sans-Serif" font-size="10.00" fill="#ffffff">custom_datatypes.</text>
<text text-anchor="middle" x="684" y="-608.33" font-family="Helvetica,sans-Serif" font-size="10.00" fill="#ffffff">named_tuples</text>
</g>
<!-- custom_datatypes_named_tuples&#45;&gt;custom_datatypes -->
<g id="edge16" class="edge">
<title>custom_datatypes_named_tuples&#45;&gt;custom_datatypes</title><style>.edge>path:hover{stroke-width:8}</style>
<path fill="none" stroke="black" d="M672.96,-595.25C667.84,-585.93 661.7,-574.74 656.23,-564.8"/>
<polygon fill="#f91010" stroke="black" points="659.14,-562.83 651.26,-555.75 653.01,-566.2 659.14,-562.83"/>
</g>
<!-- custom_datatypes_named_tuples&#45;&gt;srepkg_entry_points_builder -->
<g id="edge17" class="edge">
<title>custom_datatypes_named_tuples&#45;&gt;srepkg_entry_points_builder</title><style>.edge>path:hover{stroke-width:8}</style>
<path fill="none" stroke="black" d="M747.57,-606.87C826.8,-595.11 956.08,-571.52 991,-538.9"/>
<path fill="none" stroke="black" d="M991,-536.9C1009.26,-519.85 1008.45,-498.57 991,-480.69"/>
<path fill="none" stroke="black" d="M991,-479.69C980.88,-469.31 969.13,-458.64 958.47,-449.42"/>
<polygon fill="#f91010" stroke="black" points="960.47,-446.52 950.59,-442.68 955.92,-451.84 960.47,-446.52"/>
</g>
<!-- custom_datatypes_named_tuples&#45;&gt;srepkg_file_structure_fs_specs -->
<g id="edge18" class="edge">
<title>custom_datatypes_named_tuples&#45;&gt;srepkg_file_structure_fs_specs</title><style>.edge>path:hover{stroke-width:8}</style>
<path fill="none" stroke="black" d="M557,-536.9C518.15,-488.42 557.14,-414.56 586.68,-371.59"/>
<polygon fill="#f91010" stroke="black" points="589.71,-373.35 592.62,-363.16 583.99,-369.32 589.71,-373.35"/>
</g>
<!-- custom_datatypes_named_tuples&#45;&gt;srepkg_file_structure_fs_util -->
<g id="edge19" class="edge">
<title>custom_datatypes_named_tuples&#45;&gt;srepkg_file_structure_fs_util</title><style>.edge>path:hover{stroke-width:8}</style>
<path fill="none" stroke="black" d="M727,-536.9C724.76,-471.55 644.06,-461.29 670,-401.26 675.85,-387.73 686.12,-375.74 696.94,-365.9"/>
<polygon fill="#f91010" stroke="black" points="699.53,-368.29 704.85,-359.12 694.98,-362.97 699.53,-368.29"/>
<path fill="none" stroke="black" d="M700.6,-595.47C711.37,-580.87 723.94,-559.99 727,-538.9"/>
</g>
<!-- custom_datatypes_named_tuples&#45;&gt;srepkg_path_calculator -->
<g id="edge20" class="edge">
<title>custom_datatypes_named_tuples&#45;&gt;srepkg_path_calculator</title><style>.edge>path:hover{stroke-width:8}</style>
<path fill="none" stroke="black" d="M531,-335.27C522.02,-272.07 587.88,-221.53 633.82,-194.41"/>
<polygon fill="#f91010" stroke="black" points="635.79,-197.32 642.72,-189.31 632.3,-191.25 635.79,-197.32"/>
<path fill="none" stroke="black" d="M557,-536.9C512.69,-493.33 530.89,-339.65 531,-337.27"/>
<path fill="none" stroke="black" d="M644.39,-598.64C623.1,-588.73 596.98,-575 576,-559.11 566.17,-551.67 564.71,-548.52 557,-538.9"/>
</g>
<!-- custom_datatypes_named_tuples&#45;&gt;srepkg_srepkg_builder -->
<g id="edge21" class="edge">
<title>custom_datatypes_named_tuples&#45;&gt;srepkg_srepkg_builder</title><style>.edge>path:hover{stroke-width:8}</style>
<path fill="none" stroke="black" d="M991,-536.9C1035.48,-495.34 1039.81,-454.34 1010,-401.26 998.16,-380.18 976.25,-365.23 955.5,-355.11"/>
<polygon fill="#f91010" stroke="black" points="956.94,-351.92 946.39,-350.93 954.02,-358.29 956.94,-351.92"/>
</g>
<!-- custom_datatypes_named_tuples&#45;&gt;srepkg_venv_controller -->
<g id="edge22" class="edge">
<title>custom_datatypes_named_tuples&#45;&gt;srepkg_venv_controller</title><style>.edge>path:hover{stroke-width:8}</style>
<path fill="none" stroke="black" d="M727,-536.9C725.86,-508.74 729.4,-476.8 732.76,-454.01"/>
<polygon fill="#f91010" stroke="black" points="736.25,-454.34 734.32,-443.92 729.33,-453.26 736.25,-454.34"/>
</g>
<!-- git -->
<g id="node5" class="node">
<title>git</title><style>.edge>path:hover{stroke-width:8}</style>
<ellipse fill="#bfc040" stroke="black" cx="27" cy="-537.9" rx="27" ry="18"/>
<text text-anchor="middle" x="27" y="-535.4" font-family="Helvetica,sans-Serif" font-size="10.00" fill="#000000">git</text>
</g>
<!-- git&#45;&gt;srepkg_archive_retriever -->
<g id="edge23" class="edge">
<title>git&#45;&gt;srepkg_archive_retriever</title><style>.edge>path:hover{stroke-width:8}</style>
<path fill="none" stroke="black" d="M207,-479.69C213.33,-470.85 219.94,-461.02 225.8,-452.08"/>
<polygon fill="#bfc040" stroke="black" points="228.85,-453.8 231.36,-443.5 222.98,-449.99 228.85,-453.8"/>
<path fill="none" stroke="black" d="M45.96,-525.01C51.33,-521.99 57.27,-518.97 63,-516.69 124.31,-492.32 168.59,-534.32 207,-480.69"/>
</g>
<!-- packaging -->
<g id="node6" class="node">
<title>packaging</title><style>.edge>path:hover{stroke-width:8}</style>
<ellipse fill="#53b653" stroke="black" cx="108" cy="-537.9" rx="35.82" ry="18"/>
<text text-anchor="middle" x="108" y="-535.4" font-family="Helvetica,sans-Serif" font-size="10.00" fill="#000000">packaging</text>
</g>
<!-- packaging&#45;&gt;srepkg_archive_retriever -->
<g id="edge24" class="edge">
<title>packaging&#45;&gt;srepkg_archive_retriever</title><style>.edge>path:hover{stroke-width:8}</style>
<path fill="none" stroke="black" d="M133.99,-525.22C160.05,-512.99 197.62,-493.78 207,-480.69"/>
</g>
<!-- packaging_version -->
<g id="node7" class="node">
<title>packaging_version</title><style>.edge>path:hover{stroke-width:8}</style>
<ellipse fill="#53b653" stroke="black" cx="207" cy="-537.9" rx="45.01" ry="21.43"/>
<text text-anchor="middle" x="207" y="-540.9" font-family="Helvetica,sans-Serif" font-size="10.00" fill="#000000">packaging.</text>
<text text-anchor="middle" x="207" y="-529.9" font-family="Helvetica,sans-Serif" font-size="10.00" fill="#000000">version</text>
</g>
<!-- packaging_version&#45;&gt;srepkg_archive_retriever -->
<g id="edge25" class="edge">
<title>packaging_version&#45;&gt;srepkg_archive_retriever</title><style>.edge>path:hover{stroke-width:8}</style>
<path fill="none" stroke="black" d="M201.59,-516.68C199.73,-505.12 199.67,-490.92 207,-480.69"/>
</g>
<!-- requests -->
<g id="node8" class="node">
<title>requests</title><style>.edge>path:hover{stroke-width:8}</style>
<ellipse fill="#40bfc0" stroke="black" cx="302" cy="-537.9" rx="31.58" ry="18"/>
<text text-anchor="middle" x="302" y="-535.4" font-family="Helvetica,sans-Serif" font-size="10.00" fill="#000000">requests</text>
</g>
<!-- requests&#45;&gt;srepkg_archive_retriever -->
<g id="edge26" class="edge">
<title>requests&#45;&gt;srepkg_archive_retriever</title><style>.edge>path:hover{stroke-width:8}</style>
<path fill="none" stroke="black" d="M279.25,-524.87C250.37,-509.4 204.55,-484.12 207,-480.69"/>
</g>
<!-- setuptools -->
<g id="node9" class="node">
<title>setuptools</title><style>.edge>path:hover{stroke-width:8}</style>
<ellipse fill="#4040c0" stroke="black" cx="388" cy="-537.9" rx="36.49" ry="18"/>
<text text-anchor="middle" x="388" y="-535.4" font-family="Helvetica,sans-Serif" font-size="10.00" fill="#ffffff">setuptools</text>
</g>
<!-- setuptools&#45;&gt;srepkg_setup_file_reader -->
<g id="edge27" class="edge">
<title>setuptools&#45;&gt;srepkg_setup_file_reader</title><style>.edge>path:hover{stroke-width:8}</style>
<path fill="none" stroke="black" d="M390.89,-519.67C393.8,-502.29 398.36,-475.06 401.89,-454.01"/>
<polygon fill="#4040c0" stroke="black" points="405.37,-454.38 403.57,-443.94 398.47,-453.23 405.37,-454.38"/>
</g>
<!-- srepkg_command_input -->
<g id="node11" class="node">
<title>srepkg_command_input</title><style>.edge>path:hover{stroke-width:8}</style>
<ellipse fill="#c247c2" stroke="black" cx="551" cy="-93.21" rx="60.62" ry="21.43"/>
<text text-anchor="middle" x="551" y="-96.21" font-family="Helvetica,sans-Serif" font-size="10.00" fill="#ffffff">srepkg.</text>
<text text-anchor="middle" x="551" y="-85.21" font-family="Helvetica,sans-Serif" font-size="10.00" fill="#ffffff">command_input</text>
</g>
<!-- srepkg_srepkg -->
<g id="node20" class="node">
<title>srepkg_srepkg</title><style>.edge>path:hover{stroke-width:8}</style>
<ellipse fill="#a446a4" stroke="black" cx="613" cy="-18" rx="45.83" ry="18"/>
<text text-anchor="middle" x="613" y="-15.5" font-family="Helvetica,sans-Serif" font-size="10.00" fill="#ffffff">srepkg.srepkg</text>
</g>
<!-- srepkg_command_input&#45;&gt;srepkg_srepkg -->
<g id="edge28" class="edge">
<title>srepkg_command_input&#45;&gt;srepkg_srepkg</title><style>.edge>path:hover{stroke-width:8}</style>
<path fill="none" stroke="black" d="M567.61,-72.59C575.35,-63.46 584.62,-52.51 592.76,-42.9"/>
<polygon fill="#c247c2" stroke="black" points="595.48,-45.1 599.27,-35.21 590.14,-40.58 595.48,-45.1"/>
</g>
<!-- srepkg_entry_points_builder&#45;&gt;srepkg_srepkg_builder -->
<g id="edge29" class="edge">
<title>srepkg_entry_points_builder&#45;&gt;srepkg_srepkg_builder</title><style>.edge>path:hover{stroke-width:8}</style>
<path fill="none" stroke="black" d="M921.67,-401.09C919.03,-390.96 915.77,-378.51 912.85,-367.3"/>
<polygon fill="#a838a8" stroke="black" points="916.19,-366.26 910.28,-357.47 909.42,-368.03 916.19,-366.26"/>
</g>
<!-- srepkg_file_structure -->
<g id="node13" class="node">
<title>srepkg_file_structure</title><style>.edge>path:hover{stroke-width:8}</style>
<ellipse fill="#b42db4" stroke="black" cx="676" cy="-250.07" rx="51.74" ry="21.43"/>
<text text-anchor="middle" x="676" y="-253.07" font-family="Helvetica,sans-Serif" font-size="10.00" fill="#ffffff">srepkg.</text>
<text text-anchor="middle" x="676" y="-242.07" font-family="Helvetica,sans-Serif" font-size="10.00" fill="#ffffff">file_structure</text>
</g>
<!-- srepkg_file_structure&#45;&gt;srepkg_path_calculator -->
<g id="edge30" class="edge">
<title>srepkg_file_structure&#45;&gt;srepkg_path_calculator</title><style>.edge>path:hover{stroke-width:8}</style>
<path fill="none" stroke="black" d="M676,-228.59C676,-220.73 676,-211.58 676,-202.99"/>
<polygon fill="#b42db4" stroke="black" points="679.5,-202.91 676,-192.91 672.5,-202.91 679.5,-202.91"/>
</g>
<!-- srepkg_file_structure_fs_specs&#45;&gt;srepkg_file_structure -->
<g id="edge31" class="edge">
<title>srepkg_file_structure_fs_specs&#45;&gt;srepkg_file_structure</title><style>.edge>path:hover{stroke-width:8}</style>
<path fill="none" stroke="black" d="M632.59,-309.09C639.8,-299.46 647.98,-288.52 655.28,-278.76"/>
<polygon fill="#b83db8" stroke="black" points="658.24,-280.65 661.43,-270.54 652.64,-276.45 658.24,-280.65"/>
</g>
<!-- srepkg_file_structure_fs_util&#45;&gt;srepkg_file_structure -->
<g id="edge32" class="edge">
<title>srepkg_file_structure_fs_util&#45;&gt;srepkg_file_structure</title><style>.edge>path:hover{stroke-width:8}</style>
<path fill="none" stroke="black" d="M718.72,-309.09C711.63,-299.46 703.58,-288.52 696.39,-278.76"/>
<polygon fill="#b83db8" stroke="black" points="699.09,-276.52 690.34,-270.54 693.45,-280.67 699.09,-276.52"/>
</g>
<!-- srepkg_repackager -->
<g id="node18" class="node">
<title>srepkg_repackager</title><style>.edge>path:hover{stroke-width:8}</style>
<ellipse fill="#a838a8" stroke="black" cx="676" cy="-93.21" rx="45.92" ry="21.43"/>
<text text-anchor="middle" x="676" y="-96.21" font-family="Helvetica,sans-Serif" font-size="10.00" fill="#ffffff">srepkg.</text>
<text text-anchor="middle" x="676" y="-85.21" font-family="Helvetica,sans-Serif" font-size="10.00" fill="#ffffff">repackager</text>
</g>
<!-- srepkg_orig_pkg_inspector&#45;&gt;srepkg_repackager -->
<g id="edge33" class="edge">
<title>srepkg_orig_pkg_inspector&#45;&gt;srepkg_repackager</title><style>.edge>path:hover{stroke-width:8}</style>
<path fill="none" stroke="black" d="M447.9,-315.1C463.57,-292.97 490.34,-256.85 517,-228.85 553.82,-190.19 567.2,-184.87 608,-150.43 620.46,-139.91 634.31,-128.42 646.25,-118.59"/>
<polygon fill="#b03ab0" stroke="black" points="648.66,-121.13 654.16,-112.07 644.22,-115.73 648.66,-121.13"/>
</g>
<!-- srepkg_path_calculator&#45;&gt;srepkg_repackager -->
<g id="edge34" class="edge">
<title>srepkg_path_calculator&#45;&gt;srepkg_repackager</title><style>.edge>path:hover{stroke-width:8}</style>
<path fill="none" stroke="black" d="M676,-150.16C676,-142.3 676,-133.16 676,-124.57"/>
<polygon fill="#993399" stroke="black" points="679.5,-124.49 676,-114.49 672.5,-124.49 679.5,-124.49"/>
</g>
<!-- srepkg_repackager&#45;&gt;srepkg_srepkg -->
<g id="edge35" class="edge">
<title>srepkg_repackager&#45;&gt;srepkg_srepkg</title><style>.edge>path:hover{stroke-width:8}</style>
<path fill="none" stroke="black" d="M659.78,-73.36C651.91,-64.22 642.38,-53.14 633.97,-43.37"/>
<polygon fill="#a838a8" stroke="black" points="636.41,-40.84 627.24,-35.55 631.11,-45.41 636.41,-40.84"/>
</g>
<!-- srepkg_setup_file_reader&#45;&gt;srepkg_orig_pkg_inspector -->
<g id="edge36" class="edge">
<title>srepkg_setup_file_reader&#45;&gt;srepkg_orig_pkg_inspector</title><style>.edge>path:hover{stroke-width:8}</style>
<path fill="none" stroke="black" d="M413.54,-401.09C416.79,-390.96 420.78,-378.51 424.37,-367.3"/>
<polygon fill="#b83db8" stroke="black" points="427.8,-368.06 427.52,-357.47 421.14,-365.92 427.8,-368.06"/>
</g>
<!-- srepkg_srepkg_builder&#45;&gt;srepkg_repackager -->
<g id="edge37" class="edge">
<title>srepkg_srepkg_builder&#45;&gt;srepkg_repackager</title><style>.edge>path:hover{stroke-width:8}</style>
<path fill="none" stroke="black" d="M896.66,-314.97C886.76,-292.4 868.69,-255.59 846,-228.85 806.31,-182.08 748.28,-140.3 711.33,-116.11"/>
<polygon fill="#913091" stroke="black" points="713.17,-113.13 702.87,-110.64 709.36,-119.01 713.17,-113.13"/>
</g>
<!-- srepkg_venv_controller&#45;&gt;srepkg_srepkg_builder -->
<g id="edge38" class="edge">
<title>srepkg_venv_controller&#45;&gt;srepkg_srepkg_builder</title><style>.edge>path:hover{stroke-width:8}</style>
<path fill="none" stroke="black" d="M770.99,-404.84C797.5,-391.48 834.88,-372.63 863.43,-358.23"/>
<polygon fill="#b83db8" stroke="black" points="865.01,-361.36 872.36,-353.73 861.85,-355.11 865.01,-361.36"/>
</g>
</g>
</svg>
