<?xml version="1.0" encoding="UTF-8" standalone="no"?>
<!DOCTYPE svg PUBLIC "-//W3C//DTD SVG 1.1//EN"
 "http://www.w3.org/Graphics/SVG/1.1/DTD/svg11.dtd">
<!-- Generated by graphviz version 3.0.0 (20220226.1711)
 -->
<!-- Title: G Pages: 1 -->
<svg width="837pt" height="417pt"
 viewBox="0.00 0.00 837.22 416.85" xmlns="http://www.w3.org/2000/svg" xmlns:xlink="http://www.w3.org/1999/xlink">
<g id="graph0" class="graph" transform="scale(1 1) rotate(0) translate(4 412.85)">
<title>G</title><style>.edge>path:hover{stroke-width:8}</style>
<polygon fill="white" stroke="transparent" points="-4,4 -4,-412.85 833.22,-412.85 833.22,4 -4,4"/>
<!-- git -->
<g id="node1" class="node">
<title>git</title><style>.edge>path:hover{stroke-width:8}</style>
<ellipse fill="#c04040" stroke="black" cx="27" cy="-387.64" rx="27" ry="18"/>
<text text-anchor="middle" x="27" y="-385.14" font-family="Helvetica,sans-Serif" font-size="10.00" fill="#ffffff">git</text>
</g>
<!-- srepkg_archive_retriever -->
<g id="node6" class="node">
<title>srepkg_archive_retriever</title><style>.edge>path:hover{stroke-width:8}</style>
<ellipse fill="#8b439d" stroke="black" cx="207" cy="-234" rx="52.28" ry="18"/>
<text text-anchor="middle" x="207" y="-231.5" font-family="Helvetica,sans-Serif" font-size="10.00" fill="#ffffff">archive_retriever</text>
</g>
<!-- git&#45;&gt;srepkg_archive_retriever -->
<g id="edge1" class="edge">
<title>git&#45;&gt;srepkg_archive_retriever</title><style>.edge>path:hover{stroke-width:8}</style>
<path fill="none" stroke="black" d="M207,-308.21C211.04,-293.36 211.25,-276.17 210.36,-262.18"/>
<polygon fill="#c04040" stroke="black" points="213.85,-261.87 209.51,-252.2 206.87,-262.46 213.85,-261.87"/>
<path fill="none" stroke="black" d="M46.55,-375.01C51.81,-372.06 57.56,-369 63,-366.43 125.1,-337.05 188.99,-376.51 207,-310.21"/>
</g>
<!-- packaging -->
<g id="node2" class="node">
<title>packaging</title><style>.edge>path:hover{stroke-width:8}</style>
<ellipse fill="#a2b653" stroke="black" cx="108" cy="-387.64" rx="35.82" ry="18"/>
<text text-anchor="middle" x="108" y="-385.14" font-family="Helvetica,sans-Serif" font-size="10.00" fill="#000000">packaging</text>
</g>
<!-- packaging&#45;&gt;srepkg_archive_retriever -->
<g id="edge2" class="edge">
<title>packaging&#45;&gt;srepkg_archive_retriever</title><style>.edge>path:hover{stroke-width:8}</style>
<path fill="none" stroke="black" d="M130.92,-373.46C158.6,-356.87 202.08,-328.34 207,-310.21"/>
</g>
<!-- packaging_version -->
<g id="node3" class="node">
<title>packaging_version</title><style>.edge>path:hover{stroke-width:8}</style>
<ellipse fill="#a2b653" stroke="black" cx="207" cy="-387.64" rx="45.01" ry="21.43"/>
<text text-anchor="middle" x="207" y="-390.64" font-family="Helvetica,sans-Serif" font-size="10.00" fill="#000000">packaging.</text>
<text text-anchor="middle" x="207" y="-379.64" font-family="Helvetica,sans-Serif" font-size="10.00" fill="#000000">version</text>
</g>
<!-- packaging_version&#45;&gt;srepkg_archive_retriever -->
<g id="edge3" class="edge">
<title>packaging_version&#45;&gt;srepkg_archive_retriever</title><style>.edge>path:hover{stroke-width:8}</style>
<path fill="none" stroke="black" d="M204.16,-366.47C202.63,-350.83 201.96,-328.78 207,-310.21"/>
</g>
<!-- requests -->
<g id="node4" class="node">
<title>requests</title><style>.edge>path:hover{stroke-width:8}</style>
<ellipse fill="#40c073" stroke="black" cx="302" cy="-387.64" rx="31.58" ry="18"/>
<text text-anchor="middle" x="302" y="-385.14" font-family="Helvetica,sans-Serif" font-size="10.00" fill="#000000">requests</text>
</g>
<!-- requests&#45;&gt;srepkg_archive_retriever -->
<g id="edge4" class="edge">
<title>requests&#45;&gt;srepkg_archive_retriever</title><style>.edge>path:hover{stroke-width:8}</style>
<path fill="none" stroke="black" d="M279.54,-374.74C249.92,-358.24 202.06,-328.39 207,-310.21"/>
</g>
<!-- setuptools -->
<g id="node5" class="node">
<title>setuptools</title><style>.edge>path:hover{stroke-width:8}</style>
<ellipse fill="#4073c0" stroke="black" cx="388" cy="-387.64" rx="36.49" ry="18"/>
<text text-anchor="middle" x="388" y="-385.14" font-family="Helvetica,sans-Serif" font-size="10.00" fill="#ffffff">setuptools</text>
</g>
<!-- srepkg_setup_file_reader -->
<g id="node16" class="node">
<title>srepkg_setup_file_reader</title><style>.edge>path:hover{stroke-width:8}</style>
<ellipse fill="#a640c0" stroke="black" cx="388" cy="-234" rx="53.64" ry="18"/>
<text text-anchor="middle" x="388" y="-231.5" font-family="Helvetica,sans-Serif" font-size="10.00" fill="#ffffff">setup_file_reader</text>
</g>
<!-- setuptools&#45;&gt;srepkg_setup_file_reader -->
<g id="edge5" class="edge">
<title>setuptools&#45;&gt;srepkg_setup_file_reader</title><style>.edge>path:hover{stroke-width:8}</style>
<path fill="none" stroke="black" d="M388,-369.54C388,-343.49 388,-293.6 388,-262.44"/>
<polygon fill="#4073c0" stroke="black" points="391.5,-262.27 388,-252.27 384.5,-262.27 391.5,-262.27"/>
</g>
<!-- srepkg_command_input -->
<g id="node7" class="node">
<title>srepkg_command_input</title><style>.edge>path:hover{stroke-width:8}</style>
<ellipse fill="#a947c2" stroke="black" cx="620" cy="-90" rx="50.75" ry="18"/>
<text text-anchor="middle" x="620" y="-87.5" font-family="Helvetica,sans-Serif" font-size="10.00" fill="#ffffff">command_input</text>
</g>
<!-- srepkg_srepkg -->
<g id="node17" class="node">
<title>srepkg_srepkg</title><style>.edge>path:hover{stroke-width:8}</style>
<ellipse fill="#9246a4" stroke="black" cx="566" cy="-18" rx="27.16" ry="18"/>
<text text-anchor="middle" x="566" y="-15.5" font-family="Helvetica,sans-Serif" font-size="10.00" fill="#ffffff">srepkg</text>
</g>
<!-- srepkg_command_input&#45;&gt;srepkg_srepkg -->
<g id="edge6" class="edge">
<title>srepkg_command_input&#45;&gt;srepkg_srepkg</title><style>.edge>path:hover{stroke-width:8}</style>
<path fill="none" stroke="black" d="M607.2,-72.41C600.35,-63.53 591.8,-52.44 584.26,-42.67"/>
<polygon fill="#a947c2" stroke="black" points="586.84,-40.29 577.97,-34.51 581.3,-44.57 586.84,-40.29"/>
</g>
<!-- srepkg_distribution_buillder -->
<g id="node8" class="node">
<title>srepkg_distribution_buillder</title><style>.edge>path:hover{stroke-width:8}</style>
<ellipse fill="#a947c2" stroke="black" cx="630" cy="-234" rx="58.73" ry="18"/>
<text text-anchor="middle" x="630" y="-231.5" font-family="Helvetica,sans-Serif" font-size="10.00" fill="#ffffff">distribution_buillder</text>
</g>
<!-- srepkg_srepkg_builder -->
<g id="node18" class="node">
<title>srepkg_srepkg_builder</title><style>.edge>path:hover{stroke-width:8}</style>
<ellipse fill="#993ab0" stroke="black" cx="630" cy="-162" rx="47.19" ry="18"/>
<text text-anchor="middle" x="630" y="-159.5" font-family="Helvetica,sans-Serif" font-size="10.00" fill="#ffffff">srepkg_builder</text>
</g>
<!-- srepkg_distribution_buillder&#45;&gt;srepkg_srepkg_builder -->
<g id="edge7" class="edge">
<title>srepkg_distribution_buillder&#45;&gt;srepkg_srepkg_builder</title><style>.edge>path:hover{stroke-width:8}</style>
<path fill="none" stroke="black" d="M630,-215.7C630,-207.98 630,-198.71 630,-190.11"/>
<polygon fill="#a947c2" stroke="black" points="633.5,-190.1 630,-180.1 626.5,-190.1 633.5,-190.1"/>
</g>
<!-- srepkg_entry_points_builder -->
<g id="node9" class="node">
<title>srepkg_entry_points_builder</title><style>.edge>path:hover{stroke-width:8}</style>
<ellipse fill="#a947c2" stroke="black" cx="768" cy="-234" rx="61.44" ry="18"/>
<text text-anchor="middle" x="768" y="-231.5" font-family="Helvetica,sans-Serif" font-size="10.00" fill="#ffffff">entry_points_builder</text>
</g>
<!-- srepkg_entry_points_builder&#45;&gt;srepkg_srepkg_builder -->
<g id="edge8" class="edge">
<title>srepkg_entry_points_builder&#45;&gt;srepkg_srepkg_builder</title><style>.edge>path:hover{stroke-width:8}</style>
<path fill="none" stroke="black" d="M738.73,-218.15C717.59,-207.43 688.91,-192.88 666.31,-181.42"/>
<polygon fill="#a947c2" stroke="black" points="667.85,-178.27 657.35,-176.87 664.68,-184.52 667.85,-178.27"/>
</g>
<!-- srepkg_file_structure -->
<g id="node10" class="node">
<title>srepkg_file_structure</title><style>.edge>path:hover{stroke-width:8}</style>
<ellipse fill="#992db4" stroke="black" cx="510" cy="-234" rx="42.94" ry="18"/>
<text text-anchor="middle" x="510" y="-231.5" font-family="Helvetica,sans-Serif" font-size="10.00" fill="#ffffff">file_structure</text>
</g>
<!-- srepkg_path_calculator -->
<g id="node14" class="node">
<title>srepkg_path_calculator</title><style>.edge>path:hover{stroke-width:8}</style>
<ellipse fill="#9f3db8" stroke="black" cx="513" cy="-162" rx="48.72" ry="18"/>
<text text-anchor="middle" x="513" y="-159.5" font-family="Helvetica,sans-Serif" font-size="10.00" fill="#ffffff">path_calculator</text>
</g>
<!-- srepkg_file_structure&#45;&gt;srepkg_path_calculator -->
<g id="edge9" class="edge">
<title>srepkg_file_structure&#45;&gt;srepkg_path_calculator</title><style>.edge>path:hover{stroke-width:8}</style>
<path fill="none" stroke="black" d="M510.74,-215.7C511.07,-207.98 511.47,-198.71 511.84,-190.11"/>
<polygon fill="#992db4" stroke="black" points="515.34,-190.25 512.27,-180.1 508.34,-189.95 515.34,-190.25"/>
</g>
<!-- srepkg_file_structure_fs_specs -->
<g id="node11" class="node">
<title>srepkg_file_structure_fs_specs</title><style>.edge>path:hover{stroke-width:8}</style>
<ellipse fill="#a947c2" stroke="black" cx="490" cy="-309.21" rx="53.98" ry="21.43"/>
<text text-anchor="middle" x="490" y="-312.21" font-family="Helvetica,sans-Serif" font-size="10.00" fill="#ffffff">file_structure.</text>
<text text-anchor="middle" x="490" y="-301.21" font-family="Helvetica,sans-Serif" font-size="10.00" fill="#ffffff">fs_specs</text>
</g>
<!-- srepkg_file_structure_fs_specs&#45;&gt;srepkg_file_structure -->
<g id="edge10" class="edge">
<title>srepkg_file_structure_fs_specs&#45;&gt;srepkg_file_structure</title><style>.edge>path:hover{stroke-width:8}</style>
<path fill="none" stroke="black" d="M495.57,-287.82C497.74,-279.88 500.26,-270.66 502.58,-262.17"/>
<polygon fill="#a947c2" stroke="black" points="506.01,-262.88 505.27,-252.31 499.26,-261.03 506.01,-262.88"/>
</g>
<!-- srepkg_file_structure_fs_util -->
<g id="node12" class="node">
<title>srepkg_file_structure_fs_util</title><style>.edge>path:hover{stroke-width:8}</style>
<ellipse fill="#a947c2" stroke="black" cx="615" cy="-309.21" rx="53.98" ry="21.43"/>
<text text-anchor="middle" x="615" y="-312.21" font-family="Helvetica,sans-Serif" font-size="10.00" fill="#ffffff">file_structure.</text>
<text text-anchor="middle" x="615" y="-301.21" font-family="Helvetica,sans-Serif" font-size="10.00" fill="#ffffff">fs_util</text>
</g>
<!-- srepkg_file_structure_fs_util&#45;&gt;srepkg_file_structure -->
<g id="edge11" class="edge">
<title>srepkg_file_structure_fs_util&#45;&gt;srepkg_file_structure</title><style>.edge>path:hover{stroke-width:8}</style>
<path fill="none" stroke="black" d="M589.58,-290.49C574.53,-279.99 555.38,-266.64 539.64,-255.67"/>
<polygon fill="#a947c2" stroke="black" points="541.5,-252.69 531.29,-249.85 537.49,-258.44 541.5,-252.69"/>
</g>
<!-- srepkg_orig_pkg_inspector -->
<g id="node13" class="node">
<title>srepkg_orig_pkg_inspector</title><style>.edge>path:hover{stroke-width:8}</style>
<ellipse fill="#9f3db8" stroke="black" cx="388" cy="-162" rx="57.88" ry="18"/>
<text text-anchor="middle" x="388" y="-159.5" font-family="Helvetica,sans-Serif" font-size="10.00" fill="#ffffff">orig_pkg_inspector</text>
</g>
<!-- srepkg_repackager -->
<g id="node15" class="node">
<title>srepkg_repackager</title><style>.edge>path:hover{stroke-width:8}</style>
<ellipse fill="#9238a8" stroke="black" cx="513" cy="-90" rx="38.03" ry="18"/>
<text text-anchor="middle" x="513" y="-87.5" font-family="Helvetica,sans-Serif" font-size="10.00" fill="#ffffff">repackager</text>
</g>
<!-- srepkg_orig_pkg_inspector&#45;&gt;srepkg_repackager -->
<g id="edge12" class="edge">
<title>srepkg_orig_pkg_inspector&#45;&gt;srepkg_repackager</title><style>.edge>path:hover{stroke-width:8}</style>
<path fill="none" stroke="black" d="M414.82,-145.98C433.98,-135.25 459.87,-120.76 480.25,-109.34"/>
<polygon fill="#9f3db8" stroke="black" points="482.17,-112.28 489.18,-104.34 478.75,-106.17 482.17,-112.28"/>
</g>
<!-- srepkg_path_calculator&#45;&gt;srepkg_repackager -->
<g id="edge13" class="edge">
<title>srepkg_path_calculator&#45;&gt;srepkg_repackager</title><style>.edge>path:hover{stroke-width:8}</style>
<path fill="none" stroke="black" d="M513,-143.7C513,-135.98 513,-126.71 513,-118.11"/>
<polygon fill="#9f3db8" stroke="black" points="516.5,-118.1 513,-108.1 509.5,-118.1 516.5,-118.1"/>
</g>
<!-- srepkg_repackager&#45;&gt;srepkg_srepkg -->
<g id="edge14" class="edge">
<title>srepkg_repackager&#45;&gt;srepkg_srepkg</title><style>.edge>path:hover{stroke-width:8}</style>
<path fill="none" stroke="black" d="M525.29,-72.76C532.01,-63.89 540.46,-52.74 547.91,-42.89"/>
<polygon fill="#9238a8" stroke="black" points="550.89,-44.75 554.14,-34.67 545.31,-40.53 550.89,-44.75"/>
</g>
<!-- srepkg_setup_file_reader&#45;&gt;srepkg_orig_pkg_inspector -->
<g id="edge15" class="edge">
<title>srepkg_setup_file_reader&#45;&gt;srepkg_orig_pkg_inspector</title><style>.edge>path:hover{stroke-width:8}</style>
<path fill="none" stroke="black" d="M388,-215.7C388,-207.98 388,-198.71 388,-190.11"/>
<polygon fill="#a640c0" stroke="black" points="391.5,-190.1 388,-180.1 384.5,-190.1 391.5,-190.1"/>
</g>
<!-- srepkg_srepkg_builder&#45;&gt;srepkg_repackager -->
<g id="edge16" class="edge">
<title>srepkg_srepkg_builder&#45;&gt;srepkg_repackager</title><style>.edge>path:hover{stroke-width:8}</style>
<path fill="none" stroke="black" d="M605.76,-146.5C587.96,-135.85 563.63,-121.29 544.36,-109.76"/>
<polygon fill="#993ab0" stroke="black" points="546,-106.67 535.62,-104.54 542.41,-112.67 546,-106.67"/>
</g>
</g>
</svg>
