<?xml version="1.0" encoding="UTF-8" standalone="no"?>
<!DOCTYPE svg PUBLIC "-//W3C//DTD SVG 1.1//EN"
 "http://www.w3.org/Graphics/SVG/1.1/DTD/svg11.dtd">
<!-- Generated by graphviz version 3.0.0 (20220226.1711)
 -->
<!-- Title: G Pages: 1 -->
<svg width="372pt" height="410pt"
 viewBox="0.00 0.00 371.91 410.43" xmlns="http://www.w3.org/2000/svg" xmlns:xlink="http://www.w3.org/1999/xlink">
<g id="graph0" class="graph" transform="scale(1 1) rotate(0) translate(4 406.43)">
<title>G</title><style>.edge>path:hover{stroke-width:8}</style>
<polygon fill="white" stroke="transparent" points="-4,4 -4,-406.43 367.91,-406.43 367.91,4 -4,4"/>
<!-- setuptools -->
<g id="node1" class="node">
<title>setuptools</title><style>.edge>path:hover{stroke-width:8}</style>
<ellipse fill="#c04040" stroke="black" cx="57.69" cy="-384.43" rx="36.49" ry="18"/>
<text text-anchor="middle" x="57.69" y="-381.93" font-family="Helvetica,sans-Serif" font-size="10.00" fill="#ffffff">setuptools</text>
</g>
<!-- srepkg_setup_file_reader -->
<g id="node10" class="node">
<title>srepkg_setup_file_reader</title><style>.edge>path:hover{stroke-width:8}</style>
<ellipse fill="#40bfc0" stroke="black" cx="57.69" cy="-234" rx="53.64" ry="18"/>
<text text-anchor="middle" x="57.69" y="-231.5" font-family="Helvetica,sans-Serif" font-size="10.00" fill="#000000">setup_file_reader</text>
</g>
<!-- setuptools&#45;&gt;srepkg_setup_file_reader -->
<g id="edge1" class="edge">
<title>setuptools&#45;&gt;srepkg_setup_file_reader</title><style>.edge>path:hover{stroke-width:8}</style>
<path fill="none" stroke="black" d="M57.69,-366.4C57.69,-341.04 57.69,-293.06 57.69,-262.63"/>
<polygon fill="#c04040" stroke="black" points="61.19,-262.28 57.69,-252.29 54.19,-262.29 61.19,-262.28"/>
</g>
<!-- srepkg_command_input -->
<g id="node2" class="node">
<title>srepkg_command_input</title><style>.edge>path:hover{stroke-width:8}</style>
<ellipse fill="#47c2c2" stroke="black" cx="289.69" cy="-90" rx="50.75" ry="18"/>
<text text-anchor="middle" x="289.69" y="-87.5" font-family="Helvetica,sans-Serif" font-size="10.00" fill="#000000">command_input</text>
</g>
<!-- srepkg_srepkg -->
<g id="node11" class="node">
<title>srepkg_srepkg</title><style>.edge>path:hover{stroke-width:8}</style>
<ellipse fill="#46a4a4" stroke="black" cx="235.69" cy="-18" rx="27.16" ry="18"/>
<text text-anchor="middle" x="235.69" y="-15.5" font-family="Helvetica,sans-Serif" font-size="10.00" fill="#000000">srepkg</text>
</g>
<!-- srepkg_command_input&#45;&gt;srepkg_srepkg -->
<g id="edge2" class="edge">
<title>srepkg_command_input&#45;&gt;srepkg_srepkg</title><style>.edge>path:hover{stroke-width:8}</style>
<path fill="none" stroke="black" d="M276.89,-72.41C270.04,-63.53 261.48,-52.44 253.95,-42.67"/>
<polygon fill="#47c2c2" stroke="black" points="256.53,-40.29 247.65,-34.51 250.99,-44.57 256.53,-40.29"/>
</g>
<!-- srepkg_entry_points_builder -->
<g id="node3" class="node">
<title>srepkg_entry_points_builder</title><style>.edge>path:hover{stroke-width:8}</style>
<ellipse fill="#47c2c2" stroke="black" cx="302.69" cy="-234" rx="61.44" ry="18"/>
<text text-anchor="middle" x="302.69" y="-231.5" font-family="Helvetica,sans-Serif" font-size="10.00" fill="#000000">entry_points_builder</text>
</g>
<!-- srepkg_srepkg_builder -->
<g id="node12" class="node">
<title>srepkg_srepkg_builder</title><style>.edge>path:hover{stroke-width:8}</style>
<ellipse fill="#3db8b8" stroke="black" cx="300.69" cy="-162" rx="47.19" ry="18"/>
<text text-anchor="middle" x="300.69" y="-159.5" font-family="Helvetica,sans-Serif" font-size="10.00" fill="#000000">srepkg_builder</text>
</g>
<!-- srepkg_entry_points_builder&#45;&gt;srepkg_srepkg_builder -->
<g id="edge3" class="edge">
<title>srepkg_entry_points_builder&#45;&gt;srepkg_srepkg_builder</title><style>.edge>path:hover{stroke-width:8}</style>
<path fill="none" stroke="black" d="M302.19,-215.7C301.97,-207.98 301.71,-198.71 301.46,-190.11"/>
<polygon fill="#47c2c2" stroke="black" points="304.96,-190 301.18,-180.1 297.96,-190.2 304.96,-190"/>
</g>
<!-- srepkg_file_structure -->
<g id="node4" class="node">
<title>srepkg_file_structure</title><style>.edge>path:hover{stroke-width:8}</style>
<ellipse fill="#2db4b4" stroke="black" cx="180.69" cy="-234" rx="42.94" ry="18"/>
<text text-anchor="middle" x="180.69" y="-231.5" font-family="Helvetica,sans-Serif" font-size="10.00" fill="#000000">file_structure</text>
</g>
<!-- srepkg_path_calculator -->
<g id="node8" class="node">
<title>srepkg_path_calculator</title><style>.edge>path:hover{stroke-width:8}</style>
<ellipse fill="#3db8b8" stroke="black" cx="182.69" cy="-162" rx="48.72" ry="18"/>
<text text-anchor="middle" x="182.69" y="-159.5" font-family="Helvetica,sans-Serif" font-size="10.00" fill="#000000">path_calculator</text>
</g>
<!-- srepkg_file_structure&#45;&gt;srepkg_path_calculator -->
<g id="edge4" class="edge">
<title>srepkg_file_structure&#45;&gt;srepkg_path_calculator</title><style>.edge>path:hover{stroke-width:8}</style>
<path fill="none" stroke="black" d="M181.18,-215.7C181.4,-207.98 181.67,-198.71 181.91,-190.11"/>
<polygon fill="#2db4b4" stroke="black" points="185.41,-190.2 182.2,-180.1 178.42,-190 185.41,-190.2"/>
</g>
<!-- srepkg_file_structure_fs_specs -->
<g id="node5" class="node">
<title>srepkg_file_structure_fs_specs</title><style>.edge>path:hover{stroke-width:8}</style>
<ellipse fill="#47c2c2" stroke="black" cx="156.69" cy="-309.21" rx="53.98" ry="21.43"/>
<text text-anchor="middle" x="156.69" y="-312.21" font-family="Helvetica,sans-Serif" font-size="10.00" fill="#000000">file_structure.</text>
<text text-anchor="middle" x="156.69" y="-301.21" font-family="Helvetica,sans-Serif" font-size="10.00" fill="#000000">fs_specs</text>
</g>
<!-- srepkg_file_structure_fs_specs&#45;&gt;srepkg_file_structure -->
<g id="edge5" class="edge">
<title>srepkg_file_structure_fs_specs&#45;&gt;srepkg_file_structure</title><style>.edge>path:hover{stroke-width:8}</style>
<path fill="none" stroke="black" d="M163.37,-287.82C166.01,-279.79 169.07,-270.46 171.87,-261.89"/>
<polygon fill="#47c2c2" stroke="black" points="175.23,-262.9 175.01,-252.31 168.57,-260.72 175.23,-262.9"/>
</g>
<!-- srepkg_file_structure_fs_util -->
<g id="node6" class="node">
<title>srepkg_file_structure_fs_util</title><style>.edge>path:hover{stroke-width:8}</style>
<ellipse fill="#47c2c2" stroke="black" cx="281.69" cy="-309.21" rx="53.98" ry="21.43"/>
<text text-anchor="middle" x="281.69" y="-312.21" font-family="Helvetica,sans-Serif" font-size="10.00" fill="#000000">file_structure.</text>
<text text-anchor="middle" x="281.69" y="-301.21" font-family="Helvetica,sans-Serif" font-size="10.00" fill="#000000">fs_util</text>
</g>
<!-- srepkg_file_structure_fs_util&#45;&gt;srepkg_file_structure -->
<g id="edge6" class="edge">
<title>srepkg_file_structure_fs_util&#45;&gt;srepkg_file_structure</title><style>.edge>path:hover{stroke-width:8}</style>
<path fill="none" stroke="black" d="M256.98,-290.3C242.73,-279.97 224.72,-266.92 209.79,-256.09"/>
<polygon fill="#47c2c2" stroke="black" points="211.55,-253.05 201.4,-250.01 207.44,-258.71 211.55,-253.05"/>
</g>
<!-- srepkg_orig_pkg_inspector -->
<g id="node7" class="node">
<title>srepkg_orig_pkg_inspector</title><style>.edge>path:hover{stroke-width:8}</style>
<ellipse fill="#3db8b8" stroke="black" cx="57.69" cy="-162" rx="57.88" ry="18"/>
<text text-anchor="middle" x="57.69" y="-159.5" font-family="Helvetica,sans-Serif" font-size="10.00" fill="#000000">orig_pkg_inspector</text>
</g>
<!-- srepkg_repackager -->
<g id="node9" class="node">
<title>srepkg_repackager</title><style>.edge>path:hover{stroke-width:8}</style>
<ellipse fill="#38a8a8" stroke="black" cx="182.69" cy="-90" rx="38.03" ry="18"/>
<text text-anchor="middle" x="182.69" y="-87.5" font-family="Helvetica,sans-Serif" font-size="10.00" fill="#000000">repackager</text>
</g>
<!-- srepkg_orig_pkg_inspector&#45;&gt;srepkg_repackager -->
<g id="edge7" class="edge">
<title>srepkg_orig_pkg_inspector&#45;&gt;srepkg_repackager</title><style>.edge>path:hover{stroke-width:8}</style>
<path fill="none" stroke="black" d="M84.5,-145.98C103.66,-135.25 129.55,-120.76 149.94,-109.34"/>
<polygon fill="#3db8b8" stroke="black" points="151.86,-112.28 158.87,-104.34 148.44,-106.17 151.86,-112.28"/>
</g>
<!-- srepkg_path_calculator&#45;&gt;srepkg_repackager -->
<g id="edge8" class="edge">
<title>srepkg_path_calculator&#45;&gt;srepkg_repackager</title><style>.edge>path:hover{stroke-width:8}</style>
<path fill="none" stroke="black" d="M182.69,-143.7C182.69,-135.98 182.69,-126.71 182.69,-118.11"/>
<polygon fill="#3db8b8" stroke="black" points="186.19,-118.1 182.69,-108.1 179.19,-118.1 186.19,-118.1"/>
</g>
<!-- srepkg_repackager&#45;&gt;srepkg_srepkg -->
<g id="edge9" class="edge">
<title>srepkg_repackager&#45;&gt;srepkg_srepkg</title><style>.edge>path:hover{stroke-width:8}</style>
<path fill="none" stroke="black" d="M194.98,-72.76C201.7,-63.89 210.14,-52.74 217.6,-42.89"/>
<polygon fill="#38a8a8" stroke="black" points="220.58,-44.75 223.83,-34.67 215,-40.53 220.58,-44.75"/>
</g>
<!-- srepkg_setup_file_reader&#45;&gt;srepkg_orig_pkg_inspector -->
<g id="edge10" class="edge">
<title>srepkg_setup_file_reader&#45;&gt;srepkg_orig_pkg_inspector</title><style>.edge>path:hover{stroke-width:8}</style>
<path fill="none" stroke="black" d="M57.69,-215.7C57.69,-207.98 57.69,-198.71 57.69,-190.11"/>
<polygon fill="#40bfc0" stroke="black" points="61.19,-190.1 57.69,-180.1 54.19,-190.1 61.19,-190.1"/>
</g>
<!-- srepkg_srepkg_builder&#45;&gt;srepkg_repackager -->
<g id="edge11" class="edge">
<title>srepkg_srepkg_builder&#45;&gt;srepkg_repackager</title><style>.edge>path:hover{stroke-width:8}</style>
<path fill="none" stroke="black" d="M276.24,-146.5C258.29,-135.85 233.75,-121.29 214.31,-109.76"/>
<polygon fill="#3db8b8" stroke="black" points="215.89,-106.63 205.51,-104.54 212.32,-112.65 215.89,-106.63"/>
</g>
</g>
</svg>
