<?xml version="1.0" encoding="UTF-8" standalone="no"?>
<!DOCTYPE svg PUBLIC "-//W3C//DTD SVG 1.1//EN"
 "http://www.w3.org/Graphics/SVG/1.1/DTD/svg11.dtd">
<!-- Generated by graphviz version 3.0.0 (20220226.1711)
 -->
<!-- Title: G Pages: 1 -->
<svg width="552pt" height="445pt"
 viewBox="0.00 0.00 551.74 445.26" xmlns="http://www.w3.org/2000/svg" xmlns:xlink="http://www.w3.org/1999/xlink">
<g id="graph0" class="graph" transform="scale(1 1) rotate(0) translate(4 441.26)">
<title>G</title><style>.edge>path:hover{stroke-width:8}</style>
<polygon fill="white" stroke="transparent" points="-4,4 -4,-441.26 547.74,-441.26 547.74,4 -4,4"/>
<!-- pathvalidate -->
<g id="node1" class="node">
<title>pathvalidate</title><style>.edge>path:hover{stroke-width:8}</style>
<ellipse fill="#b65353" stroke="black" cx="50.2" cy="-419.26" rx="40.74" ry="18"/>
<text text-anchor="middle" x="50.2" y="-416.76" font-family="Helvetica,sans-Serif" font-size="10.00" fill="#ffffff">pathvalidate</text>
</g>
<!-- srepkg_src_retriever -->
<g id="node12" class="node">
<title>srepkg_src_retriever</title><style>.edge>path:hover{stroke-width:8}</style>
<ellipse fill="#4c4cb3" stroke="black" cx="50.2" cy="-250.07" rx="50.41" ry="21.43"/>
<text text-anchor="middle" x="50.2" y="-253.07" font-family="Helvetica,sans-Serif" font-size="10.00" fill="#ffffff">srepkg.</text>
<text text-anchor="middle" x="50.2" y="-242.07" font-family="Helvetica,sans-Serif" font-size="10.00" fill="#ffffff">src_retriever</text>
</g>
<!-- pathvalidate&#45;&gt;srepkg_src_retriever -->
<g id="edge1" class="edge">
<title>pathvalidate&#45;&gt;srepkg_src_retriever</title><style>.edge>path:hover{stroke-width:8}</style>
<path fill="none" stroke="black" d="M50.2,-401C50.2,-372.8 50.2,-316.48 50.2,-281.46"/>
<polygon fill="#b65353" stroke="black" points="53.7,-281.34 50.2,-271.34 46.7,-281.34 53.7,-281.34"/>
</g>
<!-- setuptools -->
<g id="node2" class="node">
<title>setuptools</title><style>.edge>path:hover{stroke-width:8}</style>
<ellipse fill="#40c040" stroke="black" cx="183.2" cy="-419.26" rx="36.49" ry="18"/>
<text text-anchor="middle" x="183.2" y="-416.76" font-family="Helvetica,sans-Serif" font-size="10.00" fill="#000000">setuptools</text>
</g>
<!-- srepkg_setup_file_reader -->
<g id="node11" class="node">
<title>srepkg_setup_file_reader</title><style>.edge>path:hover{stroke-width:8}</style>
<ellipse fill="#4040c0" stroke="black" cx="183.2" cy="-250.07" rx="64.19" ry="21.43"/>
<text text-anchor="middle" x="183.2" y="-253.07" font-family="Helvetica,sans-Serif" font-size="10.00" fill="#ffffff">srepkg.</text>
<text text-anchor="middle" x="183.2" y="-242.07" font-family="Helvetica,sans-Serif" font-size="10.00" fill="#ffffff">setup_file_reader</text>
</g>
<!-- setuptools&#45;&gt;srepkg_setup_file_reader -->
<g id="edge2" class="edge">
<title>setuptools&#45;&gt;srepkg_setup_file_reader</title><style>.edge>path:hover{stroke-width:8}</style>
<path fill="none" stroke="black" d="M183.2,-401C183.2,-372.8 183.2,-316.48 183.2,-281.46"/>
<polygon fill="#40c040" stroke="black" points="186.7,-281.34 183.2,-271.34 179.7,-281.34 186.7,-281.34"/>
</g>
<!-- srepkg_command_input -->
<g id="node3" class="node">
<title>srepkg_command_input</title><style>.edge>path:hover{stroke-width:8}</style>
<ellipse fill="#4747c2" stroke="black" cx="454.2" cy="-93.21" rx="60.62" ry="21.43"/>
<text text-anchor="middle" x="454.2" y="-96.21" font-family="Helvetica,sans-Serif" font-size="10.00" fill="#ffffff">srepkg.</text>
<text text-anchor="middle" x="454.2" y="-85.21" font-family="Helvetica,sans-Serif" font-size="10.00" fill="#ffffff">command_input</text>
</g>
<!-- srepkg_srepkg -->
<g id="node13" class="node">
<title>srepkg_srepkg</title><style>.edge>path:hover{stroke-width:8}</style>
<ellipse fill="#4646a4" stroke="black" cx="391.2" cy="-18" rx="45.83" ry="18"/>
<text text-anchor="middle" x="391.2" y="-15.5" font-family="Helvetica,sans-Serif" font-size="10.00" fill="#ffffff">srepkg.srepkg</text>
</g>
<!-- srepkg_command_input&#45;&gt;srepkg_srepkg -->
<g id="edge3" class="edge">
<title>srepkg_command_input&#45;&gt;srepkg_srepkg</title><style>.edge>path:hover{stroke-width:8}</style>
<path fill="none" stroke="black" d="M437.32,-72.59C429.46,-63.46 420.04,-52.51 411.77,-42.9"/>
<polygon fill="#4747c2" stroke="black" points="414.33,-40.51 405.15,-35.21 409.02,-45.07 414.33,-40.51"/>
</g>
<!-- srepkg_entry_points_builder -->
<g id="node4" class="node">
<title>srepkg_entry_points_builder</title><style>.edge>path:hover{stroke-width:8}</style>
<ellipse fill="#4747c2" stroke="black" cx="470.2" cy="-250.07" rx="73.58" ry="21.43"/>
<text text-anchor="middle" x="470.2" y="-253.07" font-family="Helvetica,sans-Serif" font-size="10.00" fill="#ffffff">srepkg.</text>
<text text-anchor="middle" x="470.2" y="-242.07" font-family="Helvetica,sans-Serif" font-size="10.00" fill="#ffffff">entry_points_builder</text>
</g>
<!-- srepkg_srepkg_builder -->
<g id="node14" class="node">
<title>srepkg_srepkg_builder</title><style>.edge>path:hover{stroke-width:8}</style>
<ellipse fill="#3d3db8" stroke="black" cx="467.2" cy="-171.64" rx="56.64" ry="21.43"/>
<text text-anchor="middle" x="467.2" y="-174.64" font-family="Helvetica,sans-Serif" font-size="10.00" fill="#ffffff">srepkg.</text>
<text text-anchor="middle" x="467.2" y="-163.64" font-family="Helvetica,sans-Serif" font-size="10.00" fill="#ffffff">srepkg_builder</text>
</g>
<!-- srepkg_entry_points_builder&#45;&gt;srepkg_srepkg_builder -->
<g id="edge4" class="edge">
<title>srepkg_entry_points_builder&#45;&gt;srepkg_srepkg_builder</title><style>.edge>path:hover{stroke-width:8}</style>
<path fill="none" stroke="black" d="M469.4,-228.59C469.09,-220.73 468.73,-211.58 468.4,-202.99"/>
<polygon fill="#4747c2" stroke="black" points="471.89,-202.77 468,-192.91 464.9,-203.04 471.89,-202.77"/>
</g>
<!-- srepkg_file_structure -->
<g id="node5" class="node">
<title>srepkg_file_structure</title><style>.edge>path:hover{stroke-width:8}</style>
<ellipse fill="#2d2db4" stroke="black" cx="327.2" cy="-250.07" rx="51.74" ry="21.43"/>
<text text-anchor="middle" x="327.2" y="-253.07" font-family="Helvetica,sans-Serif" font-size="10.00" fill="#ffffff">srepkg.</text>
<text text-anchor="middle" x="327.2" y="-242.07" font-family="Helvetica,sans-Serif" font-size="10.00" fill="#ffffff">file_structure</text>
</g>
<!-- srepkg_path_calculator -->
<g id="node9" class="node">
<title>srepkg_path_calculator</title><style>.edge>path:hover{stroke-width:8}</style>
<ellipse fill="#3d3db8" stroke="black" cx="329.2" cy="-171.64" rx="58.88" ry="21.43"/>
<text text-anchor="middle" x="329.2" y="-174.64" font-family="Helvetica,sans-Serif" font-size="10.00" fill="#ffffff">srepkg.</text>
<text text-anchor="middle" x="329.2" y="-163.64" font-family="Helvetica,sans-Serif" font-size="10.00" fill="#ffffff">path_calculator</text>
</g>
<!-- srepkg_file_structure&#45;&gt;srepkg_path_calculator -->
<g id="edge5" class="edge">
<title>srepkg_file_structure&#45;&gt;srepkg_path_calculator</title><style>.edge>path:hover{stroke-width:8}</style>
<path fill="none" stroke="black" d="M327.74,-228.59C327.95,-220.73 328.19,-211.58 328.41,-202.99"/>
<polygon fill="#2d2db4" stroke="black" points="331.91,-203 328.67,-192.91 324.91,-202.82 331.91,-203"/>
</g>
<!-- srepkg_file_structure_fs_specs -->
<g id="node6" class="node">
<title>srepkg_file_structure_fs_specs</title><style>.edge>path:hover{stroke-width:8}</style>
<ellipse fill="#4747c2" stroke="black" cx="297.2" cy="-336.27" rx="53.98" ry="28.98"/>
<text text-anchor="middle" x="297.2" y="-344.77" font-family="Helvetica,sans-Serif" font-size="10.00" fill="#ffffff">srepkg.</text>
<text text-anchor="middle" x="297.2" y="-333.77" font-family="Helvetica,sans-Serif" font-size="10.00" fill="#ffffff">file_structure.</text>
<text text-anchor="middle" x="297.2" y="-322.77" font-family="Helvetica,sans-Serif" font-size="10.00" fill="#ffffff">fs_specs</text>
</g>
<!-- srepkg_file_structure_fs_specs&#45;&gt;srepkg_file_structure -->
<g id="edge6" class="edge">
<title>srepkg_file_structure_fs_specs&#45;&gt;srepkg_file_structure</title><style>.edge>path:hover{stroke-width:8}</style>
<path fill="none" stroke="black" d="M307.03,-307.7C310.11,-299.06 313.52,-289.48 316.65,-280.7"/>
<polygon fill="#4747c2" stroke="black" points="319.96,-281.82 320.02,-271.22 313.37,-279.47 319.96,-281.82"/>
</g>
<!-- srepkg_file_structure_fs_util -->
<g id="node7" class="node">
<title>srepkg_file_structure_fs_util</title><style>.edge>path:hover{stroke-width:8}</style>
<ellipse fill="#4747c2" stroke="black" cx="422.2" cy="-336.27" rx="53.98" ry="28.98"/>
<text text-anchor="middle" x="422.2" y="-344.77" font-family="Helvetica,sans-Serif" font-size="10.00" fill="#ffffff">srepkg.</text>
<text text-anchor="middle" x="422.2" y="-333.77" font-family="Helvetica,sans-Serif" font-size="10.00" fill="#ffffff">file_structure.</text>
<text text-anchor="middle" x="422.2" y="-322.77" font-family="Helvetica,sans-Serif" font-size="10.00" fill="#ffffff">fs_util</text>
</g>
<!-- srepkg_file_structure_fs_util&#45;&gt;srepkg_file_structure -->
<g id="edge7" class="edge">
<title>srepkg_file_structure_fs_util&#45;&gt;srepkg_file_structure</title><style>.edge>path:hover{stroke-width:8}</style>
<path fill="none" stroke="black" d="M394.98,-311.14C382.75,-300.3 368.3,-287.5 355.9,-276.5"/>
<polygon fill="#4747c2" stroke="black" points="357.89,-273.59 348.09,-269.58 353.25,-278.83 357.89,-273.59"/>
</g>
<!-- srepkg_orig_pkg_inspector -->
<g id="node8" class="node">
<title>srepkg_orig_pkg_inspector</title><style>.edge>path:hover{stroke-width:8}</style>
<ellipse fill="#3d3db8" stroke="black" cx="183.2" cy="-171.64" rx="69.09" ry="21.43"/>
<text text-anchor="middle" x="183.2" y="-174.64" font-family="Helvetica,sans-Serif" font-size="10.00" fill="#ffffff">srepkg.</text>
<text text-anchor="middle" x="183.2" y="-163.64" font-family="Helvetica,sans-Serif" font-size="10.00" fill="#ffffff">orig_pkg_inspector</text>
</g>
<!-- srepkg_repackager -->
<g id="node10" class="node">
<title>srepkg_repackager</title><style>.edge>path:hover{stroke-width:8}</style>
<ellipse fill="#3838a8" stroke="black" cx="329.2" cy="-93.21" rx="45.92" ry="21.43"/>
<text text-anchor="middle" x="329.2" y="-96.21" font-family="Helvetica,sans-Serif" font-size="10.00" fill="#ffffff">srepkg.</text>
<text text-anchor="middle" x="329.2" y="-85.21" font-family="Helvetica,sans-Serif" font-size="10.00" fill="#ffffff">repackager</text>
</g>
<!-- srepkg_orig_pkg_inspector&#45;&gt;srepkg_repackager -->
<g id="edge8" class="edge">
<title>srepkg_orig_pkg_inspector&#45;&gt;srepkg_repackager</title><style>.edge>path:hover{stroke-width:8}</style>
<path fill="none" stroke="black" d="M217.07,-152.91C238.98,-141.44 267.58,-126.47 290.41,-114.52"/>
<polygon fill="#3d3db8" stroke="black" points="292.25,-117.51 299.48,-109.77 289,-111.31 292.25,-117.51"/>
</g>
<!-- srepkg_path_calculator&#45;&gt;srepkg_repackager -->
<g id="edge9" class="edge">
<title>srepkg_path_calculator&#45;&gt;srepkg_repackager</title><style>.edge>path:hover{stroke-width:8}</style>
<path fill="none" stroke="black" d="M329.2,-150.16C329.2,-142.3 329.2,-133.16 329.2,-124.57"/>
<polygon fill="#3d3db8" stroke="black" points="332.7,-124.49 329.2,-114.49 325.7,-124.49 332.7,-124.49"/>
</g>
<!-- srepkg_repackager&#45;&gt;srepkg_srepkg -->
<g id="edge10" class="edge">
<title>srepkg_repackager&#45;&gt;srepkg_srepkg</title><style>.edge>path:hover{stroke-width:8}</style>
<path fill="none" stroke="black" d="M345.49,-72.98C353.23,-63.84 362.56,-52.83 370.76,-43.14"/>
<polygon fill="#3838a8" stroke="black" points="373.54,-45.27 377.33,-35.38 368.2,-40.75 373.54,-45.27"/>
</g>
<!-- srepkg_setup_file_reader&#45;&gt;srepkg_orig_pkg_inspector -->
<g id="edge11" class="edge">
<title>srepkg_setup_file_reader&#45;&gt;srepkg_orig_pkg_inspector</title><style>.edge>path:hover{stroke-width:8}</style>
<path fill="none" stroke="black" d="M183.2,-228.59C183.2,-220.73 183.2,-211.58 183.2,-202.99"/>
<polygon fill="#4040c0" stroke="black" points="186.7,-202.91 183.2,-192.91 179.7,-202.91 186.7,-202.91"/>
</g>
<!-- srepkg_srepkg_builder&#45;&gt;srepkg_repackager -->
<g id="edge12" class="edge">
<title>srepkg_srepkg_builder&#45;&gt;srepkg_repackager</title><style>.edge>path:hover{stroke-width:8}</style>
<path fill="none" stroke="black" d="M436.58,-153.68C416.01,-142.29 388.78,-127.21 366.88,-115.08"/>
<polygon fill="#3d3db8" stroke="black" points="368.3,-111.87 357.86,-110.08 364.91,-117.99 368.3,-111.87"/>
</g>
</g>
</svg>
