<?xml version="1.0" encoding="UTF-8" standalone="no"?>
<!DOCTYPE svg PUBLIC "-//W3C//DTD SVG 1.1//EN"
 "http://www.w3.org/Graphics/SVG/1.1/DTD/svg11.dtd">
<!-- Generated by graphviz version 3.0.0 (20220226.1711)
 -->
<!-- Title: G Pages: 1 -->
<svg width="578pt" height="389pt"
 viewBox="0.00 0.00 577.84 388.82" xmlns="http://www.w3.org/2000/svg" xmlns:xlink="http://www.w3.org/1999/xlink">
<g id="graph0" class="graph" transform="scale(1 1) rotate(0) translate(4 384.82)">
<title>G</title><style>.edge>path:hover{stroke-width:8}</style>
<polygon fill="white" stroke="transparent" points="-4,4 -4,-384.82 573.84,-384.82 573.84,4 -4,4"/>
<!-- setuptools -->
<g id="node1" class="node">
<title>setuptools</title><style>.edge>path:hover{stroke-width:8}</style>
<ellipse fill="#c04040" stroke="black" cx="69.3" cy="-351.83" rx="36.49" ry="18"/>
<text text-anchor="middle" x="69.3" y="-349.33" font-family="Helvetica,sans-Serif" font-size="10.00" fill="#ffffff">setuptools</text>
</g>
<!-- srepkg_setup_file_reader -->
<g id="node9" class="node">
<title>srepkg_setup_file_reader</title><style>.edge>path:hover{stroke-width:8}</style>
<ellipse fill="#40bfc0" stroke="black" cx="69.3" cy="-171.64" rx="64.19" ry="21.43"/>
<text text-anchor="middle" x="69.3" y="-174.64" font-family="Helvetica,sans-Serif" font-size="10.00" fill="#000000">srepkg.</text>
<text text-anchor="middle" x="69.3" y="-163.64" font-family="Helvetica,sans-Serif" font-size="10.00" fill="#000000">setup_file_reader</text>
</g>
<!-- setuptools&#45;&gt;srepkg_setup_file_reader -->
<g id="edge1" class="edge">
<title>setuptools&#45;&gt;srepkg_setup_file_reader</title><style>.edge>path:hover{stroke-width:8}</style>
<path fill="none" stroke="black" d="M69.3,-333.74C69.3,-303.69 69.3,-241.01 69.3,-203.3"/>
<polygon fill="#c04040" stroke="black" points="72.8,-202.92 69.3,-192.92 65.8,-202.92 72.8,-202.92"/>
</g>
<!-- srepkg_command_input -->
<g id="node2" class="node">
<title>srepkg_command_input</title><style>.edge>path:hover{stroke-width:8}</style>
<ellipse fill="#47c2c2" stroke="black" cx="217.3" cy="-93.21" rx="60.62" ry="21.43"/>
<text text-anchor="middle" x="217.3" y="-96.21" font-family="Helvetica,sans-Serif" font-size="10.00" fill="#000000">srepkg.</text>
<text text-anchor="middle" x="217.3" y="-85.21" font-family="Helvetica,sans-Serif" font-size="10.00" fill="#000000">command_input</text>
</g>
<!-- srepkg_srepkg -->
<g id="node10" class="node">
<title>srepkg_srepkg</title><style>.edge>path:hover{stroke-width:8}</style>
<ellipse fill="#409696" stroke="black" cx="286.3" cy="-18" rx="45.83" ry="18"/>
<text text-anchor="middle" x="286.3" y="-15.5" font-family="Helvetica,sans-Serif" font-size="10.00" fill="#ffffff">srepkg.srepkg</text>
</g>
<!-- srepkg_command_input&#45;&gt;srepkg_srepkg -->
<g id="edge2" class="edge">
<title>srepkg_command_input&#45;&gt;srepkg_srepkg</title><style>.edge>path:hover{stroke-width:8}</style>
<path fill="none" stroke="black" d="M235.79,-72.59C244.48,-63.37 254.92,-52.3 264.04,-42.61"/>
<polygon fill="#47c2c2" stroke="black" points="266.71,-44.89 271.02,-35.21 261.61,-40.09 266.71,-44.89"/>
</g>
<!-- srepkg_entry_points_builder -->
<g id="node3" class="node">
<title>srepkg_entry_points_builder</title><style>.edge>path:hover{stroke-width:8}</style>
<ellipse fill="#47c2c2" stroke="black" cx="496.3" cy="-171.64" rx="73.58" ry="21.43"/>
<text text-anchor="middle" x="496.3" y="-174.64" font-family="Helvetica,sans-Serif" font-size="10.00" fill="#000000">srepkg.</text>
<text text-anchor="middle" x="496.3" y="-163.64" font-family="Helvetica,sans-Serif" font-size="10.00" fill="#000000">entry_points_builder</text>
</g>
<!-- srepkg_srepkg_builder -->
<g id="node11" class="node">
<title>srepkg_srepkg_builder</title><style>.edge>path:hover{stroke-width:8}</style>
<ellipse fill="#3db8b8" stroke="black" cx="493.3" cy="-93.21" rx="56.64" ry="21.43"/>
<text text-anchor="middle" x="493.3" y="-96.21" font-family="Helvetica,sans-Serif" font-size="10.00" fill="#000000">srepkg.</text>
<text text-anchor="middle" x="493.3" y="-85.21" font-family="Helvetica,sans-Serif" font-size="10.00" fill="#000000">srepkg_builder</text>
</g>
<!-- srepkg_entry_points_builder&#45;&gt;srepkg_srepkg_builder -->
<g id="edge3" class="edge">
<title>srepkg_entry_points_builder&#45;&gt;srepkg_srepkg_builder</title><style>.edge>path:hover{stroke-width:8}</style>
<path fill="none" stroke="black" d="M495.49,-150.16C495.18,-142.3 494.83,-133.16 494.49,-124.57"/>
<polygon fill="#47c2c2" stroke="black" points="497.98,-124.34 494.09,-114.49 490.99,-124.62 497.98,-124.34"/>
</g>
<!-- srepkg_orig_pkg_inspector -->
<g id="node4" class="node">
<title>srepkg_orig_pkg_inspector</title><style>.edge>path:hover{stroke-width:8}</style>
<ellipse fill="#3db8b8" stroke="black" cx="69.3" cy="-93.21" rx="69.09" ry="21.43"/>
<text text-anchor="middle" x="69.3" y="-96.21" font-family="Helvetica,sans-Serif" font-size="10.00" fill="#000000">srepkg.</text>
<text text-anchor="middle" x="69.3" y="-85.21" font-family="Helvetica,sans-Serif" font-size="10.00" fill="#000000">orig_pkg_inspector</text>
</g>
<!-- srepkg_orig_pkg_inspector&#45;&gt;srepkg_srepkg -->
<g id="edge4" class="edge">
<title>srepkg_orig_pkg_inspector&#45;&gt;srepkg_srepkg</title><style>.edge>path:hover{stroke-width:8}</style>
<path fill="none" stroke="black" d="M114.26,-77.04C152.09,-64.28 205.84,-46.14 243.15,-33.56"/>
<polygon fill="#3db8b8" stroke="black" points="244.38,-36.83 252.74,-30.32 242.15,-30.2 244.38,-36.83"/>
</g>
<!-- srepkg_path_builders -->
<g id="node5" class="node">
<title>srepkg_path_builders</title><style>.edge>path:hover{stroke-width:8}</style>
<ellipse fill="#21bfbf" stroke="black" cx="352.3" cy="-171.64" rx="52.15" ry="21.43"/>
<text text-anchor="middle" x="352.3" y="-174.64" font-family="Helvetica,sans-Serif" font-size="10.00" fill="#000000">srepkg.</text>
<text text-anchor="middle" x="352.3" y="-163.64" font-family="Helvetica,sans-Serif" font-size="10.00" fill="#000000">path_builders</text>
</g>
<!-- srepkg_path_calculator -->
<g id="node8" class="node">
<title>srepkg_path_calculator</title><style>.edge>path:hover{stroke-width:8}</style>
<ellipse fill="#3db8b8" stroke="black" cx="355.3" cy="-93.21" rx="58.88" ry="21.43"/>
<text text-anchor="middle" x="355.3" y="-96.21" font-family="Helvetica,sans-Serif" font-size="10.00" fill="#000000">srepkg.</text>
<text text-anchor="middle" x="355.3" y="-85.21" font-family="Helvetica,sans-Serif" font-size="10.00" fill="#000000">path_calculator</text>
</g>
<!-- srepkg_path_builders&#45;&gt;srepkg_path_calculator -->
<g id="edge5" class="edge">
<title>srepkg_path_builders&#45;&gt;srepkg_path_calculator</title><style>.edge>path:hover{stroke-width:8}</style>
<path fill="none" stroke="black" d="M353.1,-150.16C353.41,-142.3 353.77,-133.16 354.11,-124.57"/>
<polygon fill="#21bfbf" stroke="black" points="357.61,-124.62 354.5,-114.49 350.61,-124.34 357.61,-124.62"/>
</g>
<!-- srepkg_path_builders_class_builder -->
<g id="node6" class="node">
<title>srepkg_path_builders_class_builder</title><style>.edge>path:hover{stroke-width:8}</style>
<ellipse fill="#3ab0b0" stroke="black" cx="393.3" cy="-257.84" rx="54.39" ry="28.98"/>
<text text-anchor="middle" x="393.3" y="-266.34" font-family="Helvetica,sans-Serif" font-size="10.00" fill="#000000">srepkg.</text>
<text text-anchor="middle" x="393.3" y="-255.34" font-family="Helvetica,sans-Serif" font-size="10.00" fill="#000000">path_builders.</text>
<text text-anchor="middle" x="393.3" y="-244.34" font-family="Helvetica,sans-Serif" font-size="10.00" fill="#000000">class_builder</text>
</g>
<!-- srepkg_path_builders_class_builder&#45;&gt;srepkg_path_builders -->
<g id="edge6" class="edge">
<title>srepkg_path_builders_class_builder&#45;&gt;srepkg_path_builders</title><style>.edge>path:hover{stroke-width:8}</style>
<path fill="none" stroke="black" d="M379.87,-229.27C375.58,-220.47 370.83,-210.69 366.49,-201.78"/>
<polygon fill="#3ab0b0" stroke="black" points="369.51,-199.99 361.98,-192.53 363.21,-203.05 369.51,-199.99"/>
</g>
<!-- srepkg_path_builders_file_structures -->
<g id="node7" class="node">
<title>srepkg_path_builders_file_structures</title><style>.edge>path:hover{stroke-width:8}</style>
<ellipse fill="#3bcece" stroke="black" cx="352.3" cy="-351.83" rx="55.31" ry="28.98"/>
<text text-anchor="middle" x="352.3" y="-360.33" font-family="Helvetica,sans-Serif" font-size="10.00" fill="#000000">srepkg.</text>
<text text-anchor="middle" x="352.3" y="-349.33" font-family="Helvetica,sans-Serif" font-size="10.00" fill="#000000">path_builders.</text>
<text text-anchor="middle" x="352.3" y="-338.33" font-family="Helvetica,sans-Serif" font-size="10.00" fill="#000000">file_structures</text>
</g>
<!-- srepkg_path_builders_file_structures&#45;&gt;srepkg_path_builders -->
<g id="edge7" class="edge">
<title>srepkg_path_builders_file_structures&#45;&gt;srepkg_path_builders</title><style>.edge>path:hover{stroke-width:8}</style>
<path fill="none" stroke="black" d="M340.6,-323.31C336.47,-312.2 332.35,-299.12 330.3,-286.84 326.05,-261.42 325.52,-254.18 330.3,-228.85 331.99,-219.9 335.07,-210.54 338.4,-202.08"/>
<polygon fill="#3bcece" stroke="black" points="341.71,-203.23 342.36,-192.65 335.26,-200.52 341.71,-203.23"/>
</g>
<!-- srepkg_path_builders_file_structures&#45;&gt;srepkg_path_builders_class_builder -->
<g id="edge8" class="edge">
<title>srepkg_path_builders_file_structures&#45;&gt;srepkg_path_builders_class_builder</title><style>.edge>path:hover{stroke-width:8}</style>
<path fill="none" stroke="black" d="M364.6,-323.23C368.48,-314.51 372.84,-304.73 376.96,-295.49"/>
<polygon fill="#3bcece" stroke="black" points="380.27,-296.66 381.15,-286.11 373.88,-293.81 380.27,-296.66"/>
</g>
<!-- srepkg_path_calculator&#45;&gt;srepkg_srepkg -->
<g id="edge9" class="edge">
<title>srepkg_path_calculator&#45;&gt;srepkg_srepkg</title><style>.edge>path:hover{stroke-width:8}</style>
<path fill="none" stroke="black" d="M337.17,-72.98C328.47,-63.75 317.97,-52.61 308.77,-42.85"/>
<polygon fill="#3db8b8" stroke="black" points="311.14,-40.26 301.73,-35.38 306.04,-45.06 311.14,-40.26"/>
</g>
<!-- srepkg_setup_file_reader&#45;&gt;srepkg_orig_pkg_inspector -->
<g id="edge10" class="edge">
<title>srepkg_setup_file_reader&#45;&gt;srepkg_orig_pkg_inspector</title><style>.edge>path:hover{stroke-width:8}</style>
<path fill="none" stroke="black" d="M69.3,-150.16C69.3,-142.3 69.3,-133.16 69.3,-124.57"/>
<polygon fill="#40bfc0" stroke="black" points="72.8,-124.49 69.3,-114.49 65.8,-124.49 72.8,-124.49"/>
</g>
<!-- srepkg_srepkg_builder&#45;&gt;srepkg_srepkg -->
<g id="edge11" class="edge">
<title>srepkg_srepkg_builder&#45;&gt;srepkg_srepkg</title><style>.edge>path:hover{stroke-width:8}</style>
<path fill="none" stroke="black" d="M453.38,-78.1C417.73,-65.49 365.64,-47.06 329.13,-34.15"/>
<polygon fill="#3db8b8" stroke="black" points="329.86,-30.7 319.27,-30.66 327.53,-37.3 329.86,-30.7"/>
</g>
</g>
</svg>
