<?xml version="1.0" encoding="UTF-8" standalone="no"?>
<!DOCTYPE svg PUBLIC "-//W3C//DTD SVG 1.1//EN"
 "http://www.w3.org/Graphics/SVG/1.1/DTD/svg11.dtd">
<!-- Generated by graphviz version 3.0.0 (20220226.1711)
 -->
<!-- Title: G Pages: 1 -->
<svg width="616pt" height="345pt"
 viewBox="0.00 0.00 616.24 344.85" xmlns="http://www.w3.org/2000/svg" xmlns:xlink="http://www.w3.org/1999/xlink">
<g id="graph0" class="graph" transform="scale(1 1) rotate(0) translate(4 340.85)">
<title>G</title><style>.edge>path:hover{stroke-width:8}</style>
<polygon fill="white" stroke="transparent" points="-4,4 -4,-340.85 612.24,-340.85 612.24,4 -4,4"/>
<!-- srepkg_command_input -->
<g id="node1" class="node">
<title>srepkg_command_input</title><style>.edge>path:hover{stroke-width:8}</style>
<ellipse fill="#c24747" stroke="black" cx="352.5" cy="-93.21" rx="50.75" ry="18"/>
<text text-anchor="middle" x="352.5" y="-90.71" font-family="Helvetica,sans-Serif" font-size="10.00" fill="#ffffff">command_input</text>
</g>
<!-- srepkg_srepkg -->
<g id="node10" class="node">
<title>srepkg_srepkg</title><style>.edge>path:hover{stroke-width:8}</style>
<ellipse fill="#a44646" stroke="black" cx="298.5" cy="-18" rx="27.16" ry="18"/>
<text text-anchor="middle" x="298.5" y="-15.5" font-family="Helvetica,sans-Serif" font-size="10.00" fill="#ffffff">srepkg</text>
</g>
<!-- srepkg_command_input&#45;&gt;srepkg_srepkg -->
<g id="edge1" class="edge">
<title>srepkg_command_input&#45;&gt;srepkg_srepkg</title><style>.edge>path:hover{stroke-width:8}</style>
<path fill="none" stroke="black" d="M340.25,-75.6C333.08,-65.88 323.91,-53.45 315.99,-42.71"/>
<polygon fill="#c24747" stroke="black" points="318.72,-40.52 309.97,-34.55 313.09,-44.67 318.72,-40.52"/>
</g>
<!-- srepkg_entry_points_builder -->
<g id="node2" class="node">
<title>srepkg_entry_points_builder</title><style>.edge>path:hover{stroke-width:8}</style>
<ellipse fill="#c04040" stroke="black" cx="261.5" cy="-240.43" rx="61.44" ry="18"/>
<text text-anchor="middle" x="261.5" y="-237.93" font-family="Helvetica,sans-Serif" font-size="10.00" fill="#ffffff">entry_points_builder</text>
</g>
<!-- srepkg_srepkg_builder -->
<g id="node11" class="node">
<title>srepkg_srepkg_builder</title><style>.edge>path:hover{stroke-width:8}</style>
<ellipse fill="#b83d3d" stroke="black" cx="261.5" cy="-168.43" rx="47.19" ry="18"/>
<text text-anchor="middle" x="261.5" y="-165.93" font-family="Helvetica,sans-Serif" font-size="10.00" fill="#ffffff">srepkg_builder</text>
</g>
<!-- srepkg_entry_points_builder&#45;&gt;srepkg_srepkg_builder -->
<g id="edge2" class="edge">
<title>srepkg_entry_points_builder&#45;&gt;srepkg_srepkg_builder</title><style>.edge>path:hover{stroke-width:8}</style>
<path fill="none" stroke="black" d="M261.5,-222.12C261.5,-214.41 261.5,-205.14 261.5,-196.54"/>
<polygon fill="#c04040" stroke="black" points="265,-196.53 261.5,-186.53 258,-196.53 265,-196.53"/>
</g>
<!-- srepkg_file_structure -->
<g id="node3" class="node">
<title>srepkg_file_structure</title><style>.edge>path:hover{stroke-width:8}</style>
<ellipse fill="#bf2121" stroke="black" cx="462.5" cy="-240.43" rx="42.94" ry="18"/>
<text text-anchor="middle" x="462.5" y="-237.93" font-family="Helvetica,sans-Serif" font-size="10.00" fill="#ffffff">file_structure</text>
</g>
<!-- srepkg_path_calculator -->
<g id="node7" class="node">
<title>srepkg_path_calculator</title><style>.edge>path:hover{stroke-width:8}</style>
<ellipse fill="#b83d3d" stroke="black" cx="402.5" cy="-168.43" rx="48.72" ry="18"/>
<text text-anchor="middle" x="402.5" y="-165.93" font-family="Helvetica,sans-Serif" font-size="10.00" fill="#ffffff">path_calculator</text>
</g>
<!-- srepkg_file_structure&#45;&gt;srepkg_path_calculator -->
<g id="edge3" class="edge">
<title>srepkg_file_structure&#45;&gt;srepkg_path_calculator</title><style>.edge>path:hover{stroke-width:8}</style>
<path fill="none" stroke="black" d="M448.59,-223.19C441.12,-214.48 431.77,-203.57 423.45,-193.86"/>
<polygon fill="#bf2121" stroke="black" points="425.93,-191.37 416.76,-186.06 420.61,-195.93 425.93,-191.37"/>
</g>
<!-- srepkg_paths_class_builder_builder -->
<g id="node8" class="node">
<title>srepkg_paths_class_builder_builder</title><style>.edge>path:hover{stroke-width:8}</style>
<ellipse fill="#ac4949" stroke="black" cx="495.5" cy="-93.21" rx="74.49" ry="21.43"/>
<text text-anchor="middle" x="495.5" y="-96.21" font-family="Helvetica,sans-Serif" font-size="10.00" fill="#ffffff">paths_class_builder.</text>
<text text-anchor="middle" x="495.5" y="-85.21" font-family="Helvetica,sans-Serif" font-size="10.00" fill="#ffffff">builder</text>
</g>
<!-- srepkg_file_structure&#45;&gt;srepkg_paths_class_builder_builder -->
<g id="edge4" class="edge">
<title>srepkg_file_structure&#45;&gt;srepkg_paths_class_builder_builder</title><style>.edge>path:hover{stroke-width:8}</style>
<path fill="none" stroke="black" d="M466.35,-222.48C471.8,-198.53 481.84,-154.36 488.59,-124.63"/>
<polygon fill="#bf2121" stroke="black" points="492.03,-125.3 490.83,-114.78 485.2,-123.75 492.03,-125.3"/>
</g>
<!-- srepkg_file_structure_fs_specs -->
<g id="node4" class="node">
<title>srepkg_file_structure_fs_specs</title><style>.edge>path:hover{stroke-width:8}</style>
<ellipse fill="#c24747" stroke="black" cx="554.5" cy="-315.64" rx="53.98" ry="21.43"/>
<text text-anchor="middle" x="554.5" y="-318.64" font-family="Helvetica,sans-Serif" font-size="10.00" fill="#ffffff">file_structure.</text>
<text text-anchor="middle" x="554.5" y="-307.64" font-family="Helvetica,sans-Serif" font-size="10.00" fill="#ffffff">fs_specs</text>
</g>
<!-- srepkg_file_structure_fs_specs&#45;&gt;srepkg_file_structure -->
<g id="edge5" class="edge">
<title>srepkg_file_structure_fs_specs&#45;&gt;srepkg_file_structure</title><style>.edge>path:hover{stroke-width:8}</style>
<path fill="none" stroke="black" d="M531.29,-296.16C518.59,-286.06 502.8,-273.49 489.55,-262.95"/>
<polygon fill="#c24747" stroke="black" points="491.68,-260.17 481.68,-256.69 487.32,-265.65 491.68,-260.17"/>
</g>
<!-- srepkg_file_structure_fs_util -->
<g id="node5" class="node">
<title>srepkg_file_structure_fs_util</title><style>.edge>path:hover{stroke-width:8}</style>
<ellipse fill="#c24747" stroke="black" cx="429.5" cy="-315.64" rx="53.98" ry="21.43"/>
<text text-anchor="middle" x="429.5" y="-318.64" font-family="Helvetica,sans-Serif" font-size="10.00" fill="#ffffff">file_structure.</text>
<text text-anchor="middle" x="429.5" y="-307.64" font-family="Helvetica,sans-Serif" font-size="10.00" fill="#ffffff">fs_util</text>
</g>
<!-- srepkg_file_structure_fs_util&#45;&gt;srepkg_file_structure -->
<g id="edge6" class="edge">
<title>srepkg_file_structure_fs_util&#45;&gt;srepkg_file_structure</title><style>.edge>path:hover{stroke-width:8}</style>
<path fill="none" stroke="black" d="M438.52,-294.63C442.28,-286.3 446.69,-276.51 450.7,-267.62"/>
<polygon fill="#c24747" stroke="black" points="453.92,-268.99 454.84,-258.43 447.54,-266.11 453.92,-268.99"/>
</g>
<!-- srepkg_orig_pkg_inspector -->
<g id="node6" class="node">
<title>srepkg_orig_pkg_inspector</title><style>.edge>path:hover{stroke-width:8}</style>
<ellipse fill="#b03a3a" stroke="black" cx="138.5" cy="-168.43" rx="57.88" ry="18"/>
<text text-anchor="middle" x="138.5" y="-165.93" font-family="Helvetica,sans-Serif" font-size="10.00" fill="#ffffff">orig_pkg_inspector</text>
</g>
<!-- srepkg_repackager -->
<g id="node9" class="node">
<title>srepkg_repackager</title><style>.edge>path:hover{stroke-width:8}</style>
<ellipse fill="#a83838" stroke="black" cx="245.5" cy="-93.21" rx="38.03" ry="18"/>
<text text-anchor="middle" x="245.5" y="-90.71" font-family="Helvetica,sans-Serif" font-size="10.00" fill="#ffffff">repackager</text>
</g>
<!-- srepkg_orig_pkg_inspector&#45;&gt;srepkg_repackager -->
<g id="edge7" class="edge">
<title>srepkg_orig_pkg_inspector&#45;&gt;srepkg_repackager</title><style>.edge>path:hover{stroke-width:8}</style>
<path fill="none" stroke="black" d="M161.46,-151.72C177.46,-140.77 198.94,-126.07 216.18,-114.28"/>
<polygon fill="#b03a3a" stroke="black" points="218.49,-116.94 224.76,-108.41 214.53,-111.16 218.49,-116.94"/>
</g>
<!-- srepkg_path_calculator&#45;&gt;srepkg_repackager -->
<g id="edge8" class="edge">
<title>srepkg_path_calculator&#45;&gt;srepkg_repackager</title><style>.edge>path:hover{stroke-width:8}</style>
<path fill="none" stroke="black" d="M373.34,-153.83C347.24,-141.66 308.91,-123.78 281.03,-110.78"/>
<polygon fill="#b83d3d" stroke="black" points="282.18,-107.46 271.64,-106.4 279.23,-113.8 282.18,-107.46"/>
</g>
<!-- srepkg_repackager&#45;&gt;srepkg_srepkg -->
<g id="edge9" class="edge">
<title>srepkg_repackager&#45;&gt;srepkg_srepkg</title><style>.edge>path:hover{stroke-width:8}</style>
<path fill="none" stroke="black" d="M257.27,-75.96C264.29,-66.26 273.35,-53.75 281.18,-42.93"/>
<polygon fill="#a83838" stroke="black" points="284.11,-44.85 287.14,-34.7 278.44,-40.75 284.11,-44.85"/>
</g>
<!-- srepkg_srepkg_builder&#45;&gt;srepkg_repackager -->
<g id="edge10" class="edge">
<title>srepkg_srepkg_builder&#45;&gt;srepkg_repackager</title><style>.edge>path:hover{stroke-width:8}</style>
<path fill="none" stroke="black" d="M257.79,-150.45C255.91,-141.82 253.57,-131.13 251.45,-121.4"/>
<polygon fill="#b83d3d" stroke="black" points="254.8,-120.38 249.25,-111.36 247.97,-121.87 254.8,-120.38"/>
</g>
<!-- utils -->
<g id="node12" class="node">
<title>utils</title><style>.edge>path:hover{stroke-width:8}</style>
<ellipse fill="#53b653" stroke="black" cx="138.5" cy="-315.64" rx="27" ry="18"/>
<text text-anchor="middle" x="138.5" y="-313.14" font-family="Helvetica,sans-Serif" font-size="10.00" fill="#000000">utils</text>
</g>
<!-- utils&#45;&gt;srepkg_orig_pkg_inspector -->
<g id="edge11" class="edge">
<title>utils&#45;&gt;srepkg_orig_pkg_inspector</title><style>.edge>path:hover{stroke-width:8}</style>
<path fill="none" stroke="black" d="M139.12,-297.46C139.51,-282.61 139.73,-260.58 138.5,-241.43"/>
</g>
<!-- utils_cd_context_manager -->
<g id="node13" class="node">
<title>utils_cd_context_manager</title><style>.edge>path:hover{stroke-width:8}</style>
<ellipse fill="#53b653" stroke="black" cx="259.5" cy="-315.64" rx="75.82" ry="21.43"/>
<text text-anchor="middle" x="259.5" y="-318.64" font-family="Helvetica,sans-Serif" font-size="10.00" fill="#000000">utils.</text>
<text text-anchor="middle" x="259.5" y="-307.64" font-family="Helvetica,sans-Serif" font-size="10.00" fill="#000000">cd_context_manager</text>
</g>
<!-- utils_cd_context_manager&#45;&gt;srepkg_orig_pkg_inspector -->
<g id="edge12" class="edge">
<title>utils_cd_context_manager&#45;&gt;srepkg_orig_pkg_inspector</title><style>.edge>path:hover{stroke-width:8}</style>
<path fill="none" stroke="black" d="M201.56,-301.92C171.47,-291.52 140.54,-273.16 138.5,-241.43"/>
</g>
<!-- wheel_inspect -->
<g id="node14" class="node">
<title>wheel_inspect</title><style>.edge>path:hover{stroke-width:8}</style>
<ellipse fill="#5353b6" stroke="black" cx="46.5" cy="-315.64" rx="46.51" ry="18"/>
<text text-anchor="middle" x="46.5" y="-313.14" font-family="Helvetica,sans-Serif" font-size="10.00" fill="#ffffff">wheel_inspect</text>
</g>
<!-- wheel_inspect&#45;&gt;srepkg_orig_pkg_inspector -->
<g id="edge13" class="edge">
<title>wheel_inspect&#45;&gt;srepkg_orig_pkg_inspector</title><style>.edge>path:hover{stroke-width:8}</style>
<path fill="none" stroke="black" d="M80.97,-303.43C107.9,-292.26 140.48,-272.29 138.5,-241.43"/>
<path fill="none" stroke="black" d="M138.5,-239.43C137.61,-225.4 137.52,-209.77 137.69,-196.84"/>
<polygon fill="#5353b6" stroke="black" points="141.2,-196.77 137.89,-186.71 134.2,-196.64 141.2,-196.77"/>
</g>
</g>
</svg>
