<?xml version="1.0" encoding="UTF-8" standalone="no"?>
<!DOCTYPE svg PUBLIC "-//W3C//DTD SVG 1.1//EN"
 "http://www.w3.org/Graphics/SVG/1.1/DTD/svg11.dtd">
<!-- Generated by graphviz version 3.0.0 (20220226.1711)
 -->
<!-- Title: G Pages: 1 -->
<svg width="471pt" height="423pt"
 viewBox="0.00 0.00 470.72 423.28" xmlns="http://www.w3.org/2000/svg" xmlns:xlink="http://www.w3.org/1999/xlink">
<g id="graph0" class="graph" transform="scale(1 1) rotate(0) translate(4 419.28)">
<title>G</title><style>.edge>path:hover{stroke-width:8}</style>
<polygon fill="white" stroke="transparent" points="-4,4 -4,-419.28 466.72,-419.28 466.72,4 -4,4"/>
<!-- srepkg_command_input -->
<g id="node1" class="node">
<title>srepkg_command_input</title><style>.edge>path:hover{stroke-width:8}</style>
<ellipse fill="#c24747" stroke="black" cx="50.63" cy="-90" rx="50.75" ry="18"/>
<text text-anchor="middle" x="50.63" y="-87.5" font-family="Helvetica,sans-Serif" font-size="10.00" fill="#ffffff">command_input</text>
</g>
<!-- srepkg_srepkg -->
<g id="node12" class="node">
<title>srepkg_srepkg</title><style>.edge>path:hover{stroke-width:8}</style>
<ellipse fill="#964040" stroke="black" cx="229.63" cy="-18" rx="27.16" ry="18"/>
<text text-anchor="middle" x="229.63" y="-15.5" font-family="Helvetica,sans-Serif" font-size="10.00" fill="#ffffff">srepkg</text>
</g>
<!-- srepkg_command_input&#45;&gt;srepkg_srepkg -->
<g id="edge1" class="edge">
<title>srepkg_command_input&#45;&gt;srepkg_srepkg</title><style>.edge>path:hover{stroke-width:8}</style>
<path fill="none" stroke="black" d="M83.46,-76.16C115.93,-63.46 165.3,-44.15 197.52,-31.56"/>
<polygon fill="#c24747" stroke="black" points="198.89,-34.78 206.93,-27.88 196.34,-28.26 198.89,-34.78"/>
</g>
<!-- srepkg_orig_pkg_inspector -->
<g id="node2" class="node">
<title>srepkg_orig_pkg_inspector</title><style>.edge>path:hover{stroke-width:8}</style>
<ellipse fill="#b83d3d" stroke="black" cx="292.63" cy="-90" rx="57.88" ry="18"/>
<text text-anchor="middle" x="292.63" y="-87.5" font-family="Helvetica,sans-Serif" font-size="10.00" fill="#ffffff">orig_pkg_inspector</text>
</g>
<!-- srepkg_orig_pkg_inspector&#45;&gt;srepkg_srepkg -->
<g id="edge2" class="edge">
<title>srepkg_orig_pkg_inspector&#45;&gt;srepkg_srepkg</title><style>.edge>path:hover{stroke-width:8}</style>
<path fill="none" stroke="black" d="M277.69,-72.41C269.43,-63.22 259.03,-51.67 250.02,-41.66"/>
<polygon fill="#b83d3d" stroke="black" points="252.45,-39.13 243.16,-34.04 247.25,-43.81 252.45,-39.13"/>
</g>
<!-- srepkg_path_builders -->
<g id="node3" class="node">
<title>srepkg_path_builders</title><style>.edge>path:hover{stroke-width:8}</style>
<ellipse fill="#bf2121" stroke="black" cx="167.63" cy="-162" rx="43.62" ry="18"/>
<text text-anchor="middle" x="167.63" y="-159.5" font-family="Helvetica,sans-Serif" font-size="10.00" fill="#ffffff">path_builders</text>
</g>
<!-- srepkg_path_calculator -->
<g id="node6" class="node">
<title>srepkg_path_calculator</title><style>.edge>path:hover{stroke-width:8}</style>
<ellipse fill="#b03a3a" stroke="black" cx="167.63" cy="-90" rx="48.72" ry="18"/>
<text text-anchor="middle" x="167.63" y="-87.5" font-family="Helvetica,sans-Serif" font-size="10.00" fill="#ffffff">path_calculator</text>
</g>
<!-- srepkg_path_builders&#45;&gt;srepkg_path_calculator -->
<g id="edge3" class="edge">
<title>srepkg_path_builders&#45;&gt;srepkg_path_calculator</title><style>.edge>path:hover{stroke-width:8}</style>
<path fill="none" stroke="black" d="M167.63,-143.7C167.63,-135.98 167.63,-126.71 167.63,-118.11"/>
<polygon fill="#bf2121" stroke="black" points="171.13,-118.1 167.63,-108.1 164.13,-118.1 171.13,-118.1"/>
</g>
<!-- srepkg_path_builders_file_structures -->
<g id="node4" class="node">
<title>srepkg_path_builders_file_structures</title><style>.edge>path:hover{stroke-width:8}</style>
<ellipse fill="#ce3b3b" stroke="black" cx="147.63" cy="-315.64" rx="55.31" ry="21.43"/>
<text text-anchor="middle" x="147.63" y="-318.64" font-family="Helvetica,sans-Serif" font-size="10.00" fill="#ffffff">path_builders.</text>
<text text-anchor="middle" x="147.63" y="-307.64" font-family="Helvetica,sans-Serif" font-size="10.00" fill="#ffffff">file_structures</text>
</g>
<!-- srepkg_path_builders_file_structures&#45;&gt;srepkg_path_builders -->
<g id="edge4" class="edge">
<title>srepkg_path_builders_file_structures&#45;&gt;srepkg_path_builders</title><style>.edge>path:hover{stroke-width:8}</style>
<path fill="none" stroke="black" d="M122.05,-296.59C110.42,-286.79 97.88,-273.58 91.63,-258.43 84.43,-241 82.9,-232.72 91.63,-216 99.7,-200.53 114.58,-188.65 129.04,-180.1"/>
<polygon fill="#ce3b3b" stroke="black" points="130.86,-183.1 137.93,-175.21 127.49,-176.96 130.86,-183.1"/>
</g>
<!-- srepkg_path_builders_paths_class_builder -->
<g id="node5" class="node">
<title>srepkg_path_builders_paths_class_builder</title><style>.edge>path:hover{stroke-width:8}</style>
<ellipse fill="#b03a3a" stroke="black" cx="173.63" cy="-237.21" rx="72.66" ry="21.43"/>
<text text-anchor="middle" x="173.63" y="-240.21" font-family="Helvetica,sans-Serif" font-size="10.00" fill="#ffffff">path_builders.</text>
<text text-anchor="middle" x="173.63" y="-229.21" font-family="Helvetica,sans-Serif" font-size="10.00" fill="#ffffff">paths_class_builder</text>
</g>
<!-- srepkg_path_builders_file_structures&#45;&gt;srepkg_path_builders_paths_class_builder -->
<g id="edge5" class="edge">
<title>srepkg_path_builders_file_structures&#45;&gt;srepkg_path_builders_paths_class_builder</title><style>.edge>path:hover{stroke-width:8}</style>
<path fill="none" stroke="black" d="M154.46,-294.56C157.21,-286.46 160.45,-276.95 163.47,-268.07"/>
<polygon fill="#ce3b3b" stroke="black" points="166.84,-269.02 166.75,-258.42 160.21,-266.76 166.84,-269.02"/>
</g>
<!-- srepkg_path_builders_paths_class_builder&#45;&gt;srepkg_path_builders -->
<g id="edge6" class="edge">
<title>srepkg_path_builders_paths_class_builder&#45;&gt;srepkg_path_builders</title><style>.edge>path:hover{stroke-width:8}</style>
<path fill="none" stroke="black" d="M171.95,-215.82C171.31,-207.97 170.56,-198.86 169.87,-190.45"/>
<polygon fill="#b03a3a" stroke="black" points="173.35,-189.99 169.04,-180.31 166.37,-190.56 173.35,-189.99"/>
</g>
<!-- srepkg_path_calculator&#45;&gt;srepkg_srepkg -->
<g id="edge7" class="edge">
<title>srepkg_path_calculator&#45;&gt;srepkg_srepkg</title><style>.edge>path:hover{stroke-width:8}</style>
<path fill="none" stroke="black" d="M182,-72.76C190.13,-63.59 200.43,-51.96 209.36,-41.88"/>
<polygon fill="#b03a3a" stroke="black" points="212.16,-44 216.17,-34.19 206.92,-39.35 212.16,-44"/>
</g>
<!-- srepkg_shared_utils -->
<g id="node7" class="node">
<title>srepkg_shared_utils</title><style>.edge>path:hover{stroke-width:8}</style>
<ellipse fill="#db0505" stroke="black" cx="292.63" cy="-162" rx="40.74" ry="18"/>
<text text-anchor="middle" x="292.63" y="-159.5" font-family="Helvetica,sans-Serif" font-size="10.00" fill="#ffffff">shared_utils</text>
</g>
<!-- srepkg_shared_utils&#45;&gt;srepkg_orig_pkg_inspector -->
<g id="edge8" class="edge">
<title>srepkg_shared_utils&#45;&gt;srepkg_orig_pkg_inspector</title><style>.edge>path:hover{stroke-width:8}</style>
<path fill="none" stroke="black" d="M292.63,-143.7C292.63,-135.98 292.63,-126.71 292.63,-118.11"/>
<polygon fill="#db0505" stroke="black" points="296.13,-118.1 292.63,-108.1 289.13,-118.1 296.13,-118.1"/>
</g>
<!-- srepkg_shared_utils&#45;&gt;srepkg_path_calculator -->
<g id="edge9" class="edge">
<title>srepkg_shared_utils&#45;&gt;srepkg_path_calculator</title><style>.edge>path:hover{stroke-width:8}</style>
<path fill="none" stroke="black" d="M268.52,-147.5C249.74,-136.98 223.39,-122.23 202.33,-110.44"/>
<polygon fill="#db0505" stroke="black" points="203.81,-107.25 193.37,-105.42 200.39,-113.36 203.81,-107.25"/>
</g>
<!-- srepkg_srepkg_builder -->
<g id="node13" class="node">
<title>srepkg_srepkg_builder</title><style>.edge>path:hover{stroke-width:8}</style>
<ellipse fill="#b83d3d" stroke="black" cx="415.63" cy="-90" rx="47.19" ry="18"/>
<text text-anchor="middle" x="415.63" y="-87.5" font-family="Helvetica,sans-Serif" font-size="10.00" fill="#ffffff">srepkg_builder</text>
</g>
<!-- srepkg_shared_utils&#45;&gt;srepkg_srepkg_builder -->
<g id="edge10" class="edge">
<title>srepkg_shared_utils&#45;&gt;srepkg_srepkg_builder</title><style>.edge>path:hover{stroke-width:8}</style>
<path fill="none" stroke="black" d="M316.63,-147.34C335.15,-136.8 360.99,-122.09 381.63,-110.35"/>
<polygon fill="#db0505" stroke="black" points="383.45,-113.34 390.41,-105.35 379.99,-107.25 383.45,-113.34"/>
</g>
<!-- srepkg_shared_utils_builder_dest_paths -->
<g id="node8" class="node">
<title>srepkg_shared_utils_builder_dest_paths</title><style>.edge>path:hover{stroke-width:8}</style>
<ellipse fill="#c24747" stroke="black" cx="235.63" cy="-394.07" rx="69.09" ry="21.43"/>
<text text-anchor="middle" x="235.63" y="-397.07" font-family="Helvetica,sans-Serif" font-size="10.00" fill="#ffffff">shared_utils.</text>
<text text-anchor="middle" x="235.63" y="-386.07" font-family="Helvetica,sans-Serif" font-size="10.00" fill="#ffffff">builder_dest_paths</text>
</g>
<!-- srepkg_shared_utils_named_tuples -->
<g id="node11" class="node">
<title>srepkg_shared_utils_named_tuples</title><style>.edge>path:hover{stroke-width:8}</style>
<ellipse fill="#b42d2d" stroke="black" cx="312.63" cy="-315.64" rx="54.39" ry="21.43"/>
<text text-anchor="middle" x="312.63" y="-318.64" font-family="Helvetica,sans-Serif" font-size="10.00" fill="#ffffff">shared_utils.</text>
<text text-anchor="middle" x="312.63" y="-307.64" font-family="Helvetica,sans-Serif" font-size="10.00" fill="#ffffff">named_tuples</text>
</g>
<!-- srepkg_shared_utils_builder_dest_paths&#45;&gt;srepkg_shared_utils_named_tuples -->
<g id="edge11" class="edge">
<title>srepkg_shared_utils_builder_dest_paths&#45;&gt;srepkg_shared_utils_named_tuples</title><style>.edge>path:hover{stroke-width:8}</style>
<path fill="none" stroke="black" d="M255.45,-373.38C264.76,-364.15 275.98,-353.01 286.01,-343.06"/>
<polygon fill="#c24747" stroke="black" points="288.76,-345.26 293.39,-335.73 283.83,-340.29 288.76,-345.26"/>
</g>
<!-- srepkg_shared_utils_builder_src_paths -->
<g id="node9" class="node">
<title>srepkg_shared_utils_builder_src_paths</title><style>.edge>path:hover{stroke-width:8}</style>
<ellipse fill="#c24747" stroke="black" cx="388.63" cy="-394.07" rx="65.52" ry="21.43"/>
<text text-anchor="middle" x="388.63" y="-397.07" font-family="Helvetica,sans-Serif" font-size="10.00" fill="#ffffff">shared_utils.</text>
<text text-anchor="middle" x="388.63" y="-386.07" font-family="Helvetica,sans-Serif" font-size="10.00" fill="#ffffff">builder_src_paths</text>
</g>
<!-- srepkg_shared_utils_builder_src_paths&#45;&gt;srepkg_shared_utils_named_tuples -->
<g id="edge12" class="edge">
<title>srepkg_shared_utils_builder_src_paths&#45;&gt;srepkg_shared_utils_named_tuples</title><style>.edge>path:hover{stroke-width:8}</style>
<path fill="none" stroke="black" d="M369.05,-373.38C359.87,-364.15 348.79,-353.01 338.89,-343.06"/>
<polygon fill="#c24747" stroke="black" points="341.14,-340.35 331.61,-335.73 336.17,-345.29 341.14,-340.35"/>
</g>
<!-- srepkg_shared_utils_ep_console_script -->
<g id="node10" class="node">
<title>srepkg_shared_utils_ep_console_script</title><style>.edge>path:hover{stroke-width:8}</style>
<ellipse fill="#b03a3a" stroke="black" cx="381.63" cy="-237.21" rx="67.35" ry="21.43"/>
<text text-anchor="middle" x="381.63" y="-240.21" font-family="Helvetica,sans-Serif" font-size="10.00" fill="#ffffff">shared_utils.</text>
<text text-anchor="middle" x="381.63" y="-229.21" font-family="Helvetica,sans-Serif" font-size="10.00" fill="#ffffff">ep_console_script</text>
</g>
<!-- srepkg_shared_utils_ep_console_script&#45;&gt;srepkg_shared_utils -->
<g id="edge13" class="edge">
<title>srepkg_shared_utils_ep_console_script&#45;&gt;srepkg_shared_utils</title><style>.edge>path:hover{stroke-width:8}</style>
<path fill="none" stroke="black" d="M358.24,-216.98C346.16,-207.04 331.37,-194.87 318.9,-184.61"/>
<polygon fill="#b03a3a" stroke="black" points="321.03,-181.83 311.08,-178.18 316.58,-187.24 321.03,-181.83"/>
</g>
<!-- srepkg_shared_utils_named_tuples&#45;&gt;srepkg_shared_utils -->
<g id="edge14" class="edge">
<title>srepkg_shared_utils_named_tuples&#45;&gt;srepkg_shared_utils</title><style>.edge>path:hover{stroke-width:8}</style>
<path fill="none" stroke="black" d="M309.93,-294.19C306.4,-267.4 300.19,-220.35 296.25,-190.48"/>
<polygon fill="#b42d2d" stroke="black" points="299.69,-189.77 294.91,-180.32 292.75,-190.69 299.69,-189.77"/>
</g>
<!-- srepkg_shared_utils_named_tuples&#45;&gt;srepkg_shared_utils_ep_console_script -->
<g id="edge15" class="edge">
<title>srepkg_shared_utils_named_tuples&#45;&gt;srepkg_shared_utils_ep_console_script</title><style>.edge>path:hover{stroke-width:8}</style>
<path fill="none" stroke="black" d="M330.04,-295.35C338.23,-286.28 348.14,-275.31 357.07,-265.41"/>
<polygon fill="#b42d2d" stroke="black" points="359.88,-267.53 363.98,-257.76 354.68,-262.84 359.88,-267.53"/>
</g>
<!-- srepkg_srepkg_builder&#45;&gt;srepkg_srepkg -->
<g id="edge16" class="edge">
<title>srepkg_srepkg_builder&#45;&gt;srepkg_srepkg</title><style>.edge>path:hover{stroke-width:8}</style>
<path fill="none" stroke="black" d="M383.23,-76.81C349.22,-64.01 296.06,-44 262.04,-31.2"/>
<polygon fill="#b83d3d" stroke="black" points="263.16,-27.88 252.57,-27.63 260.69,-34.43 263.16,-27.88"/>
</g>
</g>
</svg>
