<?xml version="1.0" encoding="UTF-8" standalone="no"?>
<!DOCTYPE svg PUBLIC "-//W3C//DTD SVG 1.1//EN"
 "http://www.w3.org/Graphics/SVG/1.1/DTD/svg11.dtd">
<!-- Generated by graphviz version 3.0.0 (20220226.1711)
 -->
<!-- Title: G Pages: 1 -->
<svg width="553pt" height="483pt"
 viewBox="0.00 0.00 553.38 482.80" xmlns="http://www.w3.org/2000/svg" xmlns:xlink="http://www.w3.org/1999/xlink">
<g id="graph0" class="graph" transform="scale(1 1) rotate(0) translate(4 478.8)">
<title>G</title><style>.edge>path:hover{stroke-width:8}</style>
<polygon fill="white" stroke="transparent" points="-4,4 -4,-478.8 549.38,-478.8 549.38,4 -4,4"/>
<!-- srepkg_command_input -->
<g id="node1" class="node">
<title>srepkg_command_input</title><style>.edge>path:hover{stroke-width:8}</style>
<ellipse fill="#c24747" stroke="black" cx="60.81" cy="-93.21" rx="60.62" ry="21.43"/>
<text text-anchor="middle" x="60.81" y="-96.21" font-family="Helvetica,sans-Serif" font-size="10.00" fill="#ffffff">srepkg.</text>
<text text-anchor="middle" x="60.81" y="-85.21" font-family="Helvetica,sans-Serif" font-size="10.00" fill="#ffffff">command_input</text>
</g>
<!-- srepkg_srepkg -->
<g id="node12" class="node">
<title>srepkg_srepkg</title><style>.edge>path:hover{stroke-width:8}</style>
<ellipse fill="#964040" stroke="black" cx="271.81" cy="-18" rx="45.83" ry="18"/>
<text text-anchor="middle" x="271.81" y="-15.5" font-family="Helvetica,sans-Serif" font-size="10.00" fill="#ffffff">srepkg.srepkg</text>
</g>
<!-- srepkg_command_input&#45;&gt;srepkg_srepkg -->
<g id="edge1" class="edge">
<title>srepkg_command_input&#45;&gt;srepkg_srepkg</title><style>.edge>path:hover{stroke-width:8}</style>
<path fill="none" stroke="black" d="M102.5,-77.75C139.1,-65.05 192.12,-46.65 229.04,-33.84"/>
<polygon fill="#c24747" stroke="black" points="230.23,-37.13 238.53,-30.55 227.94,-30.52 230.23,-37.13"/>
</g>
<!-- srepkg_orig_pkg_inspector -->
<g id="node2" class="node">
<title>srepkg_orig_pkg_inspector</title><style>.edge>path:hover{stroke-width:8}</style>
<ellipse fill="#b83d3d" stroke="black" cx="344.81" cy="-93.21" rx="69.09" ry="21.43"/>
<text text-anchor="middle" x="344.81" y="-96.21" font-family="Helvetica,sans-Serif" font-size="10.00" fill="#ffffff">srepkg.</text>
<text text-anchor="middle" x="344.81" y="-85.21" font-family="Helvetica,sans-Serif" font-size="10.00" fill="#ffffff">orig_pkg_inspector</text>
</g>
<!-- srepkg_orig_pkg_inspector&#45;&gt;srepkg_srepkg -->
<g id="edge2" class="edge">
<title>srepkg_orig_pkg_inspector&#45;&gt;srepkg_srepkg</title><style>.edge>path:hover{stroke-width:8}</style>
<path fill="none" stroke="black" d="M325.25,-72.59C315.96,-63.28 304.79,-52.08 295.07,-42.33"/>
<polygon fill="#b83d3d" stroke="black" points="297.51,-39.82 287.98,-35.21 292.56,-44.76 297.51,-39.82"/>
</g>
<!-- srepkg_path_builders -->
<g id="node3" class="node">
<title>srepkg_path_builders</title><style>.edge>path:hover{stroke-width:8}</style>
<ellipse fill="#bf2121" stroke="black" cx="198.81" cy="-171.64" rx="52.15" ry="21.43"/>
<text text-anchor="middle" x="198.81" y="-174.64" font-family="Helvetica,sans-Serif" font-size="10.00" fill="#ffffff">srepkg.</text>
<text text-anchor="middle" x="198.81" y="-163.64" font-family="Helvetica,sans-Serif" font-size="10.00" fill="#ffffff">path_builders</text>
</g>
<!-- srepkg_path_calculator -->
<g id="node6" class="node">
<title>srepkg_path_calculator</title><style>.edge>path:hover{stroke-width:8}</style>
<ellipse fill="#b03a3a" stroke="black" cx="198.81" cy="-93.21" rx="58.88" ry="21.43"/>
<text text-anchor="middle" x="198.81" y="-96.21" font-family="Helvetica,sans-Serif" font-size="10.00" fill="#ffffff">srepkg.</text>
<text text-anchor="middle" x="198.81" y="-85.21" font-family="Helvetica,sans-Serif" font-size="10.00" fill="#ffffff">path_calculator</text>
</g>
<!-- srepkg_path_builders&#45;&gt;srepkg_path_calculator -->
<g id="edge3" class="edge">
<title>srepkg_path_builders&#45;&gt;srepkg_path_calculator</title><style>.edge>path:hover{stroke-width:8}</style>
<path fill="none" stroke="black" d="M198.81,-150.16C198.81,-142.3 198.81,-133.16 198.81,-124.57"/>
<polygon fill="#bf2121" stroke="black" points="202.31,-124.49 198.81,-114.49 195.31,-124.49 202.31,-124.49"/>
</g>
<!-- srepkg_path_builders_file_structures -->
<g id="node4" class="node">
<title>srepkg_path_builders_file_structures</title><style>.edge>path:hover{stroke-width:8}</style>
<ellipse fill="#ce3b3b" stroke="black" cx="189.81" cy="-351.83" rx="55.31" ry="28.98"/>
<text text-anchor="middle" x="189.81" y="-360.33" font-family="Helvetica,sans-Serif" font-size="10.00" fill="#ffffff">srepkg.</text>
<text text-anchor="middle" x="189.81" y="-349.33" font-family="Helvetica,sans-Serif" font-size="10.00" fill="#ffffff">path_builders.</text>
<text text-anchor="middle" x="189.81" y="-338.33" font-family="Helvetica,sans-Serif" font-size="10.00" fill="#ffffff">file_structures</text>
</g>
<!-- srepkg_path_builders_file_structures&#45;&gt;srepkg_path_builders -->
<g id="edge4" class="edge">
<title>srepkg_path_builders_file_structures&#45;&gt;srepkg_path_builders</title><style>.edge>path:hover{stroke-width:8}</style>
<path fill="none" stroke="black" d="M159.04,-327.42C147.23,-316.53 135.09,-302.51 128.81,-286.84 119.23,-262.91 117.67,-252.09 128.81,-228.85 135.44,-215.04 147.3,-203.54 159.39,-194.62"/>
<polygon fill="#ce3b3b" stroke="black" points="161.5,-197.42 167.75,-188.86 157.53,-191.66 161.5,-197.42"/>
</g>
<!-- srepkg_path_builders_paths_class_builder -->
<g id="node5" class="node">
<title>srepkg_path_builders_paths_class_builder</title><style>.edge>path:hover{stroke-width:8}</style>
<ellipse fill="#b03a3a" stroke="black" cx="210.81" cy="-257.84" rx="72.66" ry="28.98"/>
<text text-anchor="middle" x="210.81" y="-266.34" font-family="Helvetica,sans-Serif" font-size="10.00" fill="#ffffff">srepkg.</text>
<text text-anchor="middle" x="210.81" y="-255.34" font-family="Helvetica,sans-Serif" font-size="10.00" fill="#ffffff">path_builders.</text>
<text text-anchor="middle" x="210.81" y="-244.34" font-family="Helvetica,sans-Serif" font-size="10.00" fill="#ffffff">paths_class_builder</text>
</g>
<!-- srepkg_path_builders_file_structures&#45;&gt;srepkg_path_builders_paths_class_builder -->
<g id="edge5" class="edge">
<title>srepkg_path_builders_file_structures&#45;&gt;srepkg_path_builders_paths_class_builder</title><style>.edge>path:hover{stroke-width:8}</style>
<path fill="none" stroke="black" d="M196.23,-322.73C198.1,-314.53 200.18,-305.43 202.16,-296.72"/>
<polygon fill="#ce3b3b" stroke="black" points="205.62,-297.3 204.44,-286.77 198.8,-295.74 205.62,-297.3"/>
</g>
<!-- srepkg_path_builders_paths_class_builder&#45;&gt;srepkg_path_builders -->
<g id="edge6" class="edge">
<title>srepkg_path_builders_paths_class_builder&#45;&gt;srepkg_path_builders</title><style>.edge>path:hover{stroke-width:8}</style>
<path fill="none" stroke="black" d="M206.82,-228.81C205.62,-220.44 204.31,-211.23 203.1,-202.74"/>
<polygon fill="#b03a3a" stroke="black" points="206.57,-202.24 201.69,-192.84 199.64,-203.23 206.57,-202.24"/>
</g>
<!-- srepkg_path_calculator&#45;&gt;srepkg_srepkg -->
<g id="edge7" class="edge">
<title>srepkg_path_calculator&#45;&gt;srepkg_srepkg</title><style>.edge>path:hover{stroke-width:8}</style>
<path fill="none" stroke="black" d="M217.99,-72.98C227.42,-63.52 238.85,-52.06 248.75,-42.13"/>
<polygon fill="#b03a3a" stroke="black" points="251.38,-44.45 255.96,-34.9 246.42,-39.51 251.38,-44.45"/>
</g>
<!-- srepkg_shared_utils -->
<g id="node7" class="node">
<title>srepkg_shared_utils</title><style>.edge>path:hover{stroke-width:8}</style>
<ellipse fill="#db0505" stroke="black" cx="344.81" cy="-171.64" rx="48.58" ry="21.43"/>
<text text-anchor="middle" x="344.81" y="-174.64" font-family="Helvetica,sans-Serif" font-size="10.00" fill="#ffffff">srepkg.</text>
<text text-anchor="middle" x="344.81" y="-163.64" font-family="Helvetica,sans-Serif" font-size="10.00" fill="#ffffff">shared_utils</text>
</g>
<!-- srepkg_shared_utils&#45;&gt;srepkg_orig_pkg_inspector -->
<g id="edge8" class="edge">
<title>srepkg_shared_utils&#45;&gt;srepkg_orig_pkg_inspector</title><style>.edge>path:hover{stroke-width:8}</style>
<path fill="none" stroke="black" d="M344.81,-150.16C344.81,-142.3 344.81,-133.16 344.81,-124.57"/>
<polygon fill="#db0505" stroke="black" points="348.31,-124.49 344.81,-114.49 341.31,-124.49 348.31,-124.49"/>
</g>
<!-- srepkg_shared_utils&#45;&gt;srepkg_path_calculator -->
<g id="edge9" class="edge">
<title>srepkg_shared_utils&#45;&gt;srepkg_path_calculator</title><style>.edge>path:hover{stroke-width:8}</style>
<path fill="none" stroke="black" d="M314.56,-154.8C293.03,-143.53 263.84,-128.25 240.16,-115.86"/>
<polygon fill="#db0505" stroke="black" points="241.53,-112.63 231.05,-111.09 238.29,-118.83 241.53,-112.63"/>
</g>
<!-- srepkg_srepkg_builder -->
<g id="node13" class="node">
<title>srepkg_srepkg_builder</title><style>.edge>path:hover{stroke-width:8}</style>
<ellipse fill="#b83d3d" stroke="black" cx="488.81" cy="-93.21" rx="56.64" ry="21.43"/>
<text text-anchor="middle" x="488.81" y="-96.21" font-family="Helvetica,sans-Serif" font-size="10.00" fill="#ffffff">srepkg.</text>
<text text-anchor="middle" x="488.81" y="-85.21" font-family="Helvetica,sans-Serif" font-size="10.00" fill="#ffffff">srepkg_builder</text>
</g>
<!-- srepkg_shared_utils&#45;&gt;srepkg_srepkg_builder -->
<g id="edge10" class="edge">
<title>srepkg_shared_utils&#45;&gt;srepkg_srepkg_builder</title><style>.edge>path:hover{stroke-width:8}</style>
<path fill="none" stroke="black" d="M374.65,-154.8C395.96,-143.49 424.87,-128.15 448.27,-115.73"/>
<polygon fill="#db0505" stroke="black" points="450.07,-118.73 457.27,-110.96 446.79,-112.55 450.07,-118.73"/>
</g>
<!-- srepkg_shared_utils_builder_dest_paths -->
<g id="node8" class="node">
<title>srepkg_shared_utils_builder_dest_paths</title><style>.edge>path:hover{stroke-width:8}</style>
<ellipse fill="#c24747" stroke="black" cx="277.81" cy="-445.81" rx="69.09" ry="28.98"/>
<text text-anchor="middle" x="277.81" y="-454.31" font-family="Helvetica,sans-Serif" font-size="10.00" fill="#ffffff">srepkg.</text>
<text text-anchor="middle" x="277.81" y="-443.31" font-family="Helvetica,sans-Serif" font-size="10.00" fill="#ffffff">shared_utils.</text>
<text text-anchor="middle" x="277.81" y="-432.31" font-family="Helvetica,sans-Serif" font-size="10.00" fill="#ffffff">builder_dest_paths</text>
</g>
<!-- srepkg_shared_utils_named_tuples -->
<g id="node11" class="node">
<title>srepkg_shared_utils_named_tuples</title><style>.edge>path:hover{stroke-width:8}</style>
<ellipse fill="#b42d2d" stroke="black" cx="354.81" cy="-351.83" rx="54.39" ry="28.98"/>
<text text-anchor="middle" x="354.81" y="-360.33" font-family="Helvetica,sans-Serif" font-size="10.00" fill="#ffffff">srepkg.</text>
<text text-anchor="middle" x="354.81" y="-349.33" font-family="Helvetica,sans-Serif" font-size="10.00" fill="#ffffff">shared_utils.</text>
<text text-anchor="middle" x="354.81" y="-338.33" font-family="Helvetica,sans-Serif" font-size="10.00" fill="#ffffff">named_tuples</text>
</g>
<!-- srepkg_shared_utils_builder_dest_paths&#45;&gt;srepkg_shared_utils_named_tuples -->
<g id="edge11" class="edge">
<title>srepkg_shared_utils_builder_dest_paths&#45;&gt;srepkg_shared_utils_named_tuples</title><style>.edge>path:hover{stroke-width:8}</style>
<path fill="none" stroke="black" d="M300.08,-418.2C308.36,-408.31 317.87,-396.95 326.62,-386.51"/>
<polygon fill="#c24747" stroke="black" points="329.39,-388.65 333.12,-378.74 324.02,-384.16 329.39,-388.65"/>
</g>
<!-- srepkg_shared_utils_builder_src_paths -->
<g id="node9" class="node">
<title>srepkg_shared_utils_builder_src_paths</title><style>.edge>path:hover{stroke-width:8}</style>
<ellipse fill="#c24747" stroke="black" cx="430.81" cy="-445.81" rx="65.52" ry="28.98"/>
<text text-anchor="middle" x="430.81" y="-454.31" font-family="Helvetica,sans-Serif" font-size="10.00" fill="#ffffff">srepkg.</text>
<text text-anchor="middle" x="430.81" y="-443.31" font-family="Helvetica,sans-Serif" font-size="10.00" fill="#ffffff">shared_utils.</text>
<text text-anchor="middle" x="430.81" y="-432.31" font-family="Helvetica,sans-Serif" font-size="10.00" fill="#ffffff">builder_src_paths</text>
</g>
<!-- srepkg_shared_utils_builder_src_paths&#45;&gt;srepkg_shared_utils_named_tuples -->
<g id="edge12" class="edge">
<title>srepkg_shared_utils_builder_src_paths&#45;&gt;srepkg_shared_utils_named_tuples</title><style>.edge>path:hover{stroke-width:8}</style>
<path fill="none" stroke="black" d="M408.83,-418.2C400.65,-408.31 391.27,-396.95 382.64,-386.51"/>
<polygon fill="#c24747" stroke="black" points="385.29,-384.22 376.22,-378.74 379.89,-388.68 385.29,-384.22"/>
</g>
<!-- srepkg_shared_utils_ep_console_script -->
<g id="node10" class="node">
<title>srepkg_shared_utils_ep_console_script</title><style>.edge>path:hover{stroke-width:8}</style>
<ellipse fill="#b03a3a" stroke="black" cx="428.81" cy="-257.84" rx="67.35" ry="28.98"/>
<text text-anchor="middle" x="428.81" y="-266.34" font-family="Helvetica,sans-Serif" font-size="10.00" fill="#ffffff">srepkg.</text>
<text text-anchor="middle" x="428.81" y="-255.34" font-family="Helvetica,sans-Serif" font-size="10.00" fill="#ffffff">shared_utils.</text>
<text text-anchor="middle" x="428.81" y="-244.34" font-family="Helvetica,sans-Serif" font-size="10.00" fill="#ffffff">ep_console_script</text>
</g>
<!-- srepkg_shared_utils_ep_console_script&#45;&gt;srepkg_shared_utils -->
<g id="edge13" class="edge">
<title>srepkg_shared_utils_ep_console_script&#45;&gt;srepkg_shared_utils</title><style>.edge>path:hover{stroke-width:8}</style>
<path fill="none" stroke="black" d="M402.69,-230.66C392.46,-220.41 380.76,-208.67 370.56,-198.45"/>
<polygon fill="#b03a3a" stroke="black" points="372.99,-195.93 363.45,-191.32 368.03,-200.87 372.99,-195.93"/>
</g>
<!-- srepkg_shared_utils_named_tuples&#45;&gt;srepkg_shared_utils -->
<g id="edge14" class="edge">
<title>srepkg_shared_utils_named_tuples&#45;&gt;srepkg_shared_utils</title><style>.edge>path:hover{stroke-width:8}</style>
<path fill="none" stroke="black" d="M353.23,-322.59C351.4,-290.01 348.4,-236.61 346.52,-203.11"/>
<polygon fill="#b42d2d" stroke="black" points="350.01,-202.77 345.95,-192.98 343.02,-203.16 350.01,-202.77"/>
</g>
<!-- srepkg_shared_utils_named_tuples&#45;&gt;srepkg_shared_utils_ep_console_script -->
<g id="edge15" class="edge">
<title>srepkg_shared_utils_named_tuples&#45;&gt;srepkg_shared_utils_ep_console_script</title><style>.edge>path:hover{stroke-width:8}</style>
<path fill="none" stroke="black" d="M375.82,-324.71C383.64,-314.99 392.64,-303.8 400.98,-293.43"/>
<polygon fill="#b42d2d" stroke="black" points="403.95,-295.33 407.49,-285.34 398.5,-290.94 403.95,-295.33"/>
</g>
<!-- srepkg_srepkg_builder&#45;&gt;srepkg_srepkg -->
<g id="edge16" class="edge">
<title>srepkg_srepkg_builder&#45;&gt;srepkg_srepkg</title><style>.edge>path:hover{stroke-width:8}</style>
<path fill="none" stroke="black" d="M448,-78.44C410.13,-65.67 353.95,-46.71 315.26,-33.66"/>
<polygon fill="#b83d3d" stroke="black" points="315.93,-30.19 305.33,-30.31 313.69,-36.82 315.93,-30.19"/>
</g>
</g>
</svg>
