<?xml version="1.0" encoding="UTF-8" standalone="no"?>
<!DOCTYPE svg PUBLIC "-//W3C//DTD SVG 1.1//EN"
 "http://www.w3.org/Graphics/SVG/1.1/DTD/svg11.dtd">
<!-- Generated by graphviz version 3.0.0 (20220226.1711)
 -->
<!-- Title: G Pages: 1 -->
<svg width="582pt" height="530pt"
 viewBox="0.00 0.00 581.77 530.11" xmlns="http://www.w3.org/2000/svg" xmlns:xlink="http://www.w3.org/1999/xlink">
<g id="graph0" class="graph" transform="scale(1 1) rotate(0) translate(4 526.11)">
<title>G</title><style>.edge>path:hover{stroke-width:8}</style>
<polygon fill="white" stroke="transparent" points="-4,4 -4,-526.11 577.77,-526.11 577.77,4 -4,4"/>
<!-- setuptools -->
<g id="node1" class="node">
<title>setuptools</title><style>.edge>path:hover{stroke-width:8}</style>
<ellipse fill="#c04040" stroke="black" cx="414.74" cy="-504.11" rx="36.49" ry="18"/>
<text text-anchor="middle" x="414.74" y="-501.61" font-family="Helvetica,sans-Serif" font-size="10.00" fill="#ffffff">setuptools</text>
</g>
<!-- srepkg_setup_file_reader -->
<g id="node11" class="node">
<title>srepkg_setup_file_reader</title><style>.edge>path:hover{stroke-width:8}</style>
<ellipse fill="#40bfc0" stroke="black" cx="414.74" cy="-334.92" rx="64.19" ry="21.43"/>
<text text-anchor="middle" x="414.74" y="-337.92" font-family="Helvetica,sans-Serif" font-size="10.00" fill="#000000">srepkg.</text>
<text text-anchor="middle" x="414.74" y="-326.92" font-family="Helvetica,sans-Serif" font-size="10.00" fill="#000000">setup_file_reader</text>
</g>
<!-- setuptools&#45;&gt;srepkg_setup_file_reader -->
<g id="edge1" class="edge">
<title>setuptools&#45;&gt;srepkg_setup_file_reader</title><style>.edge>path:hover{stroke-width:8}</style>
<path fill="none" stroke="black" d="M414.74,-485.85C414.74,-457.65 414.74,-401.33 414.74,-366.32"/>
<polygon fill="#c04040" stroke="black" points="418.24,-366.19 414.74,-356.19 411.24,-366.19 418.24,-366.19"/>
</g>
<!-- srepkg_another_thing -->
<g id="node2" class="node">
<title>srepkg_another_thing</title><style>.edge>path:hover{stroke-width:8}</style>
<ellipse fill="#47c2c2" stroke="black" cx="520.74" cy="-178.07" rx="53.07" ry="21.43"/>
<text text-anchor="middle" x="520.74" y="-181.07" font-family="Helvetica,sans-Serif" font-size="10.00" fill="#000000">srepkg.</text>
<text text-anchor="middle" x="520.74" y="-170.07" font-family="Helvetica,sans-Serif" font-size="10.00" fill="#000000">another_thing</text>
</g>
<!-- srepkg_thing_controller -->
<g id="node15" class="node">
<title>srepkg_thing_controller</title><style>.edge>path:hover{stroke-width:8}</style>
<ellipse fill="#3ab0b0" stroke="black" cx="464.74" cy="-99.64" rx="58.88" ry="21.43"/>
<text text-anchor="middle" x="464.74" y="-102.64" font-family="Helvetica,sans-Serif" font-size="10.00" fill="#000000">srepkg.</text>
<text text-anchor="middle" x="464.74" y="-91.64" font-family="Helvetica,sans-Serif" font-size="10.00" fill="#000000">thing_controller</text>
</g>
<!-- srepkg_another_thing&#45;&gt;srepkg_thing_controller -->
<g id="edge2" class="edge">
<title>srepkg_another_thing&#45;&gt;srepkg_thing_controller</title><style>.edge>path:hover{stroke-width:8}</style>
<path fill="none" stroke="black" d="M506.32,-157.38C499.85,-148.56 492.11,-137.99 485.07,-128.38"/>
<polygon fill="#47c2c2" stroke="black" points="487.85,-126.25 479.11,-120.25 482.2,-130.39 487.85,-126.25"/>
</g>
<!-- srepkg_command_input -->
<g id="node3" class="node">
<title>srepkg_command_input</title><style>.edge>path:hover{stroke-width:8}</style>
<ellipse fill="#47c2c2" stroke="black" cx="133.74" cy="-178.07" rx="60.62" ry="21.43"/>
<text text-anchor="middle" x="133.74" y="-181.07" font-family="Helvetica,sans-Serif" font-size="10.00" fill="#000000">srepkg.</text>
<text text-anchor="middle" x="133.74" y="-170.07" font-family="Helvetica,sans-Serif" font-size="10.00" fill="#000000">command_input</text>
</g>
<!-- srepkg_srepkg -->
<g id="node12" class="node">
<title>srepkg_srepkg</title><style>.edge>path:hover{stroke-width:8}</style>
<ellipse fill="#46a4a4" stroke="black" cx="196.74" cy="-99.64" rx="45.83" ry="18"/>
<text text-anchor="middle" x="196.74" y="-97.14" font-family="Helvetica,sans-Serif" font-size="10.00" fill="#000000">srepkg.srepkg</text>
</g>
<!-- srepkg_command_input&#45;&gt;srepkg_srepkg -->
<g id="edge3" class="edge">
<title>srepkg_command_input&#45;&gt;srepkg_srepkg</title><style>.edge>path:hover{stroke-width:8}</style>
<path fill="none" stroke="black" d="M149.96,-157.38C158.13,-147.47 168.11,-135.37 176.75,-124.89"/>
<polygon fill="#47c2c2" stroke="black" points="179.67,-126.85 183.33,-116.9 174.27,-122.39 179.67,-126.85"/>
</g>
<!-- srepkg_entry_points_builder -->
<g id="node4" class="node">
<title>srepkg_entry_points_builder</title><style>.edge>path:hover{stroke-width:8}</style>
<ellipse fill="#47c2c2" stroke="black" cx="258.74" cy="-334.92" rx="73.58" ry="21.43"/>
<text text-anchor="middle" x="258.74" y="-337.92" font-family="Helvetica,sans-Serif" font-size="10.00" fill="#000000">srepkg.</text>
<text text-anchor="middle" x="258.74" y="-326.92" font-family="Helvetica,sans-Serif" font-size="10.00" fill="#000000">entry_points_builder</text>
</g>
<!-- srepkg_srepkg_builder -->
<g id="node13" class="node">
<title>srepkg_srepkg_builder</title><style>.edge>path:hover{stroke-width:8}</style>
<ellipse fill="#3db8b8" stroke="black" cx="258.74" cy="-256.49" rx="56.64" ry="21.43"/>
<text text-anchor="middle" x="258.74" y="-259.49" font-family="Helvetica,sans-Serif" font-size="10.00" fill="#000000">srepkg.</text>
<text text-anchor="middle" x="258.74" y="-248.49" font-family="Helvetica,sans-Serif" font-size="10.00" fill="#000000">srepkg_builder</text>
</g>
<!-- srepkg_entry_points_builder&#45;&gt;srepkg_srepkg_builder -->
<g id="edge4" class="edge">
<title>srepkg_entry_points_builder&#45;&gt;srepkg_srepkg_builder</title><style>.edge>path:hover{stroke-width:8}</style>
<path fill="none" stroke="black" d="M258.74,-313.44C258.74,-305.58 258.74,-296.44 258.74,-287.84"/>
<polygon fill="#47c2c2" stroke="black" points="262.24,-287.76 258.74,-277.76 255.24,-287.76 262.24,-287.76"/>
</g>
<!-- srepkg_file_structure -->
<g id="node5" class="node">
<title>srepkg_file_structure</title><style>.edge>path:hover{stroke-width:8}</style>
<ellipse fill="#2db4b4" stroke="black" cx="115.74" cy="-334.92" rx="51.74" ry="21.43"/>
<text text-anchor="middle" x="115.74" y="-337.92" font-family="Helvetica,sans-Serif" font-size="10.00" fill="#000000">srepkg.</text>
<text text-anchor="middle" x="115.74" y="-326.92" font-family="Helvetica,sans-Serif" font-size="10.00" fill="#000000">file_structure</text>
</g>
<!-- srepkg_path_calculator -->
<g id="node9" class="node">
<title>srepkg_path_calculator</title><style>.edge>path:hover{stroke-width:8}</style>
<ellipse fill="#3db8b8" stroke="black" cx="120.74" cy="-256.49" rx="58.88" ry="21.43"/>
<text text-anchor="middle" x="120.74" y="-259.49" font-family="Helvetica,sans-Serif" font-size="10.00" fill="#000000">srepkg.</text>
<text text-anchor="middle" x="120.74" y="-248.49" font-family="Helvetica,sans-Serif" font-size="10.00" fill="#000000">path_calculator</text>
</g>
<!-- srepkg_file_structure&#45;&gt;srepkg_path_calculator -->
<g id="edge5" class="edge">
<title>srepkg_file_structure&#45;&gt;srepkg_path_calculator</title><style>.edge>path:hover{stroke-width:8}</style>
<path fill="none" stroke="black" d="M117.08,-313.44C117.59,-305.58 118.19,-296.44 118.75,-287.84"/>
<polygon fill="#2db4b4" stroke="black" points="122.25,-287.97 119.41,-277.76 115.27,-287.51 122.25,-287.97"/>
</g>
<!-- srepkg_file_structure_fs_specs -->
<g id="node6" class="node">
<title>srepkg_file_structure_fs_specs</title><style>.edge>path:hover{stroke-width:8}</style>
<ellipse fill="#47c2c2" stroke="black" cx="53.74" cy="-421.12" rx="53.98" ry="28.98"/>
<text text-anchor="middle" x="53.74" y="-429.62" font-family="Helvetica,sans-Serif" font-size="10.00" fill="#000000">srepkg.</text>
<text text-anchor="middle" x="53.74" y="-418.62" font-family="Helvetica,sans-Serif" font-size="10.00" fill="#000000">file_structure.</text>
<text text-anchor="middle" x="53.74" y="-407.62" font-family="Helvetica,sans-Serif" font-size="10.00" fill="#000000">fs_specs</text>
</g>
<!-- srepkg_file_structure_fs_specs&#45;&gt;srepkg_file_structure -->
<g id="edge6" class="edge">
<title>srepkg_file_structure_fs_specs&#45;&gt;srepkg_file_structure</title><style>.edge>path:hover{stroke-width:8}</style>
<path fill="none" stroke="black" d="M73.02,-393.94C80.11,-384.31 88.16,-373.37 95.35,-363.61"/>
<polygon fill="#47c2c2" stroke="black" points="98.29,-365.52 101.4,-355.39 92.65,-361.37 98.29,-365.52"/>
</g>
<!-- srepkg_file_structure_fs_util -->
<g id="node7" class="node">
<title>srepkg_file_structure_fs_util</title><style>.edge>path:hover{stroke-width:8}</style>
<ellipse fill="#47c2c2" stroke="black" cx="178.74" cy="-421.12" rx="53.98" ry="28.98"/>
<text text-anchor="middle" x="178.74" y="-429.62" font-family="Helvetica,sans-Serif" font-size="10.00" fill="#000000">srepkg.</text>
<text text-anchor="middle" x="178.74" y="-418.62" font-family="Helvetica,sans-Serif" font-size="10.00" fill="#000000">file_structure.</text>
<text text-anchor="middle" x="178.74" y="-407.62" font-family="Helvetica,sans-Serif" font-size="10.00" fill="#000000">fs_util</text>
</g>
<!-- srepkg_file_structure_fs_util&#45;&gt;srepkg_file_structure -->
<g id="edge7" class="edge">
<title>srepkg_file_structure_fs_util&#45;&gt;srepkg_file_structure</title><style>.edge>path:hover{stroke-width:8}</style>
<path fill="none" stroke="black" d="M159.15,-393.94C151.94,-384.31 143.76,-373.37 136.46,-363.61"/>
<polygon fill="#47c2c2" stroke="black" points="139.1,-361.3 130.31,-355.39 133.5,-365.5 139.1,-361.3"/>
</g>
<!-- srepkg_orig_pkg_inspector -->
<g id="node8" class="node">
<title>srepkg_orig_pkg_inspector</title><style>.edge>path:hover{stroke-width:8}</style>
<ellipse fill="#31c4c4" stroke="black" cx="408.74" cy="-256.49" rx="69.09" ry="21.43"/>
<text text-anchor="middle" x="408.74" y="-259.49" font-family="Helvetica,sans-Serif" font-size="10.00" fill="#000000">srepkg.</text>
<text text-anchor="middle" x="408.74" y="-248.49" font-family="Helvetica,sans-Serif" font-size="10.00" fill="#000000">orig_pkg_inspector</text>
</g>
<!-- srepkg_repackager -->
<g id="node10" class="node">
<title>srepkg_repackager</title><style>.edge>path:hover{stroke-width:8}</style>
<ellipse fill="#38a8a8" stroke="black" cx="258.74" cy="-178.07" rx="45.92" ry="21.43"/>
<text text-anchor="middle" x="258.74" y="-181.07" font-family="Helvetica,sans-Serif" font-size="10.00" fill="#000000">srepkg.</text>
<text text-anchor="middle" x="258.74" y="-170.07" font-family="Helvetica,sans-Serif" font-size="10.00" fill="#000000">repackager</text>
</g>
<!-- srepkg_orig_pkg_inspector&#45;&gt;srepkg_repackager -->
<g id="edge8" class="edge">
<title>srepkg_orig_pkg_inspector&#45;&gt;srepkg_repackager</title><style>.edge>path:hover{stroke-width:8}</style>
<path fill="none" stroke="black" d="M374.33,-237.96C351.57,-226.36 321.68,-211.14 298,-199.07"/>
<polygon fill="#31c4c4" stroke="black" points="299.43,-195.87 288.93,-194.45 296.25,-202.11 299.43,-195.87"/>
</g>
<!-- srepkg_thing -->
<g id="node14" class="node">
<title>srepkg_thing</title><style>.edge>path:hover{stroke-width:8}</style>
<ellipse fill="#3db8b8" stroke="black" cx="408.74" cy="-178.07" rx="41.41" ry="18"/>
<text text-anchor="middle" x="408.74" y="-175.57" font-family="Helvetica,sans-Serif" font-size="10.00" fill="#000000">srepkg.thing</text>
</g>
<!-- srepkg_orig_pkg_inspector&#45;&gt;srepkg_thing -->
<g id="edge9" class="edge">
<title>srepkg_orig_pkg_inspector&#45;&gt;srepkg_thing</title><style>.edge>path:hover{stroke-width:8}</style>
<path fill="none" stroke="black" d="M408.74,-235.01C408.74,-226.27 408.74,-215.95 408.74,-206.56"/>
<polygon fill="#31c4c4" stroke="black" points="412.24,-206.49 408.74,-196.49 405.24,-206.49 412.24,-206.49"/>
</g>
<!-- srepkg_path_calculator&#45;&gt;srepkg_repackager -->
<g id="edge10" class="edge">
<title>srepkg_path_calculator&#45;&gt;srepkg_repackager</title><style>.edge>path:hover{stroke-width:8}</style>
<path fill="none" stroke="black" d="M151.71,-238.34C172.29,-226.94 199.44,-211.91 221.24,-199.83"/>
<polygon fill="#3db8b8" stroke="black" points="223.17,-202.76 230.22,-194.86 219.78,-196.64 223.17,-202.76"/>
</g>
<!-- srepkg_repackager&#45;&gt;srepkg_srepkg -->
<g id="edge11" class="edge">
<title>srepkg_repackager&#45;&gt;srepkg_srepkg</title><style>.edge>path:hover{stroke-width:8}</style>
<path fill="none" stroke="black" d="M243.09,-157.78C235.06,-147.87 225.17,-135.69 216.6,-125.12"/>
<polygon fill="#38a8a8" stroke="black" points="219.09,-122.63 210.07,-117.07 213.65,-127.04 219.09,-122.63"/>
</g>
<!-- srepkg_setup_file_reader&#45;&gt;srepkg_orig_pkg_inspector -->
<g id="edge12" class="edge">
<title>srepkg_setup_file_reader&#45;&gt;srepkg_orig_pkg_inspector</title><style>.edge>path:hover{stroke-width:8}</style>
<path fill="none" stroke="black" d="M413.13,-313.44C412.52,-305.58 411.8,-296.44 411.12,-287.84"/>
<polygon fill="#40bfc0" stroke="black" points="414.6,-287.46 410.33,-277.76 407.63,-288.01 414.6,-287.46"/>
</g>
<!-- srepkg_srepkg_builder&#45;&gt;srepkg_repackager -->
<g id="edge13" class="edge">
<title>srepkg_srepkg_builder&#45;&gt;srepkg_repackager</title><style>.edge>path:hover{stroke-width:8}</style>
<path fill="none" stroke="black" d="M258.74,-235.01C258.74,-227.15 258.74,-218.01 258.74,-209.42"/>
<polygon fill="#3db8b8" stroke="black" points="262.24,-209.34 258.74,-199.34 255.24,-209.34 262.24,-209.34"/>
</g>
<!-- srepkg_thing&#45;&gt;srepkg_thing_controller -->
<g id="edge14" class="edge">
<title>srepkg_thing&#45;&gt;srepkg_thing_controller</title><style>.edge>path:hover{stroke-width:8}</style>
<path fill="none" stroke="black" d="M420.89,-160.48C427.69,-151.2 436.36,-139.38 444.18,-128.69"/>
<polygon fill="#3db8b8" stroke="black" points="447.14,-130.58 450.23,-120.44 441.5,-126.44 447.14,-130.58"/>
</g>
<!-- srepkg_thing_user -->
<g id="node16" class="node">
<title>srepkg_thing_user</title><style>.edge>path:hover{stroke-width:8}</style>
<ellipse fill="#49acac" stroke="black" cx="464.74" cy="-21.21" rx="43.68" ry="21.43"/>
<text text-anchor="middle" x="464.74" y="-24.21" font-family="Helvetica,sans-Serif" font-size="10.00" fill="#000000">srepkg.</text>
<text text-anchor="middle" x="464.74" y="-13.21" font-family="Helvetica,sans-Serif" font-size="10.00" fill="#000000">thing_user</text>
</g>
<!-- srepkg_thing_controller&#45;&gt;srepkg_thing_user -->
<g id="edge15" class="edge">
<title>srepkg_thing_controller&#45;&gt;srepkg_thing_user</title><style>.edge>path:hover{stroke-width:8}</style>
<path fill="none" stroke="black" d="M464.74,-78.16C464.74,-70.3 464.74,-61.16 464.74,-52.57"/>
<polygon fill="#3ab0b0" stroke="black" points="468.24,-52.49 464.74,-42.49 461.24,-52.49 468.24,-52.49"/>
</g>
</g>
</svg>
