<?xml version="1.0" encoding="UTF-8" standalone="no"?>
<!DOCTYPE svg PUBLIC "-//W3C//DTD SVG 1.1//EN"
 "http://www.w3.org/Graphics/SVG/1.1/DTD/svg11.dtd">
<!-- Generated by graphviz version 2.43.0 (0)
 -->
<!-- Title: G Pages: 1 -->
<svg width="1045pt" height="358pt"
 viewBox="0.00 0.00 1045.31 357.71" xmlns="http://www.w3.org/2000/svg" xmlns:xlink="http://www.w3.org/1999/xlink">
<g id="graph0" class="graph" transform="scale(1 1) rotate(0) translate(4 353.71)">
<title>G</title><style>.edge>path:hover{stroke-width:8}</style>
<polygon fill="white" stroke="transparent" points="-4,4 -4,-353.71 1041.31,-353.71 1041.31,4 -4,4"/>
<!-- inner_pkg_installer -->
<g id="node1" class="node">
<title>inner_pkg_installer</title><style>.edge>path:hover{stroke-width:8}</style>
<ellipse fill="#ce3b3b" stroke="black" cx="289.92" cy="-328.49" rx="64.51" ry="18"/>
<text text-anchor="middle" x="289.92" y="-325.99" font-family="Helvetica,sans-Serif" font-size="10.00" fill="#ffffff">inner_pkg_installer</text>
</g>
<!-- srepkg_construction_dir -->
<g id="node4" class="node">
<title>srepkg_construction_dir</title><style>.edge>path:hover{stroke-width:8}</style>
<ellipse fill="#35a1a1" stroke="black" cx="410.92" cy="-171.64" rx="67.35" ry="21.43"/>
<text text-anchor="middle" x="410.92" y="-174.64" font-family="Helvetica,sans-Serif" font-size="10.00" fill="#000000">srepkg.</text>
<text text-anchor="middle" x="410.92" y="-163.64" font-family="Helvetica,sans-Serif" font-size="10.00" fill="#000000">construction_dir</text>
</g>
<!-- inner_pkg_installer&#45;&gt;srepkg_construction_dir -->
<g id="edge1" class="edge">
<title>inner_pkg_installer&#45;&gt;srepkg_construction_dir</title><style>.edge>path:hover{stroke-width:8}</style>
<path fill="none" stroke="black" d="M328.66,-314.07C349.2,-305.04 373.17,-291.11 387.92,-271.28 402.56,-251.61 408.07,-224.1 410.06,-203.13"/>
<polygon fill="#ce3b3b" stroke="black" points="413.55,-203.36 410.79,-193.13 406.57,-202.85 413.55,-203.36"/>
</g>
<!-- srepkg_dist_provider -->
<g id="node8" class="node">
<title>srepkg_dist_provider</title><style>.edge>path:hover{stroke-width:8}</style>
<ellipse fill="#38a8a8" stroke="black" cx="268.92" cy="-171.64" rx="56.64" ry="21.43"/>
<text text-anchor="middle" x="268.92" y="-174.64" font-family="Helvetica,sans-Serif" font-size="10.00" fill="#000000">srepkg.</text>
<text text-anchor="middle" x="268.92" y="-163.64" font-family="Helvetica,sans-Serif" font-size="10.00" fill="#000000">dist_provider</text>
</g>
<!-- inner_pkg_installer&#45;&gt;srepkg_dist_provider -->
<g id="edge2" class="edge">
<title>inner_pkg_installer&#45;&gt;srepkg_dist_provider</title><style>.edge>path:hover{stroke-width:8}</style>
<path fill="none" stroke="black" d="M232.58,-319.88C202.61,-312.66 168.41,-298.62 149.92,-271.28 139.36,-255.66 139.83,-244.78 149.92,-228.85 158.08,-215.98 190.06,-201.25 218.81,-190.11"/>
<polygon fill="#ce3b3b" stroke="black" points="220.29,-193.29 228.4,-186.47 217.81,-186.74 220.29,-193.29"/>
</g>
<!-- srepkg_srepkg_builder -->
<g id="node17" class="node">
<title>srepkg_srepkg_builder</title><style>.edge>path:hover{stroke-width:8}</style>
<ellipse fill="#309191" stroke="black" cx="757.92" cy="-171.64" rx="62.87" ry="21.43"/>
<text text-anchor="middle" x="757.92" y="-174.64" font-family="Helvetica,sans-Serif" font-size="10.00" fill="#ffffff">srepkg.</text>
<text text-anchor="middle" x="757.92" y="-163.64" font-family="Helvetica,sans-Serif" font-size="10.00" fill="#ffffff">srepkg_builder</text>
</g>
<!-- inner_pkg_installer&#45;&gt;srepkg_srepkg_builder -->
<g id="edge3" class="edge">
<title>inner_pkg_installer&#45;&gt;srepkg_srepkg_builder</title><style>.edge>path:hover{stroke-width:8}</style>
<path fill="none" stroke="black" d="M332.78,-314.98C342.94,-312.24 353.77,-309.5 363.92,-307.28 459.86,-286.31 489.25,-303.77 581.92,-271.28 634.11,-252.98 688.87,-219.73 723.18,-196.93"/>
<polygon fill="#ce3b3b" stroke="black" points="725.53,-199.58 731.87,-191.09 721.62,-193.77 725.53,-199.58"/>
</g>
<!-- inner_pkg_installer_inner_pkg_installer -->
<g id="node2" class="node">
<title>inner_pkg_installer_inner_pkg_installer</title><style>.edge>path:hover{stroke-width:8}</style>
<ellipse fill="#b65353" stroke="black" cx="875.92" cy="-328.49" rx="79.39" ry="21.43"/>
<text text-anchor="middle" x="875.92" y="-331.49" font-family="Helvetica,sans-Serif" font-size="10.00" fill="#ffffff">inner_pkg_installer.</text>
<text text-anchor="middle" x="875.92" y="-320.49" font-family="Helvetica,sans-Serif" font-size="10.00" fill="#ffffff">inner_pkg_installer</text>
</g>
<!-- inner_pkg_installer_inner_pkg_installer&#45;&gt;srepkg_srepkg_builder -->
<g id="edge4" class="edge">
<title>inner_pkg_installer_inner_pkg_installer&#45;&gt;srepkg_srepkg_builder</title><style>.edge>path:hover{stroke-width:8}</style>
<path fill="none" stroke="black" d="M858.51,-307.72C847.37,-293.17 834.67,-272.31 832.92,-251.07"/>
</g>
<!-- srepkg_command_input -->
<g id="node3" class="node">
<title>srepkg_command_input</title><style>.edge>path:hover{stroke-width:8}</style>
<ellipse fill="#3db8b8" stroke="black" cx="716.92" cy="-93.21" rx="67.35" ry="21.43"/>
<text text-anchor="middle" x="716.92" y="-96.21" font-family="Helvetica,sans-Serif" font-size="10.00" fill="#000000">srepkg.</text>
<text text-anchor="middle" x="716.92" y="-85.21" font-family="Helvetica,sans-Serif" font-size="10.00" fill="#000000">command_input</text>
</g>
<!-- srepkg_srepkg -->
<g id="node16" class="node">
<title>srepkg_srepkg</title><style>.edge>path:hover{stroke-width:8}</style>
<ellipse fill="#439d9d" stroke="black" cx="716.92" cy="-18" rx="50.75" ry="18"/>
<text text-anchor="middle" x="716.92" y="-15.5" font-family="Helvetica,sans-Serif" font-size="10.00" fill="#000000">srepkg.srepkg</text>
</g>
<!-- srepkg_command_input&#45;&gt;srepkg_srepkg -->
<g id="edge5" class="edge">
<title>srepkg_command_input&#45;&gt;srepkg_srepkg</title><style>.edge>path:hover{stroke-width:8}</style>
<path fill="none" stroke="black" d="M716.92,-71.82C716.92,-63.97 716.92,-54.86 716.92,-46.45"/>
<polygon fill="#3db8b8" stroke="black" points="720.42,-46.31 716.92,-36.31 713.42,-46.31 720.42,-46.31"/>
</g>
<!-- srepkg_service_builder -->
<g id="node15" class="node">
<title>srepkg_service_builder</title><style>.edge>path:hover{stroke-width:8}</style>
<ellipse fill="#2b8282" stroke="black" cx="566.92" cy="-93.21" rx="64.19" ry="21.43"/>
<text text-anchor="middle" x="566.92" y="-96.21" font-family="Helvetica,sans-Serif" font-size="10.00" fill="#ffffff">srepkg.</text>
<text text-anchor="middle" x="566.92" y="-85.21" font-family="Helvetica,sans-Serif" font-size="10.00" fill="#ffffff">service_builder</text>
</g>
<!-- srepkg_construction_dir&#45;&gt;srepkg_service_builder -->
<g id="edge6" class="edge">
<title>srepkg_construction_dir&#45;&gt;srepkg_service_builder</title><style>.edge>path:hover{stroke-width:8}</style>
<path fill="none" stroke="black" d="M445.93,-153.49C468.79,-142.29 498.82,-127.58 523.24,-115.61"/>
<polygon fill="#35a1a1" stroke="black" points="524.86,-118.72 532.3,-111.18 521.78,-112.43 524.86,-118.72"/>
</g>
<!-- srepkg_cs_entry_pts -->
<g id="node5" class="node">
<title>srepkg_cs_entry_pts</title><style>.edge>path:hover{stroke-width:8}</style>
<ellipse fill="#3db8b8" stroke="black" cx="749.92" cy="-250.07" rx="55.31" ry="21.43"/>
<text text-anchor="middle" x="749.92" y="-253.07" font-family="Helvetica,sans-Serif" font-size="10.00" fill="#000000">srepkg.</text>
<text text-anchor="middle" x="749.92" y="-242.07" font-family="Helvetica,sans-Serif" font-size="10.00" fill="#000000">cs_entry_pts</text>
</g>
<!-- srepkg_cs_entry_pts&#45;&gt;srepkg_srepkg_builder -->
<g id="edge7" class="edge">
<title>srepkg_cs_entry_pts&#45;&gt;srepkg_srepkg_builder</title><style>.edge>path:hover{stroke-width:8}</style>
<path fill="none" stroke="black" d="M752.07,-228.59C752.89,-220.73 753.85,-211.58 754.75,-202.99"/>
<polygon fill="#3db8b8" stroke="black" points="758.24,-203.22 755.8,-192.91 751.28,-202.49 758.24,-203.22"/>
</g>
<!-- srepkg_dist_builder -->
<g id="node6" class="node">
<title>srepkg_dist_builder</title><style>.edge>path:hover{stroke-width:8}</style>
<ellipse fill="#24d0d0" stroke="black" cx="486.92" cy="-250.07" rx="52.15" ry="21.43"/>
<text text-anchor="middle" x="486.92" y="-253.07" font-family="Helvetica,sans-Serif" font-size="10.00" fill="#000000">srepkg.</text>
<text text-anchor="middle" x="486.92" y="-242.07" font-family="Helvetica,sans-Serif" font-size="10.00" fill="#000000">dist_builder</text>
</g>
<!-- srepkg_dist_builder&#45;&gt;srepkg_construction_dir -->
<g id="edge8" class="edge">
<title>srepkg_dist_builder&#45;&gt;srepkg_construction_dir</title><style>.edge>path:hover{stroke-width:8}</style>
<path fill="none" stroke="black" d="M468.14,-230.17C458.87,-220.85 447.53,-209.45 437.4,-199.27"/>
<polygon fill="#24d0d0" stroke="black" points="439.82,-196.74 430.29,-192.11 434.86,-201.67 439.82,-196.74"/>
</g>
<!-- srepkg_dist_builder&#45;&gt;srepkg_dist_provider -->
<g id="edge9" class="edge">
<title>srepkg_dist_builder&#45;&gt;srepkg_dist_provider</title><style>.edge>path:hover{stroke-width:8}</style>
<path fill="none" stroke="black" d="M448.45,-235.58C412.39,-222.94 358.29,-203.97 318.9,-190.16"/>
<polygon fill="#24d0d0" stroke="black" points="319.82,-186.77 309.22,-186.77 317.5,-193.38 319.82,-186.77"/>
</g>
<!-- srepkg_dist_builder&#45;&gt;srepkg_srepkg_builder -->
<g id="edge10" class="edge">
<title>srepkg_dist_builder&#45;&gt;srepkg_srepkg_builder</title><style>.edge>path:hover{stroke-width:8}</style>
<path fill="none" stroke="black" d="M527.62,-236.62C536.29,-234.01 545.4,-231.31 553.92,-228.85 603.16,-214.64 659.31,-199.23 700.22,-188.14"/>
<polygon fill="#24d0d0" stroke="black" points="701.28,-191.48 710.02,-185.49 699.45,-184.72 701.28,-191.48"/>
</g>
<!-- srepkg_dist_builder_sub_process -->
<g id="node7" class="node">
<title>srepkg_dist_builder_sub_process</title><style>.edge>path:hover{stroke-width:8}</style>
<ellipse fill="#47c2c2" stroke="black" cx="470.92" cy="-328.49" rx="98.08" ry="21.43"/>
<text text-anchor="middle" x="470.92" y="-331.49" font-family="Helvetica,sans-Serif" font-size="10.00" fill="#000000">srepkg.</text>
<text text-anchor="middle" x="470.92" y="-320.49" font-family="Helvetica,sans-Serif" font-size="10.00" fill="#000000">dist_builder_sub_process</text>
</g>
<!-- srepkg_dist_builder_sub_process&#45;&gt;srepkg_dist_builder -->
<g id="edge11" class="edge">
<title>srepkg_dist_builder_sub_process&#45;&gt;srepkg_dist_builder</title><style>.edge>path:hover{stroke-width:8}</style>
<path fill="none" stroke="black" d="M475.21,-307.01C476.87,-299.07 478.81,-289.81 480.63,-281.14"/>
<polygon fill="#47c2c2" stroke="black" points="484.05,-281.84 482.68,-271.34 477.2,-280.41 484.05,-281.84"/>
</g>
<!-- srepkg_dist_provider&#45;&gt;srepkg_service_builder -->
<g id="edge12" class="edge">
<title>srepkg_dist_provider&#45;&gt;srepkg_service_builder</title><style>.edge>path:hover{stroke-width:8}</style>
<path fill="none" stroke="black" d="M311.06,-157.32C318.97,-154.94 327.18,-152.55 334.92,-150.43 392.27,-134.71 458.21,-118.96 505.09,-108.14"/>
<polygon fill="#38a8a8" stroke="black" points="506.13,-111.49 515.1,-105.84 504.57,-104.67 506.13,-111.49"/>
</g>
<!-- srepkg_orig_src_preparer -->
<g id="node9" class="node">
<title>srepkg_orig_src_preparer</title><style>.edge>path:hover{stroke-width:8}</style>
<ellipse fill="#38a8a8" stroke="black" cx="567.92" cy="-171.64" rx="71.34" ry="21.43"/>
<text text-anchor="middle" x="567.92" y="-174.64" font-family="Helvetica,sans-Serif" font-size="10.00" fill="#000000">srepkg.</text>
<text text-anchor="middle" x="567.92" y="-163.64" font-family="Helvetica,sans-Serif" font-size="10.00" fill="#000000">orig_src_preparer</text>
</g>
<!-- srepkg_orig_src_preparer&#45;&gt;srepkg_service_builder -->
<g id="edge13" class="edge">
<title>srepkg_orig_src_preparer&#45;&gt;srepkg_service_builder</title><style>.edge>path:hover{stroke-width:8}</style>
<path fill="none" stroke="black" d="M567.65,-150.16C567.55,-142.3 567.43,-133.16 567.32,-124.57"/>
<polygon fill="#38a8a8" stroke="black" points="570.82,-124.44 567.19,-114.49 563.82,-124.53 570.82,-124.44"/>
</g>
<!-- srepkg_orig_src_preparer_interfaces -->
<g id="node10" class="node">
<title>srepkg_orig_src_preparer_interfaces</title><style>.edge>path:hover{stroke-width:8}</style>
<ellipse fill="#16f3f3" stroke="black" cx="268.92" cy="-250.07" rx="109.7" ry="21.43"/>
<text text-anchor="middle" x="268.92" y="-253.07" font-family="Helvetica,sans-Serif" font-size="10.00" fill="#000000">srepkg.</text>
<text text-anchor="middle" x="268.92" y="-242.07" font-family="Helvetica,sans-Serif" font-size="10.00" fill="#000000">orig_src_preparer_interfaces</text>
</g>
<!-- srepkg_orig_src_preparer_interfaces&#45;&gt;srepkg_construction_dir -->
<g id="edge14" class="edge">
<title>srepkg_orig_src_preparer_interfaces&#45;&gt;srepkg_construction_dir</title><style>.edge>path:hover{stroke-width:8}</style>
<path fill="none" stroke="black" d="M304.39,-229.98C324,-219.42 348.47,-206.25 369.02,-195.19"/>
<polygon fill="#16f3f3" stroke="black" points="370.71,-198.26 377.85,-190.44 367.39,-192.09 370.71,-198.26"/>
</g>
<!-- srepkg_orig_src_preparer_interfaces&#45;&gt;srepkg_dist_provider -->
<g id="edge15" class="edge">
<title>srepkg_orig_src_preparer_interfaces&#45;&gt;srepkg_dist_provider</title><style>.edge>path:hover{stroke-width:8}</style>
<path fill="none" stroke="black" d="M268.92,-228.59C268.92,-220.73 268.92,-211.58 268.92,-202.99"/>
<polygon fill="#16f3f3" stroke="black" points="272.42,-202.91 268.92,-192.91 265.42,-202.91 272.42,-202.91"/>
</g>
<!-- srepkg_orig_src_preparer_interfaces&#45;&gt;srepkg_orig_src_preparer -->
<g id="edge16" class="edge">
<title>srepkg_orig_src_preparer_interfaces&#45;&gt;srepkg_orig_src_preparer</title><style>.edge>path:hover{stroke-width:8}</style>
<path fill="none" stroke="black" d="M332.7,-232.76C383.67,-219.74 454.72,-201.58 505.37,-188.63"/>
<polygon fill="#16f3f3" stroke="black" points="506.39,-191.98 515.21,-186.11 504.66,-185.2 506.39,-191.98"/>
</g>
<!-- srepkg_remote_pkg_retriever -->
<g id="node11" class="node">
<title>srepkg_remote_pkg_retriever</title><style>.edge>path:hover{stroke-width:8}</style>
<ellipse fill="#3db8b8" stroke="black" cx="107.92" cy="-171.64" rx="86.03" ry="21.43"/>
<text text-anchor="middle" x="107.92" y="-174.64" font-family="Helvetica,sans-Serif" font-size="10.00" fill="#000000">srepkg.</text>
<text text-anchor="middle" x="107.92" y="-163.64" font-family="Helvetica,sans-Serif" font-size="10.00" fill="#000000">remote_pkg_retriever</text>
</g>
<!-- srepkg_orig_src_preparer_interfaces&#45;&gt;srepkg_remote_pkg_retriever -->
<g id="edge17" class="edge">
<title>srepkg_orig_src_preparer_interfaces&#45;&gt;srepkg_remote_pkg_retriever</title><style>.edge>path:hover{stroke-width:8}</style>
<path fill="none" stroke="black" d="M229.12,-230.17C206.76,-219.56 178.72,-206.25 155.24,-195.1"/>
<polygon fill="#16f3f3" stroke="black" points="156.69,-191.91 146.15,-190.79 153.69,-198.24 156.69,-191.91"/>
</g>
<!-- srepkg_orig_src_preparer_interfaces&#45;&gt;srepkg_service_builder -->
<g id="edge18" class="edge">
<title>srepkg_orig_src_preparer_interfaces&#45;&gt;srepkg_service_builder</title><style>.edge>path:hover{stroke-width:8}</style>
<path fill="none" stroke="black" d="M167.66,-241.85C75.66,-231.59 -38.41,-207.23 12.92,-150.43 44.51,-115.47 349.25,-101.15 492.81,-96.32"/>
<polygon fill="#16f3f3" stroke="black" points="492.98,-99.81 502.86,-95.98 492.75,-92.82 492.98,-99.81"/>
</g>
<!-- srepkg_remote_pkg_retriever&#45;&gt;srepkg_service_builder -->
<g id="edge19" class="edge">
<title>srepkg_remote_pkg_retriever&#45;&gt;srepkg_service_builder</title><style>.edge>path:hover{stroke-width:8}</style>
<path fill="none" stroke="black" d="M170.17,-156.87C181.06,-154.61 192.31,-152.37 202.92,-150.43 305.49,-131.61 425.09,-113.96 498.41,-103.62"/>
<polygon fill="#3db8b8" stroke="black" points="499.02,-107.07 508.44,-102.21 498.05,-100.13 499.02,-107.07"/>
</g>
<!-- srepkg_repackager -->
<g id="node12" class="node">
<title>srepkg_repackager</title><style>.edge>path:hover{stroke-width:8}</style>
<ellipse fill="#3db8b8" stroke="black" cx="851.92" cy="-93.21" rx="50.41" ry="21.43"/>
<text text-anchor="middle" x="851.92" y="-96.21" font-family="Helvetica,sans-Serif" font-size="10.00" fill="#000000">srepkg.</text>
<text text-anchor="middle" x="851.92" y="-85.21" font-family="Helvetica,sans-Serif" font-size="10.00" fill="#000000">repackager</text>
</g>
<!-- srepkg_repackager&#45;&gt;srepkg_srepkg -->
<g id="edge20" class="edge">
<title>srepkg_repackager&#45;&gt;srepkg_srepkg</title><style>.edge>path:hover{stroke-width:8}</style>
<path fill="none" stroke="black" d="M821.96,-75.96C801.43,-64.83 774.12,-50.02 752.49,-38.29"/>
<polygon fill="#3db8b8" stroke="black" points="754.06,-35.16 743.6,-33.47 750.72,-41.31 754.06,-35.16"/>
</g>
<!-- srepkg_repackager_data_structs -->
<g id="node13" class="node">
<title>srepkg_repackager_data_structs</title><style>.edge>path:hover{stroke-width:8}</style>
<ellipse fill="#10f9f9" stroke="black" cx="682.92" cy="-328.49" rx="96.33" ry="21.43"/>
<text text-anchor="middle" x="682.92" y="-331.49" font-family="Helvetica,sans-Serif" font-size="10.00" fill="#000000">srepkg.</text>
<text text-anchor="middle" x="682.92" y="-320.49" font-family="Helvetica,sans-Serif" font-size="10.00" fill="#000000">repackager_data_structs</text>
</g>
<!-- srepkg_repackager_data_structs&#45;&gt;srepkg_construction_dir -->
<g id="edge21" class="edge">
<title>srepkg_repackager_data_structs&#45;&gt;srepkg_construction_dir</title><style>.edge>path:hover{stroke-width:8}</style>
<path fill="none" stroke="black" d="M650.41,-308.44C626.65,-293.92 594.14,-272.78 567.92,-251.07"/>
<path fill="none" stroke="black" d="M567.92,-249.07C558.19,-241 558.42,-235.88 547.92,-228.85 523.49,-212.49 493.54,-199.53 467.88,-190.19"/>
<polygon fill="#10f9f9" stroke="black" points="468.87,-186.83 458.27,-186.79 466.53,-193.43 468.87,-186.83"/>
</g>
<!-- srepkg_repackager_data_structs&#45;&gt;srepkg_cs_entry_pts -->
<g id="edge22" class="edge">
<title>srepkg_repackager_data_structs&#45;&gt;srepkg_cs_entry_pts</title><style>.edge>path:hover{stroke-width:8}</style>
<path fill="none" stroke="black" d="M700.53,-307.41C708.34,-298.5 717.66,-287.87 726.08,-278.26"/>
<polygon fill="#10f9f9" stroke="black" points="728.94,-280.31 732.9,-270.48 723.67,-275.7 728.94,-280.31"/>
</g>
<!-- srepkg_repackager_data_structs&#45;&gt;srepkg_orig_src_preparer -->
<g id="edge23" class="edge">
<title>srepkg_repackager_data_structs&#45;&gt;srepkg_orig_src_preparer</title><style>.edge>path:hover{stroke-width:8}</style>
<path fill="none" stroke="black" d="M567.92,-249.07C554.81,-238.2 554.84,-219.02 558.14,-202.59"/>
<polygon fill="#10f9f9" stroke="black" points="561.55,-203.36 560.53,-192.82 554.75,-201.7 561.55,-203.36"/>
</g>
<!-- srepkg_repackager_interfaces -->
<g id="node14" class="node">
<title>srepkg_repackager_interfaces</title><style>.edge>path:hover{stroke-width:8}</style>
<ellipse fill="#0ce9e9" stroke="black" cx="948.92" cy="-250.07" rx="88.28" ry="21.43"/>
<text text-anchor="middle" x="948.92" y="-253.07" font-family="Helvetica,sans-Serif" font-size="10.00" fill="#000000">srepkg.</text>
<text text-anchor="middle" x="948.92" y="-242.07" font-family="Helvetica,sans-Serif" font-size="10.00" fill="#000000">repackager_interfaces</text>
</g>
<!-- srepkg_repackager_data_structs&#45;&gt;srepkg_repackager_interfaces -->
<g id="edge24" class="edge">
<title>srepkg_repackager_data_structs&#45;&gt;srepkg_repackager_interfaces</title><style>.edge>path:hover{stroke-width:8}</style>
<path fill="none" stroke="black" d="M739.33,-311.28C781.73,-299.1 839.87,-282.4 884.16,-269.67"/>
<polygon fill="#10f9f9" stroke="black" points="885.31,-272.98 893.96,-266.86 883.38,-266.26 885.31,-272.98"/>
</g>
<!-- srepkg_repackager_data_structs&#45;&gt;srepkg_service_builder -->
<g id="edge25" class="edge">
<title>srepkg_repackager_data_structs&#45;&gt;srepkg_service_builder</title><style>.edge>path:hover{stroke-width:8}</style>
<path fill="none" stroke="black" d="M683.66,-307.08C683.94,-272.1 680.19,-199.71 647.92,-150.43 638.92,-136.68 625.29,-125.34 611.76,-116.54"/>
<polygon fill="#10f9f9" stroke="black" points="613.28,-113.36 602.93,-111.11 609.62,-119.33 613.28,-113.36"/>
</g>
<!-- srepkg_repackager_data_structs&#45;&gt;srepkg_srepkg_builder -->
<g id="edge26" class="edge">
<title>srepkg_repackager_data_structs&#45;&gt;srepkg_srepkg_builder</title><style>.edge>path:hover{stroke-width:8}</style>
<path fill="none" stroke="black" d="M737.55,-311.01C781.17,-296.15 834.75,-273.28 832.92,-251.07"/>
<path fill="none" stroke="black" d="M832.92,-249.07C831.11,-227.09 814.88,-209.08 797.98,-196.07"/>
<polygon fill="#10f9f9" stroke="black" points="799.85,-193.1 789.69,-190.09 795.76,-198.78 799.85,-193.1"/>
</g>
<!-- srepkg_repackager_interfaces&#45;&gt;srepkg_command_input -->
<g id="edge27" class="edge">
<title>srepkg_repackager_interfaces&#45;&gt;srepkg_command_input</title><style>.edge>path:hover{stroke-width:8}</style>
<path fill="none" stroke="black" d="M850.92,-170.64C840.19,-163.39 840.51,-157.89 829.92,-150.43 810.2,-136.52 786.53,-124.18 765.96,-114.63"/>
<polygon fill="#0ce9e9" stroke="black" points="767.31,-111.39 756.76,-110.44 764.41,-117.76 767.31,-111.39"/>
</g>
<!-- srepkg_repackager_interfaces&#45;&gt;srepkg_orig_src_preparer -->
<g id="edge28" class="edge">
<title>srepkg_repackager_interfaces&#45;&gt;srepkg_orig_src_preparer</title><style>.edge>path:hover{stroke-width:8}</style>
<path fill="none" stroke="black" d="M882.99,-235.84C813.77,-221.96 705.47,-200.23 635.6,-186.21"/>
<polygon fill="#0ce9e9" stroke="black" points="636.07,-182.74 625.58,-184.2 634.69,-189.6 636.07,-182.74"/>
</g>
<!-- srepkg_repackager_interfaces&#45;&gt;srepkg_repackager -->
<g id="edge29" class="edge">
<title>srepkg_repackager_interfaces&#45;&gt;srepkg_repackager</title><style>.edge>path:hover{stroke-width:8}</style>
<path fill="none" stroke="black" d="M850.92,-170.64C836.63,-160.98 837.11,-141.42 841.05,-124.51"/>
<polygon fill="#0ce9e9" stroke="black" points="844.54,-125 843.84,-114.43 837.8,-123.13 844.54,-125"/>
</g>
<!-- srepkg_repackager_interfaces&#45;&gt;srepkg_service_builder -->
<g id="edge30" class="edge">
<title>srepkg_repackager_interfaces&#45;&gt;srepkg_service_builder</title><style>.edge>path:hover{stroke-width:8}</style>
<path fill="none" stroke="black" d="M925.44,-229.28C906,-213.27 877.38,-190.52 850.92,-172.64"/>
<path fill="none" stroke="black" d="M850.92,-170.64C840.19,-163.39 841.43,-156.38 829.92,-150.43 753.97,-111.15 724.23,-133.71 640.92,-114.43 635.49,-113.17 629.85,-111.78 624.23,-110.34"/>
<polygon fill="#0ce9e9" stroke="black" points="624.71,-106.85 614.15,-107.71 622.94,-113.62 624.71,-106.85"/>
</g>
<!-- srepkg_repackager_interfaces&#45;&gt;srepkg_srepkg_builder -->
<g id="edge31" class="edge">
<title>srepkg_repackager_interfaces&#45;&gt;srepkg_srepkg_builder</title><style>.edge>path:hover{stroke-width:8}</style>
<path fill="none" stroke="black" d="M905.1,-231.53C875.69,-219.76 836.91,-204.24 806.54,-192.09"/>
<polygon fill="#0ce9e9" stroke="black" points="807.58,-188.74 797,-188.28 804.98,-195.24 807.58,-188.74"/>
</g>
<!-- srepkg_service_builder&#45;&gt;srepkg_srepkg -->
<g id="edge32" class="edge">
<title>srepkg_service_builder&#45;&gt;srepkg_srepkg</title><style>.edge>path:hover{stroke-width:8}</style>
<path fill="none" stroke="black" d="M601.71,-75.23C624.94,-63.9 655.47,-48.99 679.27,-37.38"/>
<polygon fill="#2b8282" stroke="black" points="680.9,-40.47 688.36,-32.94 677.83,-34.18 680.9,-40.47"/>
</g>
<!-- srepkg_srepkg_builder&#45;&gt;srepkg_service_builder -->
<g id="edge33" class="edge">
<title>srepkg_srepkg_builder&#45;&gt;srepkg_service_builder</title><style>.edge>path:hover{stroke-width:8}</style>
<path fill="none" stroke="black" d="M718.81,-154.99C689.14,-143.12 648.15,-126.72 616.23,-113.94"/>
<polygon fill="#309191" stroke="black" points="617.22,-110.57 606.64,-110.11 614.62,-117.07 617.22,-110.57"/>
</g>
</g>
</svg>
